Rocket Sharpie Bold.glyphspackage
{
glyphname = exclam;
layers = (
{
layerId = "8796DA50-D6B7-4313-95AF-F4283B991C1A";
shapes = (
{
closed = 1;
nodes = (
(75,337,o),
(124,430,o),
(130,510,c),
(150,582,o),
(117,741,o),
(241,716,c),
(349,672,o),
(247,430,o),
(246,337,c),
(240,303,o),
(245,254,o),
(205,240,c),
(174,232,o),
(126,233,o),
(109,260,c)
);
},
{
closed = 1;
nodes = (
(238,-12,o),
(115,-50,o),
(79,-26,c),
(-4,60,o),
(110,171,o),
(196,40,c)
);
}
);
width = 591;
}
);
unicode = 33;
}
{
glyphname = quotedbl;
rightMetricsKey = "=|";
layers = (
{
guides = (
{
position = "{0, 297}";
}
);
layerId = "8796DA50-D6B7-4313-95AF-F4283B991C1A";
shapes = (
{
closed = 1;
nodes = (
(139.504,736.921,o),
(21.499,725.534,o),
(57.728,628.232,c),
(74.29,570.265,o),
(92.923,509.192,o),
(104.309,447.084,c),
(107.415,390.152,o),
(99.134,294.92,o),
(186.084,314.588,c),
(226.455,327.009,o),
(217.138,382.906,o),
(211.963,416.031,c),
(196.436,492.63,o),
(190.225,574.405,o),
(160.206,646.865,c)
);
},
{
closed = 1;
nodes = (
(222.314,669.637,o),
(310.3,540.246,o),
(319.616,477.103,c),
(337.213,423.276,o),
(324.792,325.974,o),
(408.637,336.326,c),
(482.132,352.888,o),
(423.129,518.508,o),
(403.462,564.054,c),
(386.9,605.459,o),
(377.584,671.708,o),
(326.862,683.094,c)
);
}
);
width = 495;
}
);
unicode = 34;
}
{
glyphname = numbersign;
rightMetricsKey = "=|";
layers = (
{
layerId = "6DC978D1-58EC-4728-9C90-896FC59D3452";
shapes = (
{
closed = 1;
nodes = (
(663,289,o),
(678,341,o),
(641,340,c),
(614,336,o),
(576,340,o),
(566,315,cs),
(556,287,o),
(541,225,o),
(589,242,c),
(613,252,o),
(649,239,o),
(661,265,c)
);
},
{
closed = 1;
nodes = (
(440,298,o),
(388,275,o),
(362,287,c),
(320,300,o),
(301,377,o),
(345,395,cs),
(366,404,o),
(391,405,o),
(414,410,c),
(490,412,o),
(474,497,o),
(483,548,c),
(493,645,o),
(576,592,o),
(591,529,c),
(600,503,o),
(558,460,o),
(599,453,c),
(705,442,o),
(671,558,o),
(701,625,c),
(722,700,o),
(799,653,o),
(806,601,cs),
(810,576,o),
(795,554,o),
(794,529,cs),
(792,471,o),
(854,523,o),
(883,504,c),
(916,493,o),
(963,409,o),
(919,388,c),
(842,366,o),
(734,401,o),
(780,278,c),
(845,258,o),
(900,293,o),
(921,195,c),
(937,100,o),
(814,176,o),
(773,138,c),
(754,119,o),
(766,86,o),
(763,61,c),
(761,-52,o),
(648,-34,o),
(645,69,cs),
(644,94,o),
(649,130,o),
(612,126,cs),
(562,120,o),
(549,100,o),
(538,54,c),
(529,24,o),
(489,13,o),
(464,31,c),
(442,43,o),
(435,71,o),
(414,86,cs),
(395,99,o),
(366,96,o),
(344,105,cs),
(305,120,o),
(279,199,o),
(326,220,c),
(362,229,o),
(454,201,o),
(449,269,c)
);
}
);
width = 1237;
}
);
unicode = 35;
}
{
glyphname = dollar;
rightMetricsKey = "=|";
layers = (
{
layerId = "8796DA50-D6B7-4313-95AF-F4283B991C1A";
shapes = (
{
closed = 1;
nodes = (
(582,196,o),
(596,234,o),
(573,266,c),
(561,289,o),
(550,295,o),
(549,261,c),
(550,247,o),
(531,182,o),
(547,184,c)
);
},
{
closed = 1;
nodes = (
(563,498,o),
(572,459,o),
(573,431,c),
(581,407,o),
(613,399,o),
(632,381,cs),
(670,343,o),
(693,284,o),
(710,231,c),
(712,141,o),
(619,86,o),
(549,50,c),
(505,-11,o),
(448,-46,o),
(409,42,c),
(395,62,o),
(369,68,o),
(350,83,c),
(272,133,o),
(286,226,o),
(391,190,c),
(439,191,o),
(429,282,o),
(435,319,c),
(420,407,o),
(263,407,o),
(322,545,c),
(347,583,o),
(382,611,o),
(420,634,c),
(442,658,o),
(426,703,o),
(461,720,cs),
(488,733,o),
(526,720,o),
(544,698,c),
(573,638,o),
(558,628,o),
(626,596,c),
(646,583,o),
(664,545,o),
(636,532,c),
(617,521,o),
(591,533,o),
(575,524,c)
);
},
{
closed = 1;
nodes = (
(432,510,o),
(414,492,o),
(429,479,c),
(433,472,o),
(444,460,o),
(445,474,c),
(442,483,o),
(453,532,o),
(436,526,c)
);
}
);
width = 1011;
}
);
unicode = 36;
}
{
glyphname = percent;
rightMetricsKey = "=|";
layers = (
{
layerId = "8796DA50-D6B7-4313-95AF-F4283B991C1A";
shapes = (
{
closed = 1;
nodes = (
(556,-46,o),
(511,-24,o),
(491,3,c),
(452,86,o),
(553,159,o),
(576,235,c),
(642,359,o),
(685,496,o),
(753,618,c),
(799,660,o),
(865,613,o),
(850,554,cs),
(818,428,o),
(747,317,o),
(688,201,cs),
(653,132,o),
(623,48,o),
(581,-17,c)
);
},
{
closed = 1;
nodes = (
(563,502,o),
(459,524,o),
(438,490,c),
(360,392,o),
(504,392,o),
(545,457,c)
);
},
{
closed = 1;
nodes = (
(335,700,o),
(708,618,o),
(643,420,c),
(559,253,o),
(271,278,o),
(303,490,cs)
);
},
{
closed = 1;
nodes = (
(882,164,o),
(821,129,o),
(829,99,c),
(847,67,o),
(918,107,o),
(902,139,c)
);
},
{
closed = 1;
nodes = (
(837,-111,o),
(569,48,o),
(783,233,c),
(903,370,o),
(1059,178,o),
(997,52,c)
);
}
);
width = 1312;
}
);
unicode = 37;
}
{
glyphname = ampersand;
rightMetricsKey = "=|";
layers = (
{
layerId = "6DC978D1-58EC-4728-9C90-896FC59D3452";
shapes = (
{
closed = 1;
nodes = (
(411,188,o),
(403,74,o),
(473,104,c),
(525,123,o),
(504,202,o),
(457,206,c)
);
},
{
closed = 1;
nodes = (
(481,470,o),
(482,364,o),
(600,430,c),
(688,474,o),
(682,579,o),
(566,512,c)
);
},
{
closed = 1;
nodes = (
(708,120,o),
(813,124,o),
(827,40,c),
(831,-78,o),
(703,13,o),
(643,34,c),
(603,53,o),
(572,54,o),
(542,17,cs),
(474,-65,o),
(333,-26,o),
(310,75,c),
(263,210,o),
(412,279,o),
(398,394,cs),
(378,555,o),
(578,700,o),
(718,629,c),
(869,520,o),
(721,365,o),
(601,307,c),
(560,284,o),
(578,245,o),
(620,275,c),
(666,323,o),
(849,384,o),
(885,310,c),
(898,240,o),
(823,229,o),
(770,220,c),
(743,212,o),
(690,194,o),
(684,167,c)
);
}
);
width = 1187;
}
);
unicode = 38;
}
{
glyphname = quotesingle;
rightMetricsKey = "=|";
layers = (
{
layerId = "8796DA50-D6B7-4313-95AF-F4283B991C1A";
shapes = (
{
closed = 1;
nodes = (
(197,578,o),
(203,491,o),
(219,410,c),
(226,377,o),
(236,317,o),
(193,303,c),
(101,282,o),
(110,384,o),
(106,444,c),
(95,509,o),
(75,573,o),
(58,635,c),
(19,739,o),
(143,750,o),
(166,654,c)
);
}
);
width = 276;
}
);
unicode = 39;
}
{
glyphname = parenleft;
layers = (
{
layerId = "8796DA50-D6B7-4313-95AF-F4283B991C1A";
shapes = (
{
closed = 1;
nodes = (
(678,-118,o),
(469,2,o),
(400,97,c),
(276,237,o),
(277,443,o),
(354,603,c),
(378,663,o),
(400,750,o),
(483,730,c),
(585,712,o),
(554,603,o),
(517,539,c),
(485,445,o),
(464,338,o),
(492,240,cs),
(546,52,o),
(750,148,o),
(756,20,c)
);
}
);
width = 806;
}
);
unicode = 40;
}
{
glyphname = parenright;
layers = (
{
layerId = "8796DA50-D6B7-4313-95AF-F4283B991C1A";
shapes = (
{
closed = 1;
nodes = (
(43,718,o),
(123,750,o),
(168,727,c),
(229,698,o),
(266,627,o),
(290,567,cs),
(360,394,o),
(362,134,o),
(209,5,c),
(146,-34,o),
(69,11,o),
(55,78,cs),
(39,153,o),
(100,221,o),
(119,292,c),
(177,422,o),
(81,540,o),
(51,660,c)
);
}
);
width = 636;
}
);
unicode = 41;
}
{
glyphname = asterisk;
rightMetricsKey = "=|";
layers = (
{
layerId = "6DC978D1-58EC-4728-9C90-896FC59D3452";
shapes = (
{
closed = 1;
nodes = (
(663,320,o),
(724,334,o),
(747,297,c),
(759,281,o),
(763,251,o),
(752,237,c),
(738,216,o),
(685,221,o),
(694,190,c),
(706,165,o),
(727,131,o),
(701,107,cs),
(667,77,o),
(621,108,o),
(595,135,c),
(516,239,o),
(490,139,o),
(431,85,c),
(395,57,o),
(330,83,o),
(328,129,c),
(330,159,o),
(369,173,o),
(370,203,c),
(360,237,o),
(275,255,o),
(308,311,c),
(323,330,o),
(358,335,o),
(349,364,c),
(331,442,o),
(418,431,o),
(457,390,c),
(505,345,o),
(529,375,o),
(551,423,c),
(576,472,o),
(659,442,o),
(662,393,c),
(664,376,o),
(650,359,o),
(650,344,c)
);
}
);
width = 1059;
}
);
unicode = (42,64258);
}
{
glyphname = plus;
rightMetricsKey = "=|";
layers = (
{
layerId = "6DC978D1-58EC-4728-9C90-896FC59D3452";
shapes = (
{
closed = 1;
nodes = (
(657,66,o),
(668,34,o),
(637,28,c),
(584,-3,o),
(532,56,o),
(539,109,c),
(543,128,o),
(540,158,o),
(516,153,c),
(448,153,o),
(348,87,o),
(309,171,c),
(274,237,o),
(361,238,o),
(404,245,c),
(443,248,o),
(477,261,o),
(516,263,c),
(529,272,o),
(522,300,o),
(522,313,cs),
(521,354,o),
(521,396,o),
(511,439,c),
(507,485,o),
(578,481,o),
(596,450,c),
(623,425,o),
(623,391,o),
(619,360,c),
(629,335,o),
(603,274,o),
(648,287,c),
(675,297,o),
(721,320,o),
(754,311,cs),
(765,308,o),
(778,305,o),
(783,285,cs),
(785,277,o),
(786,245,o),
(788,237,c),
(798,167,o),
(711,189,o),
(669,174,c),
(645,172,o),
(629,167,o),
(637,143,c),
(641,122,o),
(645,105,o),
(652,87,c)
);
}
);
width = 1089;
}
);
unicode = 43;
}
{
glyphname = comma;
layers = (
{
guides = (
{
position = "{0, 129}";
}
);
layerId = "8796DA50-D6B7-4313-95AF-F4283B991C1A";
shapes = (
{
closed = 1;
nodes = (
(84,50,o),
(146,79,o),
(173,124,c),
(197,150,o),
(197,205,o),
(237,213,c),
(358,199,o),
(291,124,o),
(244,58,c),
(203,9,o),
(137,-68,o),
(70,-29,c),
(59,-22,o),
(48,-7,o),
(51,7,c)
);
}
);
width = 606;
}
);
unicode = 44;
}
{
glyphname = hyphen;
rightMetricsKey = "=|";
layers = (
{
layerId = "8796DA50-D6B7-4313-95AF-F4283B991C1A";
shapes = (
{
closed = 1;
nodes = (
(587,325,o),
(621,292,o),
(627,254,c),
(631,231,o),
(633,207,o),
(613,194,c),
(596,176,o),
(574,191,o),
(555,189,c),
(522,190,o),
(489,192,o),
(456,188,c),
(418,186,o),
(317,144,o),
(329,192,c),
(309,211,o),
(293,252,o),
(305,282,c),
(326,309,o),
(365,288,o),
(392,292,c),
(435,293,o),
(470,299,o),
(511,299,c),
(526,299,o),
(542,300,o),
(556,309,c)
);
}
);
width = 930;
}
);
unicode = 45;
}
{
glyphname = period;
layers = (
{
layerId = "8796DA50-D6B7-4313-95AF-F4283B991C1A";
shapes = (
{
closed = 1;
nodes = (
(101,91,o),
(188,144,o),
(222,79,c),
(246,5,o),
(141,-77,o),
(79,-22,cs),
(53,1,o),
(36,24,o),
(67,52,c)
);
}
);
width = 526;
}
);
unicode = 46;
}
{
glyphname = slash;
rightMetricsKey = "=|";
layers = (
{
layerId = "6DC978D1-58EC-4728-9C90-896FC59D3452";
shapes = (
{
closed = 1;
nodes = (
(711.784,738.634,o),
(757.298,639.962,o),
(724.788,556.268,c),
(651.407,410.022,o),
(554.804,247.919,o),
(490.712,106.078,c),
(387.607,-138.839,o),
(225.983,-17.261,o),
(338.377,148.366,c),
(421.046,247.919,o),
(504.645,511.337,o),
(617.968,665.511,c)
);
}
);
width = 1036;
}
);
unicode = 47;
}
{
glyphname = zero;
rightMetricsKey = "=|";
layers = (
{
layerId = "8796DA50-D6B7-4313-95AF-F4283B991C1A";
shapes = (
{
closed = 1;
nodes = (
(783,181,o),
(756,520,o),
(575,538,c),
(459,514,o),
(410,369,o),
(450,267,c),
(468,233,o),
(510,215,o),
(536,186,c),
(567,159,o),
(584,114,o),
(628,114,c)
);
},
{
closed = 1;
nodes = (
(294,218,o),
(295,300,o),
(305,402,cs),
(329,660,o),
(674,788,o),
(808,535,c),
(1053,238,o),
(614,-279,o),
(382,152,c)
);
}
);
width = 1181;
}
);
unicode = 48;
}
{
glyphname = one;
rightMetricsKey = "=|";
layers = (
{
layerId = "8796DA50-D6B7-4313-95AF-F4283B991C1A";
shapes = (
{
closed = 1;
nodes = (
(315,368,o),
(320,469,o),
(302,559,c),
(281,700,o),
(463,700,o),
(479,526,c),
(487,386,o),
(523,205,o),
(513,60,cs),
(503,-77,o),
(346,-22,o),
(338,110,c),
(331,154,o),
(335,225,o),
(330,277,c)
);
}
);
width = 815;
}
);
unicode = 49;
}
{
glyphname = two;
rightMetricsKey = "=|";
layers = (
{
layerId = "8796DA50-D6B7-4313-95AF-F4283B991C1A";
shapes = (
{
closed = 1;
nodes = (
(723,19,o),
(314,-31,o),
(373,119,c),
(429,201,o),
(467,252,o),
(538,356,c),
(558,390,o),
(646,505,o),
(608,531,c),
(563,552,o),
(504,552,o),
(460,537,cs),
(426,526,o),
(398,500,o),
(363,494,c),
(263,502,o),
(297,575,o),
(366,604,cs),
(476,651,o),
(662,671,o),
(741,566,c),
(767,424,o),
(628,318,o),
(569,203,c),
(547,174,o),
(518,116,o),
(579,122,cs),
(626,126,o),
(741,135,o),
(788,140,c),
(817,145,o),
(842,166,o),
(872,170,c),
(907,177,o),
(941,157,o),
(926,122,c),
(905,62,o),
(864,25,o),
(799,24,c)
);
}
);
width = 1230;
}
);
unicode = 50;
}
{
glyphname = three;
rightMetricsKey = "=|";
layers = (
{
layerId = "8796DA50-D6B7-4313-95AF-F4283B991C1A";
shapes = (
{
closed = 1;
nodes = (
(525,506,o),
(454,509,o),
(436,510,c),
(385,509,o),
(300,507,o),
(301,568,c),
(300,691,o),
(808,609,o),
(693,464,c),
(675,412,o),
(556,376,o),
(591,321,c),
(647,248,o),
(826,78,o),
(677,15,cs),
(605,-15,o),
(532,-6,o),
(456,14,cs),
(400,28,o),
(308,73,o),
(347,141,c),
(393,178,o),
(448,124,o),
(492,110,c),
(551,88,o),
(602,118,o),
(555,179,c),
(518,229,o),
(473,266,o),
(422,289,c),
(372,301,o),
(337,362,o),
(373,408,c),
(395,438,o),
(528,449,o),
(535,491,c)
);
}
);
width = 1035;
}
);
unicode = 51;
}
{
glyphname = four;
rightMetricsKey = "=|";
layers = (
{
layerId = "6DC978D1-58EC-4728-9C90-896FC59D3452";
shapes = (
{
closed = 1;
nodes = (
(516,297,o),
(379,234,o),
(311,319,c),
(292,356,o),
(304,401,o),
(304,438,c),
(311,505,o),
(298,677,o),
(416,631,c),
(501,571,o),
(374,382,o),
(529,400,c),
(631,415,o),
(567,544,o),
(607,609,cs),
(625,639,o),
(668,652,o),
(697,634,cs),
(784,580,o),
(691,420,o),
(744,399,cs),
(762,392,o),
(787,393,o),
(800,375,c),
(843,288,o),
(760,307,o),
(750,263,c),
(740,200,o),
(754,119,o),
(722,63,c),
(695,23,o),
(623,24,o),
(609,75,cs),
(592,133,o),
(620,207,o),
(598,263,c)
);
}
);
width = 1113;
}
);
unicode = 52;
}
{
glyphname = five;
rightMetricsKey = "=|";
layers = (
{
layerId = "8796DA50-D6B7-4313-95AF-F4283B991C1A";
shapes = (
{
closed = 1;
nodes = (
(388,402,o),
(588,403,o),
(680,367,c),
(918,298,o),
(825,-23,o),
(610,-5,c),
(559,-9,o),
(436,50,o),
(498,100,c),
(562,113,o),
(660,70,o),
(681,157,cs),
(707,263,o),
(610,287,o),
(530,285,c),
(482,287,o),
(420,305,o),
(385,338,c),
(347,401,o),
(342,457,o),
(320,525,c),
(230,766,o),
(479,659,o),
(612,649,c),
(652,641,o),
(702,592,o),
(656,562,c),
(601,521,o),
(522,574,o),
(464,554,c)
);
}
);
width = 1121;
}
);
unicode = 53;
}
{
glyphname = six;
rightMetricsKey = "=|";
layers = (
{
layerId = "8796DA50-D6B7-4313-95AF-F4283B991C1A";
shapes = (
{
closed = 1;
nodes = (
(544,267,o),
(471,259,o),
(440,229,cs),
(418,208,o),
(422,167,o),
(436,150,cs),
(488,88,o),
(570,112,o),
(600,161,cs),
(607,173,o),
(604,196,o),
(602.137,204.696,cs),
(595,238,o),
(565,246,o),
(557.805,253.195,cs)
);
},
{
closed = 1;
nodes = (
(519,359,o),
(636,398,o),
(682,299,c),
(706,209,o),
(704,88,o),
(615,35,c),
(516,-61,o),
(393,1,o),
(345,115,c),
(279,246,o),
(292,417,o),
(343,555,cs),
(356,590,o),
(375,634,o),
(399,658,cs),
(439,700,o),
(536,681,o),
(522,612,c),
(501,550,o),
(447,507,o),
(440,436,cs),
(438,415,o),
(412,364,o),
(436,355,c)
);
}
);
width = 996;
}
);
unicode = 54;
}
{
glyphname = seven;
rightMetricsKey = "=|";
layers = (
{
layerId = "8796DA50-D6B7-4313-95AF-F4283B991C1A";
shapes = (
{
closed = 1;
nodes = (
(285,688,o),
(384,685,o),
(442,673,c),
(488,669,o),
(539,667,o),
(576,637,c),
(689,533,o),
(587,360,o),
(555,239,c),
(546,171,o),
(484,-46,o),
(392,59,c),
(369,101,o),
(403,155,o),
(414,199,c),
(447,276,o),
(467,344,o),
(484,424,c),
(538,599,o),
(351,506,o),
(302,606,c)
);
}
);
width = 928;
}
);
unicode = 55;
}
{
glyphname = eight;
rightMetricsKey = "=|";
layers = (
{
layerId = "8796DA50-D6B7-4313-95AF-F4283B991C1A";
shapes = (
{
closed = 1;
nodes = (
(460,217,o),
(425,179,o),
(447,152,c),
(465,136,o),
(532,98,o),
(540,139,c),
(537,166,o),
(503,263,o),
(471,243,c)
);
},
{
closed = 1;
nodes = (
(534,570,o),
(470,539,o),
(419,508,c),
(400,491,o),
(424,476,o),
(436,460,c),
(451,444,o),
(470,418,o),
(481,417,c),
(504,405,o),
(631,571,o),
(594,576,c)
);
},
{
closed = 1;
nodes = (
(590,265,o),
(647,200,o),
(639,134,c),
(623,75,o),
(566,22,o),
(503,26,cs),
(403,33,o),
(275,146,o),
(353,246,c),
(376,280,o),
(432,326,o),
(390,366,c),
(286,477,o),
(248,549,o),
(412,618,cs),
(487,649,o),
(746,750,o),
(755,619,c),
(744,574,o),
(714,530,o),
(688,490,cs),
(652,434,o),
(583,390,o),
(567,321,c)
);
}
);
width = 1055;
}
);
unicode = 56;
}
{
glyphname = nine;
rightMetricsKey = "=|";
layers = (
{
layerId = "6DC978D1-58EC-4728-9C90-896FC59D3452";
shapes = (
{
closed = 1;
nodes = (
(579,540,o),
(550,587,o),
(494,574,c),
(428,578,o),
(370,409,o),
(466,426,cs),
(500,432,o),
(592,447,o),
(586,492,cs)
);
},
{
closed = 1;
nodes = (
(510,363,o),
(393,267,o),
(327,351,c),
(281,443,o),
(289,599,o),
(396,638,c),
(460,658,o),
(541,664,o),
(605,647,c),
(836,531,o),
(749,-43,o),
(444,-7,c),
(360,-18,o),
(263,100,o),
(357,106,c),
(443,96,o),
(556,89,o),
(576,200,cs),
(584,245,o),
(614,308,o),
(592,353,c)
);
}
);
width = 1037;
}
);
unicode = 57;
}
{
glyphname = colon;
layers = (
{
layerId = "8796DA50-D6B7-4313-95AF-F4283B991C1A";
shapes = (
{
closed = 1;
nodes = (
(53,347,o),
(27,451,o),
(77,482,c),
(237,500,o),
(202,327,o),
(109,331,c)
);
},
{
closed = 1;
nodes = (
(63,61,o),
(120,128,o),
(160,124,c),
(199,117,o),
(233,75,o),
(230,35,c),
(229,-30,o),
(91,-26,o),
(73,22,c)
);
}
);
width = 531;
}
);
unicode = 58;
}
{
glyphname = semicolon;
layers = (
{
layerId = "6DC978D1-58EC-4728-9C90-896FC59D3452";
shapes = (
{
closed = 1;
nodes = (
(204,499,o),
(322,555,o),
(325,458,c),
(314,350,o),
(155,347,o),
(178,445,c)
);
},
{
closed = 1;
nodes = (
(221,252,o),
(302,228,o),
(300,191,c),
(272,98,o),
(209,-26,o),
(105,-45,c),
(3,-20,o),
(66,21,o),
(113,67,c),
(159,111,o),
(181,165,o),
(202,224,c)
);
}
);
width = 625;
}
);
unicode = 59;
}
{
glyphname = equal;
rightMetricsKey = "=|";
layers = (
{
layerId = "8796DA50-D6B7-4313-95AF-F4283B991C1A";
shapes = (
{
closed = 1;
nodes = (
(843,303,o),
(753,327,o),
(700,315,c),
(617,304,o),
(541,288,o),
(473,268,c),
(431,257,o),
(385,232,o),
(343,252,cs),
(296,274,o),
(282,336,o),
(331,364,c),
(431,405,o),
(571,416,o),
(648,436,cs),
(719,455,o),
(860,493,o),
(856,376,c)
);
},
{
closed = 1;
nodes = (
(890,100,o),
(782,64,o),
(709,62,cs),
(613,59,o),
(492,2,o),
(393,30,c),
(353,48,o),
(339,119,o),
(374,146,c),
(412,170,o),
(462,153,o),
(504,161,c),
(583,159,o),
(837,275,o),
(869,189,c)
);
}
);
width = 1172;
}
);
unicode = 61;
}
{
glyphname = greater;
rightMetricsKey = "=|";
layers = (
{
layerId = "8796DA50-D6B7-4313-95AF-F4283B991C1A";
shapes = (
{
closed = 1;
nodes = (
(587,289,o),
(583,271,o),
(576,257,c),
(561,238,o),
(535,229,o),
(519,210,c),
(506,198,o),
(492,186,o),
(482,172,c),
(474,150,o),
(460,130,o),
(439,119,c),
(394,83,o),
(349,110,o),
(334,161,c),
(321,202,o),
(345,218,o),
(378,235,c),
(399,239,o),
(422,253,o),
(428,274,c),
(429,291,o),
(397,297,o),
(385,305,c),
(352,314,o),
(320,333,o),
(308,367,c),
(287,409,o),
(312,444,o),
(358,432,c),
(408,402,o),
(455,358,o),
(516,349,c),
(543,346,o),
(560,320,o),
(576,301,cs)
);
}
);
width = 883;
}
);
unicode = 62;
}
{
glyphname = question;
layers = (
{
layerId = "8796DA50-D6B7-4313-95AF-F4283B991C1A";
shapes = (
{
closed = 1;
nodes = (
(371,598,o),
(258,622,o),
(196,593,cs),
(160,576,o),
(127,531,o),
(87,544,c),
(-2,582,o),
(92,683,o),
(150,701,c),
(277,750,o),
(499,655,o),
(412,499,c),
(389,464,o),
(344,435,o),
(322,399,c),
(283,345,o),
(266,277,o),
(226,226,c),
(171,174,o),
(109,253,o),
(123,310,cs),
(131,346,o),
(168,372,o),
(188,405,cs),
(215,449,o),
(246,491,o),
(284,524,cs)
);
},
{
closed = 1;
nodes = (
(375,-36,o),
(237,-74,o),
(208,35,c),
(191,107,o),
(278,117,o),
(315,71,c)
);
}
);
width = 732;
}
);
unicode = 63;
}
{
glyphname = at;
rightMetricsKey = "=|";
layers = (
{
layerId = "6DC978D1-58EC-4728-9C90-896FC59D3452";
shapes = (
{
closed = 1;
nodes = (
(778,383,o),
(783,358,o),
(775,344,cs),
(764,324,o),
(783,304,o),
(798,327,c),
(815,341,o),
(810,418,o),
(782,395,c)
);
},
{
closed = 1;
nodes = (
(630,444,o),
(552,336,o),
(546,304,c),
(545,249,o),
(628,301,o),
(640,324,c),
(656,348,o),
(665,384,o),
(665,412,c)
);
},
{
closed = 1;
nodes = (
(782,194,o),
(766,193,o),
(754,197,c),
(712,216,o),
(679,213,o),
(642,186,c),
(554,135,o),
(436,212,o),
(438,311,c),
(449,411,o),
(561,543,o),
(671,501,c),
(697,487,o),
(717,478,o),
(746,470,c),
(826,439,o),
(752,566,o),
(731,586,cs),
(687,626,o),
(610,592,o),
(561,578,c),
(498,557,o),
(449,457,o),
(426,399,c),
(394,285,o),
(428,71,o),
(581,81,c),
(610,79,o),
(802,150,o),
(790,185,c)
);
},
{
closed = 1;
nodes = (
(942,197,o),
(949,181,o),
(889,118,c),
(828,38,o),
(727,4,o),
(634,-17,c),
(403,-88,o),
(305,174,o),
(301,359,cs),
(300,438,o),
(354,502,o),
(392,568,cs),
(430,634,o),
(473,665,o),
(549,672,c),
(621,700,o),
(706,701,o),
(775,667,cs),
(848,631,o),
(855,545,o),
(881,478,c),
(909,411,o),
(923,333,o),
(902,263,c)
);
}
);
width = 1234;
}
);
unicode = 64;
}
{
glyphname = A;
rightMetricsKey = "=|";
layers = (
{
layerId = "6DC978D1-58EC-4728-9C90-896FC59D3452";
shapes = (
{
closed = 1;
nodes = (
(503,220,o),
(552,237,o),
(582,238,c),
(662,232,o),
(603,316,o),
(585,352,c),
(514,533,o),
(477,299,o),
(479,230,c)
);
},
{
closed = 1;
nodes = (
(712,96,o),
(709,122,o),
(692,128,cs),
(646,146,o),
(592,124,o),
(540,114,cs),
(515,109,o),
(455,100,o),
(436,78,cs),
(416,54,o),
(436,-5,o),
(398,-12,c),
(249,-63,o),
(309,127,o),
(333,205,c),
(363,326,o),
(359,467,o),
(421,581,cs),
(563,845,o),
(726,361,o),
(796,240,c),
(818,191,o),
(851,138,o),
(828,83,cs),
(812,44,o),
(746,35,o),
(722,78,cs)
);
}
);
width = 1136;
}
);
unicode = 65;
}
{
glyphname = B;
rightMetricsKey = "=|";
layers = (
{
layerId = "6DC978D1-58EC-4728-9C90-896FC59D3452";
shapes = (
{
closed = 1;
nodes = (
(674,219,o),
(610,275,o),
(581,304,c),
(554,327,o),
(488,404,o),
(464,378,c),
(454,355,o),
(468,323,o),
(469,299,c),
(482,253,o),
(459,178,o),
(511,154,c),
(548,148,o),
(641,149,o),
(661,183,c)
);
},
{
closed = 1;
nodes = (
(451,477,o),
(505,511,o),
(540,516,c),
(557,520,o),
(580,545,o),
(585,563,c),
(553,585,o),
(510,558,o),
(475,549,cs),
(456,544,o),
(419,538,o),
(429,512,c)
);
},
{
closed = 1;
nodes = (
(460,-27,o),
(415,-15,o),
(366,23,c),
(339,133,o),
(359,253,o),
(323,364,c),
(321,413,o),
(300,460,o),
(300,506,c),
(310,527,o),
(347,525,o),
(348,555,c),
(338,614,o),
(366,626,o),
(415,641,c),
(507,682,o),
(627,700,o),
(709,630,c),
(789,520,o),
(574,446,o),
(652,394,c),
(796,286,o),
(919,81,o),
(654,52,c),
(605,43,o),
(540,64,o),
(495,32,c)
);
}
);
width = 1110;
}
);
unicode = 66;
}
{
glyphname = C;
rightMetricsKey = "=|";
layers = (
{
layerId = "8796DA50-D6B7-4313-95AF-F4283B991C1A";
shapes = (
{
closed = 1;
nodes = (
(857,573,o),
(838,500,o),
(771,483,c),
(649,447,o),
(509,317,o),
(475.397,219.857,cs),
(399,-1,o),
(976,247,o),
(938.51,107.601,cs),
(905,-17,o),
(486,-59,o),
(343,57,cs),
(156,209,o),
(637,718,o),
(817,599,cs)
);
}
);
width = 1241;
}
);
unicode = 67;
}
{
glyphname = D;
rightMetricsKey = "=|";
layers = (
{
layerId = "6DC978D1-58EC-4728-9C90-896FC59D3452";
shapes = (
{
closed = 1;
nodes = (
(478,508,o),
(481,491,o),
(483,468,cs),
(491,368,o),
(499,267,o),
(497,168,c),
(504,118,o),
(544,175,o),
(572,164,c),
(636,125,o),
(725,135,o),
(714,227,c),
(691,338,o),
(594,472,o),
(488,510,c)
);
},
{
closed = 1;
nodes = (
(503,39,o),
(493,12,o),
(472,4,c),
(436,-20,o),
(381,4,o),
(371,45,c),
(367,111,o),
(372,177,o),
(364,244,c),
(355,347,o),
(360,456,o),
(340,556,c),
(288,614,o),
(281,640,o),
(360,677,c),
(614,750,o),
(1069,223,o),
(766,46,c),
(687,-7,o),
(594,-13,o),
(520,49,c)
);
}
);
width = 1167;
}
);
unicode = 68;
}
{
glyphname = E;
rightMetricsKey = "=|";
layers = (
{
layerId = "8796DA50-D6B7-4313-95AF-F4283B991C1A";
shapes = (
{
closed = 1;
nodes = (
(669,158,o),
(683,156,o),
(713,153,c),
(722,153,o),
(728,153,o),
(737,151,cs),
(746,150,o),
(756,145,o),
(774,136,c),
(830,68,o),
(690,58,o),
(647,60,c),
(557,46,o),
(502,121,o),
(439,34,c),
(403,-3,o),
(346,39,o),
(340,79,c),
(333,162,o),
(357,248,o),
(343,330,c),
(349,428,o),
(249,551,o),
(337,629,c),
(423,668,o),
(516,649,o),
(612,652,c),
(658,652,o),
(692,628,o),
(675,578,c),
(654,522,o),
(508,566,o),
(460,548,c),
(433,538,o),
(435,485,o),
(455,466,cs),
(508,417,o),
(730,501,o),
(751,420,c),
(772,312,o),
(584,329,o),
(555,326,cs),
(528,323,o),
(477,329,o),
(465,300,cs),
(456,279,o),
(459,252,o),
(459,243,c),
(466,208,o),
(466,206,o),
(483,192,cs),
(501,177,o),
(639,159,o),
(659,159,c)
);
}
);
width = 1088;
}
);
unicode = 69;
}
{
glyphname = F;
rightMetricsKey = "=|";
layers = (
{
layerId = "8796DA50-D6B7-4313-95AF-F4283B991C1A";
shapes = (
{
closed = 1;
nodes = (
(511,75,o),
(527,27,o),
(488,7,c),
(454,-15,o),
(401,15,o),
(393,54,cs),
(383,106,o),
(388,164,o),
(378,218,c),
(373,304,o),
(357,392,o),
(331,475,c),
(317,529,o),
(259,620,o),
(353,631,c),
(444,630,o),
(554,657,o),
(658,644,c),
(714,625,o),
(711,579,o),
(663,549,c),
(640,531,o),
(621,530,o),
(595,544,cs),
(569,559,o),
(534,550,o),
(503,549,c),
(483,545,o),
(447,554,o),
(440,528,c),
(439,471,o),
(474,421,o),
(477,364,c),
(482,318,o),
(504,324,o),
(540,339,c),
(606,353,o),
(697,392,o),
(756,351,c),
(803,299,o),
(713,282,o),
(675,276,c),
(622,258,o),
(563,252,o),
(514,217,c),
(490,190,o),
(512,140,o),
(511,109,c)
);
}
);
width = 1070;
}
);
unicode = 70;
}
{
glyphname = G;
rightMetricsKey = "=|";
layers = (
{
layerId = "8796DA50-D6B7-4313-95AF-F4283B991C1A";
shapes = (
{
closed = 1;
nodes = (
(763,406,l),
(768,406,ls),
(815,406,o),
(837,373,o),
(837,328,cs),
(837,322,o),
(837,319,o),
(836,315,c),
(836,307,ls),
(836,175,o),
(706,-8,o),
(554,-8,cs),
(451,-8,o),
(336,77,o),
(310,183,cs),
(304,207,o),
(300,242,o),
(300,276,cs),
(300,465,o),
(418,659,o),
(614,696,c),
(673,696,o),
(700,675,o),
(700,648,cs),
(700,617,o),
(665,579,o),
(609,558,cs),
(496,517,o),
(424,390,o),
(424,278,cs),
(424,246,o),
(428,215,o),
(436,187,c),
(457,144,o),
(509,112,o),
(548,112,cs),
(605,112,o),
(691,139,o),
(711,221,cs),
(716,239,o),
(719,273,o),
(719,283,cs),
(719,301,o),
(689,296,o),
(673,296,cs),
(659,296,o),
(639,291,o),
(620,286,cs),
(603,282,o),
(585,278,o),
(571,278,cs),
(551,278,o),
(538,286,o),
(538,312,cs),
(538,393,o),
(669,399,o),
(739,404,cs)
);
}
);
width = 1137;
}
);
unicode = 71;
}
{
glyphname = H;
rightMetricsKey = "=|";
layers = (
{
layerId = "8796DA50-D6B7-4313-95AF-F4283B991C1A";
shapes = (
{
closed = 1;
nodes = (
(453,183,o),
(511,88,o),
(456,17,cs),
(436,-8,o),
(387,-25,o),
(370,11,c),
(350,147,o),
(364,297,o),
(316,426,cs),
(295,483,o),
(282,551,o),
(362,552,c),
(463,547,o),
(404,340,o),
(482.436,365.918,cs),
(519,378,o),
(606,366,o),
(624,363,cs),
(642,360,o),
(665,364,o),
(656,391,c),
(648,435,o),
(607,542,o),
(612,598,cs),
(617,650,o),
(712,673,o),
(724,606,c),
(757,475,o),
(796,347,o),
(819,211,c),
(839,109,o),
(844,-1,o),
(744.599,34.295,cs),
(706,48,o),
(690,70,o),
(699,91,c),
(740,238,o),
(683,268,o),
(624,271,cs),
(580,274,o),
(501,292,o),
(471,261,c)
);
}
);
width = 1131;
}
);
unicode = 72;
}
{
glyphname = I;
rightMetricsKey = "=|";
layers = (
{
layerId = "6DC978D1-58EC-4728-9C90-896FC59D3452";
shapes = (
{
closed = 1;
nodes = (
(460,609,o),
(473,515,o),
(383,480,c),
(291,474,o),
(258,607,o),
(378,613,c)
);
},
{
closed = 1;
nodes = (
(336,7,o),
(365,211,o),
(337,290,c),
(331,321,o),
(314,352,o),
(326,381,cs),
(343,420,o),
(401,431,o),
(430,400,c),
(482,331,o),
(477,239,o),
(490,156,c),
(498,94,o),
(522,-14,o),
(431,-14,c)
);
}
);
width = 799;
}
);
unicode = 73;
}
{
glyphname = J;
rightMetricsKey = "=|";
layers = (
{
layerId = "8796DA50-D6B7-4313-95AF-F4283B991C1A";
shapes = (
{
closed = 1;
nodes = (
(696,540,o),
(733,441,o),
(746.577,376.934,cs),
(765,290,o),
(755,198,o),
(752.744,179.543,cs),
(722,-72,o),
(496,-30,o),
(424,65,c),
(411,91,o),
(413,131,o),
(438,151,c),
(482,190,o),
(561,101,o),
(607,122,c),
(672,191,o),
(627,397,o),
(607,481,cs),
(594,537,o),
(592,576,o),
(568,589,cs),
(511,620,o),
(413,550,o),
(350,556,c),
(313,569,o),
(281,618,o),
(315,649,c),
(387,694,o),
(852,750,o),
(886,644,cs),
(897,611,o),
(869,571,o),
(829,563,c),
(800,555,o),
(738,607,o),
(715,581,c)
);
}
);
width = 1189;
}
);
unicode = 74;
}
{
glyphname = K;
rightMetricsKey = "=|";
layers = (
{
layerId = "6DC978D1-58EC-4728-9C90-896FC59D3452";
shapes = (
{
closed = 1;
nodes = (
(621,337,o),
(714,297,o),
(781,176,c),
(797,141,o),
(831,90,o),
(831,45,c),
(823,-17,o),
(747,-25,o),
(712,19,cs),
(673,69,o),
(673,159,o),
(615,208,cs),
(573,243,o),
(449,407,o),
(431,297,c),
(428,254,o),
(433,208,o),
(434,169,cs),
(437,5,o),
(312,51,o),
(313,208,c),
(312,304,o),
(314,357,o),
(312,440,c),
(314,504,o),
(276,642,o),
(326,668,c),
(475,750,o),
(381,437,o),
(470,449,c),
(547,437,o),
(615,479,o),
(647,517,c),
(792,694,o),
(857,484,o),
(714,407,c),
(688,387,o),
(635,390,o),
(621,359,c)
);
}
);
width = 1131;
}
);
unicode = 75;
}
{
glyphname = L;
rightMetricsKey = "=|";
layers = (
{
layerId = "6DC978D1-58EC-4728-9C90-896FC59D3452";
shapes = (
{
closed = 1;
nodes = (
(899,184,o),
(858,124,o),
(811,99,cs),
(764,74,o),
(726,42,o),
(674,24,cs),
(581,-8,o),
(289,-83,o),
(301,83,c),
(322,203,o),
(334,323,o),
(343,446,c),
(344,543,o),
(326,700,o),
(475,637,c),
(551,537,o),
(474,293,o),
(471,171,c),
(455,4,o),
(743,223,o),
(824,203,cs)
);
}
);
width = 1166;
}
);
unicode = 76;
}
{
glyphname = M;
rightMetricsKey = "=|";
layers = (
{
layerId = "8796DA50-D6B7-4313-95AF-F4283B991C1A";
shapes = (
{
closed = 1;
nodes = (
(609,121,o),
(508,514,o),
(480,259,cs),
(473,190,o),
(466,81,o),
(436,19,c),
(394,-30,o),
(290,-13,o),
(301,65,cs),
(318,188,o),
(340,309,o),
(370,432,c),
(439,614,o),
(526,621,o),
(624,456,cs),
(664,389,o),
(671,393,o),
(698,464,c),
(732,560,o),
(813,700,o),
(899,560,c),
(972,463,o),
(972,351,o),
(992,238,c),
(1018,147,o),
(1002,13,o),
(881,65,cs),
(824,90,o),
(855,354,o),
(814,393,c)
);
}
);
width = 1303;
}
);
unicode = 77;
}
{
glyphname = N;
rightMetricsKey = "=|";
layers = (
{
layerId = "8796DA50-D6B7-4313-95AF-F4283B991C1A";
shapes = (
{
closed = 1;
nodes = (
(938,252,o),
(942,368,o),
(932,459,cs),
(924,536,o),
(895,586,o),
(907,631,cs),
(920,681,o),
(980,700,o),
(1023,667,c),
(1140,527,o),
(1078,328,o),
(1065,151,c),
(1069,-204,o),
(720,135,o),
(608,230,cs),
(583,251,o),
(560,272,o),
(529,309,c),
(423,421,o),
(500,70,o),
(450,33,c),
(213,-121,o),
(325,330,o),
(344,438,c),
(352,542,o),
(412,594,o),
(483,557,c),
(581,480,o),
(794,188,o),
(911,188,c)
);
}
);
width = 1394;
}
);
unicode = 78;
}
{
glyphname = O;
rightMetricsKey = "=|";
layers = (
{
layerId = "6DC978D1-58EC-4728-9C90-896FC59D3452";
shapes = (
{
closed = 1;
nodes = (
(412.546,415.891,o),
(416.738,-4.142,o),
(661.548,202.94,c),
(861.085,358.043,o),
(772.215,651.479,o),
(519.022,529.912,c)
);
},
{
closed = 1;
nodes = (
(669.093,665.732,o),
(793.175,645.61,o),
(868.63,534.104,c),
(909.711,434.336,o),
(917.257,296.002,o),
(836.771,215.516,cs),
(722.75,101.495,o),
(569.325,-19.233,o),
(416.738,78.859,c),
(236.484,184.496,o),
(299.363,409.184,o),
(378.172,549.195,cs),
(416.738,617.105,o),
(481.294,645.61,o),
(543.335,652.317,cs)
);
}
);
width = 1199;
}
);
unicode = 79;
}
{
glyphname = P;
rightMetricsKey = "=|";
layers = (
{
layerId = "6DC978D1-58EC-4728-9C90-896FC59D3452";
shapes = (
{
closed = 1;
nodes = (
(478,311,o),
(515,350,o),
(538,358,c),
(602,390,o),
(645,428,o),
(586,492,cs),
(469,618,o),
(399,423,o),
(460,329,c)
);
},
{
closed = 1;
nodes = (
(467,173,o),
(550,-108,o),
(389,7,c),
(323,118,o),
(346,260,o),
(310,379,c),
(265,490,o),
(388,639,o),
(478,687,c),
(567,700,o),
(644,613,o),
(710,560,c),
(805,447,o),
(720,303,o),
(592,263,c),
(554,242,o),
(497,260,o),
(462,240,c)
);
}
);
width = 1051;
}
);
unicode = 80;
}
{
glyphname = Q;
rightMetricsKey = "=|";
layers = (
{
layerId = "8796DA50-D6B7-4313-95AF-F4283B991C1A";
shapes = (
{
closed = 1;
nodes = (
(663,287,o),
(674,287,o),
(679,296,cs),
(835,557,o),
(571,744,o),
(415,423,cs),
(370,329,o),
(549,178,o),
(534,279,c),
(509,349,o),
(539,503,o),
(614,433,c),
(639,406,o),
(641,334,o),
(658,296,c)
);
},
{
closed = 1;
nodes = (
(545,170,o),
(437,135,o),
(380,185,c),
(15,600,o),
(1049,1067,o),
(770,195,c),
(746,138,o),
(679,165,o),
(693,85,c),
(706,36,o),
(663,-24,o),
(611,3,c),
(584,21,o),
(586,61,o),
(571,85,c)
);
}
);
width = 1119;
}
);
unicode = 81;
}
{
glyphname = R;
rightMetricsKey = "=|";
layers = (
{
layerId = "8796DA50-D6B7-4313-95AF-F4283B991C1A";
shapes = (
{
closed = 1;
nodes = (
(411,522,o),
(440,389,o),
(474,372,cs),
(532,343,o),
(628,387,o),
(624,460,c),
(618,538,o),
(483,595,o),
(429,551,c)
);
},
{
closed = 1;
nodes = (
(677,241,o),
(943,178,o),
(804,68,c),
(750,41,o),
(489,291,o),
(487,174,c),
(477,122,o),
(522,-25,o),
(434,-4,c),
(327,50,o),
(353,299,o),
(330,409,c),
(232,573,o),
(399,750,o),
(568,661,c),
(663,619,o),
(781,550,o),
(743,426,c),
(732,374,o),
(672,345,o),
(654,301,c)
);
}
);
width = 1145;
}
);
unicode = 82;
}
{
glyphname = S;
rightMetricsKey = "=|";
layers = (
{
layerId = "8796DA50-D6B7-4313-95AF-F4283B991C1A";
shapes = (
{
closed = 1;
nodes = (
(384,110,o),
(429,130,o),
(458,130,cs),
(468,130,o),
(473,130,o),
(482,127,c),
(504,121,o),
(527,107,o),
(551,107,cs),
(602,107,o),
(641,154,o),
(641,203,cs),
(641,227,o),
(631,250,o),
(607,265,c),
(576,278,o),
(536,282,o),
(494,286,cs),
(432,292,o),
(366,298,o),
(328,345,c),
(308,380,o),
(300,415,o),
(300,449,cs),
(300,581,o),
(422,698,o),
(543,698,cs),
(603,698,o),
(662,669,o),
(706,600,c),
(711,588,o),
(714,575,o),
(714,561,cs),
(714,520,o),
(687,488,o),
(648,488,cs),
(622,488,o),
(609,502,o),
(590,527,cs),
(577,544,o),
(562,565,o),
(529,565,cs),
(481,565,o),
(444,518,o),
(444,474,cs),
(444,414,o),
(512,406,o),
(583,398,cs),
(648,390,o),
(716,382,o),
(740,336,c),
(774,304,o),
(788,266,o),
(788,228,cs),
(788,106,o),
(640,-26,o),
(525,-26,cs),
(472,-26,o),
(402,7,o),
(389,79,cs)
);
}
);
width = 1088;
}
);
unicode = 83;
}
{
glyphname = T;
rightMetricsKey = "=|";
layers = (
{
layerId = "8796DA50-D6B7-4313-95AF-F4283B991C1A";
shapes = (
{
closed = 1;
nodes = (
(995,485,o),
(928,459,o),
(879,461,cs),
(865,462,o),
(832,475,o),
(817,479,cs),
(782,490,o),
(736,489,o),
(722.997,479.654,cs),
(704,466,o),
(706,399,o),
(712,330,cs),
(720,245,ls),
(724,195,o),
(726,83,o),
(729,35,cs),
(734,-58,o),
(601,-70,o),
(592,21,c),
(592,137,o),
(580,325,o),
(574,440,cs),
(571,487,o),
(569,498,o),
(516,498,cs),
(471,498,ls),
(416,498,o),
(360,498,o),
(318,528,c),
(291,559,o),
(298,598,o),
(323,619,cs),
(341,635,o),
(355,635,o),
(377,638,c),
(438,651,o),
(654,637,o),
(784,622,cs),
(835,616,ls),
(890,610,o),
(986,610,o),
(995,543,c)
);
}
);
width = 1295;
}
);
unicode = 84;
}
{
glyphname = U;
rightMetricsKey = "=|";
layers = (
{
layerId = "8796DA50-D6B7-4313-95AF-F4283B991C1A";
shapes = (
{
closed = 1;
nodes = (
(632,168,o),
(668,280,o),
(668,354,cs),
(668,376,o),
(664,394,o),
(658,406,c),
(645,453,l),
(645,456,l),
(639,473,ls),
(632,492,o),
(629,510,o),
(629,527,cs),
(629,569,o),
(655,608,o),
(696,608,cs),
(787,608,o),
(812,420,o),
(812,361,cs),
(812,205,o),
(740,35,o),
(562,35,cs),
(423,35,o),
(339,184,o),
(321,307,cs),
(312,366,o),
(300,495,o),
(300,577,cs),
(300,619,o),
(336,637,o),
(372,637,cs),
(390,637,o),
(407,632,o),
(419,623,c),
(443,580,o),
(444,523,o),
(444,469,cs),
(444,459,ls),
(444,395,o),
(444,337,o),
(464,290,cs),
(484,243,o),
(524,144,o),
(587,153,c)
);
}
);
width = 1112;
}
);
unicode = 85;
}
{
glyphname = V;
rightMetricsKey = "=|";
layers = (
{
layerId = "6DC978D1-58EC-4728-9C90-896FC59D3452";
shapes = (
{
closed = 1;
nodes = (
(325,628,o),
(354,636,o),
(382,636,cs),
(426,636,o),
(469,615,o),
(477,568,c),
(504,507,ls),
(578,339,o),
(621,247,o),
(652,247,cs),
(684,247,o),
(692,290,o),
(704,329,cs),
(721,387,o),
(748,513,o),
(748,557,cs),
(748,614,o),
(814,648,o),
(872,648,cs),
(919,648,o),
(976,624,o),
(960,580,cs),
(922,477,o),
(873,380,o),
(839,276,cs),
(762,44,ls),
(751,12,o),
(710,15,o),
(686,15,cs),
(593,15,o),
(514,158,o),
(467,243,cs),
(407,351,l),
(395,380,o),
(379,406,o),
(363,433,c),
(363,433,o),
(363,434,o),
(362,435,c),
(360,438,o),
(359,440,o),
(359,440,c),
(358,442,o),
(357,444,o),
(356,444,c),
(355,446,l),
(354,447,o),
(354,449,o),
(353,451,cs),
(329,490,o),
(300,539,o),
(300,581,cs),
(300,591,o),
(302,601,o),
(306,610,c)
);
}
);
width = 1263;
}
);
unicode = 86;
}
{
glyphname = W;
rightMetricsKey = "=|";
layers = (
{
layerId = "8796DA50-D6B7-4313-95AF-F4283B991C1A";
shapes = (
{
closed = 1;
nodes = (
(560,359,o),
(578,403,o),
(597,452,cs),
(607,480,o),
(621,516,o),
(645,548,c),
(664,581,o),
(705,607,o),
(742,607,cs),
(764,607,o),
(785,598,o),
(800,576,cs),
(841,515,l),
(863,472,o),
(956,328,o),
(1015,328,cs),
(1073,328,o),
(1119,469,o),
(1119,520,cs),
(1119,538,o),
(1114,550,o),
(1103,563,cs),
(1081,587,o),
(1076,596,o),
(1076,610,cs),
(1076,621,l),
(1089,655,o),
(1123,670,o),
(1159,670,cs),
(1207,670,o),
(1257,643,o),
(1263,594,c),
(1267,578,o),
(1268,560,o),
(1268,545,cs),
(1268,385,o),
(1153,143,o),
(1001,143,c),
(932,157,o),
(887,214,o),
(843,270,cs),
(792,334,o),
(765,361,o),
(732,377,c),
(710,361,o),
(696,338,o),
(675,275,cs),
(668,253,o),
(658,225,o),
(642,203,cs),
(630,187,o),
(621,167,o),
(607,130,cs),
(569,25,o),
(543,-9,o),
(504,-9,cs),
(489,-9,o),
(471,-3,o),
(451,9,c),
(427,28,o),
(409,52,o),
(404,82,cs),
(396,126,o),
(381,186,o),
(365,249,cs),
(359,272,ls),
(330,382,o),
(300,498,o),
(300,547,cs),
(300,603,o),
(340,632,o),
(387,632,cs),
(418,632,o),
(448,619,o),
(463,592,c),
(474,568,o),
(477,538,o),
(479,512,c),
(479,505,l),
(479,505,o),
(479,504,o),
(480,502,c),
(480,495,ls),
(480,494,o),
(480,493,o),
(481,491,c),
(481,488,l),
(486,449,ls),
(497,372,o),
(506,344,o),
(526,328,c)
);
}
);
width = 1568;
}
);
unicode = 87;
}
{
glyphname = X;
rightMetricsKey = "=|";
layers = (
{
layerId = "8796DA50-D6B7-4313-95AF-F4283B991C1A";
shapes = (
{
closed = 1;
nodes = (
(489,195,o),
(468,-108,o),
(343,30,c),
(318,103,o),
(384,178,o),
(419,237,c),
(540,342,o),
(390,438,o),
(318,516,c),
(282,552,o),
(303,624,o),
(356,626,c),
(439,632,o),
(530,410,o),
(589,482,c),
(633,541,o),
(728,700,o),
(807,609,c),
(823,584,o),
(815,554,o),
(798,533,cs),
(669,374,o),
(601,330,o),
(813,211,c),
(857,178,o),
(897,137,o),
(919,89,c),
(957,25,o),
(874,-15,o),
(824,23,c),
(749,87,o),
(678,167,o),
(585,209,c)
);
}
);
width = 1229;
}
);
unicode = 88;
}
{
glyphname = Y;
rightMetricsKey = "=|";
layers = (
{
layerId = "8796DA50-D6B7-4313-95AF-F4283B991C1A";
shapes = (
{
closed = 1;
nodes = (
(984,518,o),
(845,463,o),
(779,365,c),
(726,279,o),
(870,14,o),
(743,-1,cs),
(670,-9,o),
(643,26,o),
(648,94,c),
(658,438,o),
(458,302,o),
(305,514,c),
(282,574,o),
(352,601,o),
(400,584,cs),
(453,566,o),
(489,514,o),
(539,491,c),
(582,473,o),
(632,425,o),
(678,452,c),
(774,501,o),
(834,597,o),
(902,675,c),
(941,700,o),
(1014,687,o),
(1019,635,c)
);
}
);
width = 1319;
}
);
unicode = 89;
}
{
glyphname = Z;
rightMetricsKey = "=|";
layers = (
{
layerId = "C3EBCE8B-B211-40B2-A21A-0AE84F5D58E8";
name = Regular;
shapes = (
{
closed = 1;
nodes = (
(532,136,o),
(567,127,o),
(607,127,cs),
(637,127,o),
(670,132,o),
(702,138,cs),
(718,141,l),
(743,145,o),
(768,149,o),
(790,149,cs),
(800,149,o),
(809,148,o),
(818,146,c),
(845,127,o),
(856,109,o),
(856,93,cs),
(856,32,o),
(692,-6,o),
(583,-6,cs),
(544,-6,o),
(513,-1,o),
(497,9,c),
(427,33,o),
(300,91,o),
(300,158,cs),
(300,182,o),
(315,206,o),
(355,232,c),
(366,244,o),
(397,266,o),
(435,292,cs),
(522,352,o),
(645,437,o),
(645,488,cs),
(645,524,o),
(583,530,o),
(555,530,cs),
(538,530,o),
(520,528,o),
(510,526,cs),
(503,525,o),
(500,525,o),
(500,525,c),
(496,525,o),
(494,525,o),
(488,524,cs),
(477,522,o),
(463,521,o),
(452,521,cs),
(410,521,o),
(373,535,o),
(373,581,cs),
(373,627,o),
(412,680,o),
(460,680,c),
(479,681,l),
(487,682,o),
(496,683,o),
(512,683,cs),
(639,683,o),
(794,625,o),
(794,500,cs),
(794,471,o),
(786,438,o),
(766,401,c),
(744,370,o),
(698,338,o),
(663,314,cs),
(651,306,l),
(651,306,o),
(650,306,o),
(649,305,c),
(550,236,o),
(513,200,o),
(507,166,c)
);
}
);
width = 1156;
}
);
unicode = 90;
}
{
glyphname = bracketleft;
layers = (
{
layerId = "8796DA50-D6B7-4313-95AF-F4283B991C1A";
shapes = (
{
closed = 1;
nodes = (
(354,276,o),
(325,410,o),
(323,544,cs),
(322,581,o),
(295,616,o),
(302,653,c),
(337,728,o),
(412,694,o),
(471,679,c),
(520,685,o),
(581,648,o),
(552,593,cs),
(529,549,o),
(448,603,o),
(442,546,c),
(437,460,o),
(458,377,o),
(466,292,c),
(472,253,o),
(458,138,o),
(516,143,c),
(601,183,o),
(697,22,o),
(583,3,c),
(552,-1,o),
(521,5,o),
(489,13,c),
(460,12,o),
(433,-7,o),
(403,3,c),
(334,18,o),
(283,78,o),
(333,143,c)
);
}
);
width = 686;
}
);
unicode = 91;
}
{
glyphname = backslash;
rightMetricsKey = "=|";
layers = (
{
layerId = "8796DA50-D6B7-4313-95AF-F4283B991C1A";
shapes = (
{
closed = 1;
nodes = (
(284.955,669.799,o),
(379.604,710.183,o),
(440.179,638.25,c),
(537.352,500.694,o),
(639.572,331.588,o),
(740.531,196.556,c),
(915.946,-24.291,o),
(739.269,-118.939,o),
(642.305,72.801,cs),
(571.425,212.962,o),
(348.054,417.403,o),
(302.623,601.652,c)
);
}
);
width = 1116;
}
);
unicode = 92;
}
{
glyphname = bracketright;
layers = (
{
layerId = "6DC978D1-58EC-4728-9C90-896FC59D3452";
shapes = (
{
closed = 1;
nodes = (
(184,134,o),
(183,158,o),
(186,209,c),
(199,316,o),
(199,421,o),
(205,531,c),
(202,577,o),
(152,554,o),
(113,612,c),
(84,639,o),
(81,690,o),
(129,696,c),
(174,698,o),
(217,690,o),
(262,700,c),
(332,697,o),
(380,614,o),
(333,556,c),
(315,487,o),
(328,412,o),
(321,341,c),
(318,278,o),
(315,214,o),
(311,151,c),
(301,110,o),
(327,65,o),
(303,27,c),
(278,-3,o),
(232,10,o),
(198,12,cs),
(173,13,o),
(149,-6,o),
(123,2,c),
(30,17,o),
(21,132,o),
(125,135,c)
);
}
);
width = 652;
}
);
unicode = 93;
}
{
glyphname = underscore;
rightMetricsKey = "=|";
layers = (
{
layerId = "8796DA50-D6B7-4313-95AF-F4283B991C1A";
shapes = (
{
closed = 1;
nodes = (
(799,92,o),
(857,54,o),
(866,12,c),
(876,-14,o),
(878,-43,o),
(843,-56,c),
(813,-78,o),
(776,-60,o),
(742,-63,c),
(685,-62,o),
(628,-59,o),
(571,-63,c),
(504,-66,o),
(408,-82,o),
(350,-59,c),
(314,-37,o),
(287,9,o),
(308,43,c),
(345,74,o),
(412,50,o),
(459,55,c),
(533,56,o),
(593,60,o),
(666,63,c),
(692,63,o),
(721,64,o),
(744,74,c)
);
}
);
width = 1173;
}
);
unicode = 95;
}
{
glyphname = grave;
layers = (
{
layerId = "8796DA50-D6B7-4313-95AF-F4283B991C1A";
shapes = (
{
closed = 1;
nodes = (
(469.222,570.24,o),
(451.134,586.327,o),
(419.53,621.345,cs),
(396.915,645.77,o),
(393.675,704.101,o),
(356.895,699.606,c),
(249.635,674.481,o),
(319.321,613.721,o),
(368.552,559.488,c),
(412.035,520.484,o),
(437.413,451.863,o),
(494.489,496.521,cs),
(503.462,503.191,o),
(509.004,523.471,o),
(501.35,532.269,cs)
);
}
);
width = 555;
}
);
unicode = 96;
}
{
glyphname = a;
rightMetricsKey = "=|";
layers = (
{
layerId = "6DC978D1-58EC-4728-9C90-896FC59D3452";
shapes = (
{
closed = 1;
nodes = (
(632,425,o),
(628,398,o),
(615,379,cs),
(577,326,o),
(597,333,o),
(646,325,c),
(680,323,o),
(727,301,o),
(706,355,c),
(700,371,o),
(691,382,o),
(683,398,c),
(675,410,o),
(669,439,o),
(652,434,c)
);
},
{
closed = 1;
nodes = (
(490,189,o),
(464,100,o),
(431,35,c),
(419,4,o),
(389,-1,o),
(357,-1,c),
(328,-5,o),
(301,17,o),
(300,46,c),
(300,84,o),
(324,118,o),
(340,151,c),
(419,294,o),
(504,437,o),
(580,580,c),
(734,800,o),
(789,386,o),
(873,313,c),
(962,273,o),
(885,230,o),
(928,168,c),
(953,123,o),
(993,33,o),
(908,33,cs),
(880,33,o),
(835,30,o),
(816,46,cs),
(799,61,o),
(808,85,o),
(808,106,c),
(792,220,o),
(735,212,o),
(641,215,c),
(606,211,o),
(575,232,o),
(544,236,c)
);
}
);
width = 1260;
}
);
unicode = 97;
}
{
glyphname = b;
rightMetricsKey = "=|";
layers = (
{
layerId = "8796DA50-D6B7-4313-95AF-F4283B991C1A";
shapes = (
{
closed = 1;
nodes = (
(486,256,o),
(498,221,o),
(499,195,c),
(509,161,o),
(495,113,o),
(541,107,c),
(588,108,o),
(654,81,o),
(692,117,c),
(713,185,o),
(552,296,o),
(494,275,c)
);
},
{
closed = 1;
nodes = (
(592,564,o),
(412,470,o),
(460,404,c),
(514,361,o),
(659,487,o),
(643,544,c)
);
},
{
closed = 1;
nodes = (
(342,144,o),
(345,244,o),
(328,327,cs),
(317,384,o),
(284,443,o),
(310,501,c),
(401,630,o),
(616,700,o),
(763,635,c),
(863,564,o),
(756,435,o),
(697,372,c),
(677,343,o),
(712,326,o),
(735,309,cs),
(1001,104,o),
(776,-83,o),
(522,-12,c),
(454,-1,o),
(390,-10,o),
(359,60,c)
);
}
);
width = 1155;
}
);
unicode = 98;
}
{
glyphname = c;
rightMetricsKey = "=|";
layers = (
{
layerId = "8796DA50-D6B7-4313-95AF-F4283B991C1A";
shapes = (
{
closed = 1;
nodes = (
(916,102,o),
(826,59,o),
(758,55,c),
(473,-27,o),
(119,173,o),
(407,449,cs),
(486,524,o),
(627,620,o),
(733,545,c),
(752,530,o),
(758,502,o),
(737,485,c),
(654,435,o),
(554,419,o),
(495,330,c),
(385,204,o),
(564,161,o),
(661,186,c),
(741,190,o),
(851,261,o),
(905,177,c)
);
}
);
width = 1206;
}
);
unicode = 99;
}
{
glyphname = d;
rightMetricsKey = "=|";
layers = (
{
layerId = "6DC978D1-58EC-4728-9C90-896FC59D3452";
shapes = (
{
closed = 1;
nodes = (
(556,143,o),
(648,170,o),
(636,234,cs),
(624,294,o),
(520,545,o),
(461,531,cs),
(415,520,o),
(460,383,o),
(465,357,cs),
(499,163,o),
(477,136,o),
(495,132,c)
);
},
{
closed = 1;
nodes = (
(372,137,o),
(367,168,o),
(362,192,c),
(343,343,o),
(307,485,o),
(301,638,c),
(294,705,o),
(370,719,o),
(420,710,c),
(593,650,o),
(793,370,o),
(773,183,cs),
(740,-129,o),
(166,17,o),
(349,122,c)
);
}
);
width = 1075;
}
);
unicode = 100;
}
{
glyphname = e;
rightMetricsKey = "=|";
layers = (
{
layerId = "6DC978D1-58EC-4728-9C90-896FC59D3452";
shapes = (
{
closed = 1;
nodes = (
(611,372,o),
(853,386,o),
(842,299,cs),
(831,213,o),
(759,225,o),
(743,228,cs),
(727,230,o),
(526,282,o),
(507,241,cs),
(446,107,o),
(551,139,o),
(635,129,c),
(692,118,o),
(857,104,o),
(790,15,c),
(723,-26,o),
(635,5,o),
(560,3,c),
(493,18,o),
(416,-3,o),
(346,-3,c),
(277,12,o),
(302,77,o),
(318,124,c),
(340,193,o),
(361,263,o),
(366,335,cs),
(370,407,o),
(370,476,o),
(366,541,c),
(357,605,o),
(413,628,o),
(467,633,c),
(557,633,o),
(744,700,o),
(801,608,c),
(818,565,o),
(801,548,o),
(767,527,cs),
(683,475,o),
(498,584,o),
(517,433,c),
(517,418,o),
(517,395,o),
(531,391,c)
);
}
);
width = 1143;
}
);
unicode = 101;
}
{
glyphname = g;
rightMetricsKey = "=|";
layers = (
{
layerId = "9F82FD62-6BE5-49DE-A05E-9D9B95DBEA30";
name = Regular;
shapes = (
{
closed = 1;
nodes = (
(626,267,o),
(567,256,o),
(532,268,c),
(507,271,o),
(467,303,o),
(448,281,c),
(426,242,o),
(483,142,o),
(529,145,c),
(556,142,o),
(661,212,o),
(649,241,c)
);
},
{
closed = 1;
nodes = (
(483,404,o),
(523,405,o),
(597,390,cs),
(822,344,o),
(801,126,o),
(576,35,c),
(323,-26,o),
(258,220,o),
(326,418,c),
(359,500,o),
(408,700,o),
(525,675,c),
(552,667,o),
(573,639,o),
(569,610,cs),
(564,578,o),
(539,555,o),
(523,529,c),
(509,509,o),
(474,440,o),
(462,398,c)
);
}
);
width = 1056;
}
);
unicode = 103;
}
{
glyphname = h;
rightMetricsKey = "=|";
layers = (
{
layerId = "6DC978D1-58EC-4728-9C90-896FC59D3452";
shapes = (
{
closed = 1;
nodes = (
(436,175,o),
(460,110,o),
(431,47,c),
(409,-13,o),
(329,9,o),
(310,58,c),
(287,215,o),
(312,384,o),
(341,536,c),
(356,597,o),
(448,615,o),
(473,554,c),
(490,413,o),
(392,348,o),
(607,369,c),
(666,447,o),
(605,603,o),
(710,692,c),
(833,781,o),
(768,469,o),
(771,414,c),
(769,378,o),
(763,356,o),
(775,342,cs),
(786,331,o),
(836,334,o),
(858,320,cs),
(892,298,o),
(895,252,o),
(861,221,c),
(823,201,o),
(774,222,o),
(781,160,c),
(803,80,o),
(777,-39,o),
(674,10,c),
(611,73,o),
(706,249,o),
(576,246,cs),
(528,245,o),
(474,267,o),
(455,240,c)
);
}
);
width = 1186;
}
);
unicode = 104;
}
{
glyphname = i;
rightMetricsKey = "=|";
layers = (
{
layerId = "6DC978D1-58EC-4728-9C90-896FC59D3452";
shapes = (
{
closed = 1;
nodes = (
(433,519,o),
(294,512,o),
(301,591,c),
(308,608,o),
(327,611,o),
(341,623,cs),
(353,632,o),
(364,643,o),
(380,641,cs),
(415,636,o),
(474,611,o),
(465,570,c)
);
},
{
closed = 1;
nodes = (
(317,-93,o),
(346,140,o),
(321,211,c),
(317,264,o),
(306,322,o),
(321,376,c),
(340,417,o),
(410,453,o),
(440,395,c),
(468,271,o),
(475,154,o),
(467,24,cs),
(465,-18,o),
(448,-72,o),
(403,-77,c)
);
}
);
width = 771;
}
);
unicode = 105;
}
{
glyphname = j;
rightMetricsKey = "=|";
layers = (
{
layerId = "8796DA50-D6B7-4313-95AF-F4283B991C1A";
shapes = (
{
closed = 1;
nodes = (
(975,506,o),
(724,612,o),
(720,475,cs),
(714,296,o),
(821,42,o),
(585,-17,cs),
(507,-37,o),
(400,-33,o),
(336,25,c),
(265,105,o),
(304,251,o),
(421,147,cs),
(674,-79,o),
(602,338,o),
(584,464,cs),
(572,550,o),
(468,505,o),
(412,531,cs),
(370,550,o),
(367,614,o),
(412,632,c),
(559,664,o),
(715,642,o),
(858,676,c),
(899,684,o),
(958,680,o),
(975,636,c)
);
}
);
width = 1275;
}
);
unicode = 106;
}
{
glyphname = k;
rightMetricsKey = "=|";
layers = (
{
layerId = "8796DA50-D6B7-4313-95AF-F4283B991C1A";
shapes = (
{
closed = 1;
nodes = (
(423,529,o),
(428,473,o),
(447,454,c),
(526,415,o),
(579,554,o),
(636,586,c),
(734,616,o),
(704,506,o),
(653,467,c),
(618,438,o),
(554,390,o),
(549,356,cs),
(538,277,o),
(641,205,o),
(693,138,c),
(729,97,o),
(791,-8,o),
(689,-3,c),
(559,24,o),
(496,181,o),
(459,264,cs),
(443,300,o),
(443,304,o),
(424,288,c),
(390,229,o),
(419,24,o),
(313,106,cs),
(283,129,o),
(318,241,o),
(322,334,cs),
(328,453,o),
(309,560,o),
(303,608,c),
(299,659,o),
(369,700,o),
(396,642,c),
(405,616,o),
(410,589,o),
(416,560,c)
);
}
);
width = 1045;
}
);
unicode = 107;
}
{
glyphname = l;
rightMetricsKey = "=|";
layers = (
{
layerId = "8796DA50-D6B7-4313-95AF-F4283B991C1A";
shapes = (
{
closed = 1;
nodes = (
(555,143,o),
(675,188,o),
(761,211,cs),
(857,237,o),
(871,115,o),
(789,84,cs),
(693,48,o),
(597,31,o),
(498,3,cs),
(350,-39,o),
(285,-6,o),
(309,157,cs),
(319,223,o),
(312,335,o),
(318.347,384.625,cs),
(334,507,o),
(229,700,o),
(399,655,c),
(531,555,o),
(423,285,o),
(456,157,c)
);
}
);
width = 1143;
}
);
unicode = 108;
}
{
glyphname = m;
rightMetricsKey = "=|";
layers = (
{
layerId = "8796DA50-D6B7-4313-95AF-F4283B991C1A";
shapes = (
{
closed = 1;
nodes = (
(430,414,o),
(441,506,o),
(464,574,c),
(494,688,o),
(609,714,o),
(660,597,c),
(694,545,o),
(721,482,o),
(764,436,c),
(834,391,o),
(896,626,o),
(958,654,cs),
(1139,737,o),
(1136,418,o),
(1129,309,cs),
(1125,257,o),
(1130,204,o),
(1119,154,c),
(1108,121,o),
(1077,93,o),
(1041,84,c),
(927,64,o),
(995,267,o),
(1000,343,cs),
(1003,379,o),
(984,465,o),
(915,355,c),
(784,203,o),
(696,302,o),
(594,436,c),
(558,472,o),
(543,275,o),
(535,257,c),
(519,189,o),
(499,148,o),
(469,94,c),
(441,23,o),
(299,9,o),
(301,94,cs),
(303,182,o),
(372,170,o),
(412,338,cs)
);
}
);
width = 1432;
}
);
unicode = 109;
}
{
glyphname = n;
rightMetricsKey = "=|";
layers = (
{
layerId = "8796DA50-D6B7-4313-95AF-F4283B991C1A";
shapes = (
{
closed = 1;
nodes = (
(258,86,o),
(388,327,o),
(403.358,421.424,cs),
(415,493,o),
(481,578,o),
(557,497,cs),
(607,443,o),
(641,375,o),
(695,323,c),
(779,189,o),
(809,290,o),
(835,388,cs),
(857,473,o),
(823,559,o),
(799,638,c),
(802,700,o),
(885,653,o),
(909,626,cs),
(1009,512,o),
(994,317,o),
(901,201,c),
(844,69,o),
(738,37,o),
(665.761,151.137,cs),
(638,195,o),
(601,224,o),
(575,255,c),
(529,326,o),
(497,327,o),
(479,243,c),
(452,179,o),
(422,-48,o),
(314,39,c)
);
}
);
width = 1278;
}
);
unicode = 110;
}
{
glyphname = o;
rightMetricsKey = "=|";
layers = (
{
layerId = "8796DA50-D6B7-4313-95AF-F4283B991C1A";
shapes = (
{
closed = 1;
nodes = (
(551,748,o),
(299,279,o),
(534,155,c),
(700,87,o),
(760,301,o),
(717,426,c)
);
},
{
closed = 1;
nodes = (
(994,330,o),
(746,-142,o),
(416,98,cs),
(271,203,o),
(270,426,o),
(373,547,cs),
(460,649,o),
(644,699,o),
(755,581,cs)
);
}
);
width = 1151;
}
);
unicode = 111;
}
{
glyphname = p;
rightMetricsKey = "=|";
layers = (
{
layerId = "6DC978D1-58EC-4728-9C90-896FC59D3452";
shapes = (
{
closed = 1;
nodes = (
(602,430,o),
(556,515,o),
(531,532,c),
(489,527,o),
(432,465,o),
(435,421,c),
(429,354,o),
(568,353,o),
(590,400,c)
);
},
{
closed = 1;
nodes = (
(408,222,o),
(502,-61,o),
(326,41,c),
(305,62,o),
(306,97,o),
(307,124,cs),
(311,229,o),
(312,338,o),
(305,449,c),
(295,526,o),
(293,554,o),
(369,592,cs),
(434,625,o),
(488,659,o),
(556,656,c),
(597,645,o),
(653,614,o),
(673,572,cs),
(704,506,o),
(751,439,o),
(720,365,c),
(675,243,o),
(567,251,o),
(456,252,c)
);
}
);
width = 1031;
}
);
unicode = 112;
}
{
glyphname = q;
rightMetricsKey = "=|";
layers = (
{
layerId = "8796DA50-D6B7-4313-95AF-F4283B991C1A";
shapes = (
{
closed = 1;
nodes = (
(506,241,o),
(505,346,o),
(598,349,c),
(648,330,o),
(648,262,o),
(689,232,c),
(860,197,o),
(822,558,o),
(554,508,c),
(478,489,o),
(408,439,o),
(399,358,c),
(376,293,o),
(397,183,o),
(480,176,c),
(495,178,o),
(569,169,o),
(562,188,c)
);
},
{
closed = 1;
nodes = (
(766,78,o),
(819,29,o),
(835,-11,c),
(852,-39,o),
(840,-67,o),
(815,-92,c),
(768,-134,o),
(756,-95,o),
(736,-56,cs),
(649,114,o),
(595,31,o),
(447,51,c),
(218,90,o),
(291,518,o),
(434,617,c),
(456,627,o),
(474,603,o),
(490,598,cs),
(502,595,o),
(516,602,o),
(529,609,cs),
(572,634,o),
(626,640,o),
(675,629,c),
(898,605,o),
(959,231,o),
(774,118,c)
);
}
);
width = 1184;
}
);
unicode = 113;
}
{
glyphname = r;
rightMetricsKey = "=|";
layers = (
{
layerId = "8796DA50-D6B7-4313-95AF-F4283B991C1A";
shapes = (
{
closed = 1;
nodes = (
(618,344,o),
(838,412,o),
(750,491,c),
(691,554,o),
(637,535,o),
(590,471,c),
(580,454,o),
(537,379,o),
(559,361,c)
);
},
{
closed = 1;
nodes = (
(540,152,o),
(565,106,o),
(555,70,c),
(520,-11,o),
(368,9,o),
(379,113,c),
(371,221,o),
(351,321,o),
(309,422,c),
(284,472,o),
(320,574,o),
(379,541,cs),
(490,478,o),
(494,582,o),
(575,628,cs),
(737,721,o),
(1088,496,o),
(874,341,c),
(847,307,o),
(744,280,o),
(750,241,c),
(808,169,o),
(892,146,o),
(982,146,c),
(1008,142,o),
(1027,113,o),
(1013,88,c),
(969,30,o),
(853,39,o),
(788,55,c),
(719,56,o),
(575,213,o),
(550,188,c)
);
}
);
width = 1318;
}
);
unicode = 114;
}
{
glyphname = s;
rightMetricsKey = "=|";
layers = (
{
layerId = "6DC978D1-58EC-4728-9C90-896FC59D3452";
shapes = (
{
closed = 1;
nodes = (
(565,307,o),
(168,508,o),
(405,582,c),
(491,596,o),
(577,688,o),
(665,645,c),
(701,626,o),
(701,572,o),
(668,549,c),
(594,508,o),
(419,513,o),
(574,412,cs),
(724,314,o),
(900,80,o),
(619,33,cs),
(548,21,o),
(475,27,o),
(416,60,c),
(193,161,o),
(354,337,o),
(405,226,c),
(420,143,o),
(640,104,o),
(609,218,c)
);
}
);
width = 1068;
}
);
unicode = 115;
}
{
glyphname = t;
rightMetricsKey = "=|";
layers = (
{
layerId = "8796DA50-D6B7-4313-95AF-F4283B991C1A";
shapes = (
{
closed = 1;
nodes = (
(342,685,o),
(448,618,o),
(512,633,c),
(587,633,o),
(869,660,o),
(908,586,c),
(931,545,o),
(862,453,o),
(815,480,cs),
(806,485,o),
(796,495,o),
(782,500,c),
(737,508,o),
(681,497,o),
(635,506,c),
(566,517,o),
(609,397,o),
(616,352,c),
(617,256,o),
(702,56,o),
(647,5,c),
(611,-24,o),
(553,1,o),
(534,46,cs),
(516,88,o),
(536,140,o),
(520,190,cs),
(487,298,o),
(492,401,o),
(456,506,c),
(421,535,o),
(269,500,o),
(307,607,c)
);
}
);
width = 1213;
}
);
unicode = 116;
}
{
glyphname = u;
rightMetricsKey = "=|";
layers = (
{
layerId = "8796DA50-D6B7-4313-95AF-F4283B991C1A";
shapes = (
{
closed = 1;
nodes = (
(668,165,o),
(692,268,o),
(692,376,cs),
(692,439,o),
(684,502,o),
(676,564,cs),
(675,569,o),
(675,574,o),
(675,579,cs),
(675,641,o),
(720,707,o),
(758,707,cs),
(830,707,o),
(843,475,o),
(843,428,cs),
(843,289,o),
(805,148,o),
(720,38,c),
(663,-17,o),
(611,-40,o),
(564,-40,cs),
(395,-40,o),
(300,259,o),
(300,434,cs),
(300,470,o),
(341,505,o),
(377,505,cs),
(380,505,o),
(383,505,o),
(386,504,cs),
(442,494,o),
(469,383,o),
(493,283,cs),
(522,161,o),
(540,123,o),
(564,123,cs),
(567,123,o),
(570,124,o),
(577,127,cs)
);
}
);
width = 1143;
}
);
unicode = 117;
}
{
glyphname = v;
rightMetricsKey = "=|";
layers = (
{
layerId = "8796DA50-D6B7-4313-95AF-F4283B991C1A";
shapes = (
{
closed = 1;
nodes = (
(583,222,o),
(597,263,o),
(604,285,cs),
(605,288,o),
(606,291,o),
(607,293,cs),
(614,315,ls),
(640,393,o),
(663,482,o),
(679,559,c),
(685,610,o),
(732,656,o),
(784,656,cs),
(818,656,o),
(857,637,o),
(857,598,cs),
(857,572,o),
(842,542,o),
(832,519,cs),
(819,487,l),
(794,430,o),
(721,177,o),
(702,109,c),
(690,42,o),
(657,16,o),
(617,16,cs),
(533,16,o),
(416,129,o),
(397,210,cs),
(355,387,o),
(336,453,o),
(305,523,cs),
(301,531,o),
(300,539,o),
(300,546,cs),
(300,584,o),
(344,607,o),
(384,607,cs),
(405,607,o),
(426,601,o),
(437,586,cs),
(473,539,o),
(482,477,o),
(491,414,cs),
(496,383,o),
(521,222,o),
(563,222,cs)
);
}
);
width = 1157;
}
);
unicode = 118;
}
{
glyphname = w;
rightMetricsKey = "=|";
layers = (
{
layerId = "8796DA50-D6B7-4313-95AF-F4283B991C1A";
shapes = (
{
closed = 1;
nodes = (
(394,655,o),
(439,617,o),
(437,565,cs),
(432,456,l),
(432,420,o),
(457,216,o),
(504,216,cs),
(531,216,o),
(563,277,o),
(592,332,cs),
(607,361,o),
(622,388,o),
(638,409,cs),
(664,442,o),
(695,459,o),
(726,459,cs),
(774,459,o),
(822,419,o),
(848,342,c),
(851,338,o),
(853,333,o),
(855,328,cs),
(862,313,o),
(870,298,o),
(879,298,cs),
(882,298,o),
(886,300,o),
(891,308,cs),
(907,331,o),
(914,375,o),
(922,420,cs),
(935,497,o),
(949,577,o),
(1015,577,cs),
(1019,577,o),
(1023,577,o),
(1027,576,cs),
(1065,569,o),
(1079,543,o),
(1079,509,cs),
(1079,465,o),
(1057,407,o),
(1038,357,cs),
(1027,329,o),
(1017,304,o),
(1013,284,c),
(1005,225,ls),
(993,145,o),
(983,35,o),
(904,16,c),
(819,16,o),
(797,95,o),
(776,170,cs),
(769,197,o),
(762,224,o),
(752,246,cs),
(738,278,o),
(722,290,o),
(707,290,cs),
(669,290,o),
(630,211,o),
(601,157,cs),
(579,116,l),
(540,53,o),
(505,28,o),
(476,28,cs),
(399,28,o),
(354,200,o),
(329,291,c),
(319,357,ls),
(310,415,o),
(300,473,o),
(300,532,cs),
(300,571,o),
(300,655,o),
(356,655,cs)
);
}
);
width = 1379;
}
);
unicode = 119;
}
{
glyphname = x;
rightMetricsKey = "=|";
layers = (
{
layerId = "6DC978D1-58EC-4728-9C90-896FC59D3452";
shapes = (
{
closed = 1;
nodes = (
(618,477,o),
(626,566,o),
(675,599,cs),
(712,624,o),
(795,624,o),
(802,566,c),
(797,489,o),
(697,423,o),
(679,351,c),
(704,254,o),
(844,223,o),
(886,133,c),
(905,-14,o),
(726,108,o),
(677,159,c),
(643,185,o),
(594,260,o),
(562,215,c),
(516,159,o),
(481,73,o),
(418,34,cs),
(365,1,o),
(275,34,o),
(307,108,c),
(347,206,o),
(542,300,o),
(410,404,c),
(344,467,o),
(234,632,o),
(404,609,c),
(470,592,o),
(494,490,o),
(556,464,c)
);
}
);
width = 1188;
}
);
unicode = 120;
}
{
glyphname = y;
rightMetricsKey = "=|";
layers = (
{
layerId = "6DC978D1-58EC-4728-9C90-896FC59D3452";
shapes = (
{
closed = 1;
nodes = (
(754,522,o),
(817,596,o),
(897,653,cs),
(943,685,o),
(1055,670,o),
(1039,608,cs),
(1007,482,o),
(793,424,o),
(783,277,c),
(774,192,o),
(867,71,o),
(737,42,c),
(700,38,o),
(654,56,o),
(631,86,c),
(590,144,o),
(621,228,o),
(587,289,cs),
(549,355,o),
(206,515,o),
(326,591,c),
(428,668,o),
(516,532,o),
(603,483,c),
(636,459,o),
(650,443,o),
(675,458,c)
);
}
);
width = 1341;
}
);
unicode = 121;
}
{
glyphname = z;
rightMetricsKey = "=|";
layers = (
{
layerId = "8796DA50-D6B7-4313-95AF-F4283B991C1A";
shapes = (
{
closed = 1;
nodes = (
(669,493,o),
(582,506,o),
(502,517,cs),
(362,539,l),
(323,539,o),
(300,569,o),
(300,600,cs),
(300,629,o),
(321,659,o),
(366,666,c),
(398,666,ls),
(505,666,o),
(617,644,o),
(716,608,c),
(814,580,o),
(850,536,o),
(850,490,cs),
(850,454,o),
(828,416,o),
(797,382,cs),
(774,357,o),
(746,333,o),
(691,291,cs),
(618,236,o),
(591,211,o),
(577,185,cs),
(570,172,o),
(567,161,o),
(567,150,cs),
(567,86,o),
(671,46,o),
(761,46,cs),
(808,46,o),
(851,57,o),
(874,81,cs),
(886,94,o),
(900,99,o),
(913,99,cs),
(936,99,o),
(957,83,o),
(956,59,c),
(956,54,l),
(933,-37,o),
(857,-73,o),
(770,-73,cs),
(618,-73,o),
(433,37,o),
(433,169,cs),
(433,248,o),
(497,295,o),
(554,337,cs),
(599,371,o),
(646,405,o),
(669,454,c)
);
}
);
width = 1257;
}
);
unicode = 122;
}
{
glyphname = braceleft;
layers = (
{
layerId = "8796DA50-D6B7-4313-95AF-F4283B991C1A";
shapes = (
{
closed = 1;
nodes = (
(395,343,o),
(369,243,o),
(314,332,cs),
(262,417,o),
(372,405,o),
(391,458,c),
(398,531,o),
(381,608,o),
(436,669,c),
(458,725,o),
(573,699,o),
(559,640,c),
(499,561,o),
(536,459,o),
(499,372,c),
(547,277,o),
(496,122,o),
(551,112,c),
(582,108,o),
(607,80,o),
(620,54,c),
(633,-20,o),
(527,-2,o),
(489,16,c),
(422,32,o),
(387,110,o),
(392,174,c)
);
},
{
closed = 1;
nodes = (
(575,99,o),
(579,95,o),
(583,94,c),
(583,95,o),
(574,103,o),
(573,102,c)
);
}
);
width = 672;
}
);
unicode = 123;
}
{
glyphname = bar;
rightMetricsKey = "=|";
layers = (
{
layerId = "8796DA50-D6B7-4313-95AF-F4283B991C1A";
shapes = (
{
closed = 1;
nodes = (
(326,194,o),
(344,301,o),
(338,408,c),
(359,500,o),
(263,610,o),
(380,635,c),
(462,636,o),
(487,566,o),
(477,477,c),
(477,408,o),
(477,329,o),
(476,264,c),
(462,191,o),
(508,131,o),
(494,57,cs),
(471,-67,o),
(253,-62,o),
(310,91,c)
);
}
);
width = 797;
}
);
unicode = 124;
}
{
glyphname = braceright;
layers = (
{
layerId = "8796DA50-D6B7-4313-95AF-F4283B991C1A";
shapes = (
{
closed = 1;
nodes = (
(264,131,o),
(270,91,o),
(251,61,c),
(197,9,o),
(67,-47,o),
(50,65,c),
(65,144,o),
(157,52,o),
(147,191,c),
(103,389,o),
(166,338,o),
(156,494,c),
(181,642,o),
(187,562,o),
(79,612,c),
(7,707,o),
(197,719,o),
(247,676,c),
(416,556,o),
(236,512,o),
(292,423,c),
(334,361,o),
(321,333,o),
(268,287,c),
(268,247,o),
(278,204,o),
(275,164,c)
);
},
{
closed = 1;
nodes = (
(266,266,o),
(267,261,o),
(269,262,c),
(269,264,o),
(269,267,o),
(267,267,c)
);
}
);
width = 622;
}
);
unicode = 125;
}
{
glyphname = asciitilde;
rightMetricsKey = "=|";
layers = (
{
layerId = "6DC978D1-58EC-4728-9C90-896FC59D3452";
shapes = (
{
closed = 1;
nodes = (
(837,311,o),
(920,211,o),
(839,162,c),
(806,139,o),
(766,135,o),
(729,150,c),
(658,168,o),
(600,217,o),
(546,264,c),
(526,274,o),
(498,289,o),
(480,268,c),
(470,259,o),
(455,254,o),
(453,239,cs),
(452,227,o),
(460,216,o),
(455,204,cs),
(439,164,o),
(385,150,o),
(348,170,c),
(333,176,o),
(328,190,o),
(320,202,c),
(293,234,o),
(298,276,o),
(310,313,cs),
(330,377,o),
(385,416,o),
(446,438,c),
(498,450,o),
(556,438,o),
(604,417,c),
(668,387,o),
(689,308,o),
(766,310,cs)
);
}
);
width = 1173;
}
);
unicode = 126;
}
{
glyphname = exclamdown;
rightMetricsKey = "=|";
layers = (
{
layerId = "6DC978D1-58EC-4728-9C90-896FC59D3452";
shapes = (
{
closed = 1;
nodes = (
(499.13,337.733,o),
(456.068,241.839,o),
(455.103,161.62,c),
(439.665,88.506,o),
(482.585,-68.107,o),
(357.26,-50.944,c),
(246.709,-13.813,o),
(333.31,234.115,o),
(328.468,326.994,c),
(332.321,361.304,o),
(324.253,409.893,o),
(363.295,426.377,c),
(393.732,436.308,o),
(441.7,438.325,o),
(460.362,412.446,c)
);
},
{
closed = 1;
nodes = (
(314.535,675.807,o),
(434.905,721.457,o),
(472.342,699.765,c),
(560.579,619.147,o),
(453.774,501.207,o),
(359.717,626.548,c)
);
}
);
width = 806;
}
);
unicode = 161;
}
{
glyphname = cent;
rightMetricsKey = "=|";
layers = (
{
layerId = "6DC978D1-58EC-4728-9C90-896FC59D3452";
shapes = (
{
closed = 1;
nodes = (
(490.801,129.062,o),
(494.895,84.842,o),
(478.517,68.464,cs),
(457.226,47.173,o),
(426.927,60.276,o),
(414.644,85.661,cs),
(406.455,102.858,o),
(402.361,117.598,o),
(407.274,135.613,cs),
(411.369,150.353,o),
(392.534,157.723,o),
(382.708,164.274,cs),
(276.252,238.793,o),
(284.441,354.256,o),
(345.039,454.16,cs),
(356.503,472.994,o),
(367.968,491.01,o),
(382.708,507.387,cs),
(394.172,519.671,o),
(413.825,524.584,o),
(424.471,537.686,c),
(426.108,549.97,o),
(431.841,604.016,o),
(435.116,613.024,cs),
(449.856,648.236,o),
(504.722,622.032,o),
(520.28,599.103,cs),
(529.288,586.001,o),
(529.288,572.898,o),
(526.013,558.977,cs),
(518.643,522.946,o),
(548.123,513.939,o),
(566.957,491.01,cs),
(585.791,468.081,o),
(601.35,441.877,o),
(616.09,416.491,cs),
(629.192,392.743,o),
(607.082,357.531,o),
(577.602,361.626,cs),
(537.477,367.358,o),
(537.477,412.397,o),
(515.367,437.782,cs),
(467.053,495.104,o),
(410.55,401.751,o),
(396.629,362.445,cs),
(384.345,328.87,o),
(385.983,243.706,o),
(429.384,232.242,cs),
(453.951,225.691,o),
(484.249,230.604,o),
(504.722,246.163,cs),
(517.824,255.989,o),
(527.65,270.729,o),
(544.028,271.548,cs),
(560.406,272.367,o),
(583.335,277.28,o),
(598.893,267.454,cs),
(611.177,259.265,o),
(622.641,251.076,o),
(625.098,236.336,cs),
(632.468,196.211,o),
(598.893,180.652,o),
(569.414,165.093,cs),
(553.855,156.904,o),
(536.658,148.715,o),
(520.28,143.802,cs),
(512.91,142.164,o),
(504.722,144.621,o),
(500.627,139.708,cs)
);
}
);
width = 927;
}
);
unicode = 162;
}
{
glyphname = sterling;
rightMetricsKey = "=|";
layers = (
{
layerId = "8796DA50-D6B7-4313-95AF-F4283B991C1A";
shapes = (
{
closed = 1;
nodes = (
(462,681,o),
(534,684,o),
(578,643,c),
(601,632,o),
(649,571,o),
(640,548,c),
(639,524,o),
(610,496,o),
(591,520,c),
(570,531,o),
(565,564,o),
(554,581,cs),
(537,607,o),
(495,595,o),
(481,572,c),
(462,525,o),
(473,435,o),
(477,389,c),
(479,379,o),
(476,360,o),
(489,359,c),
(513,362,o),
(540,376,o),
(566,367,cs),
(616,350,o),
(609,324,o),
(577,288,cs),
(562,271,o),
(537,275,o),
(517,274,cs),
(508,274,o),
(495,275,o),
(486,268,c),
(478,258,o),
(457,160,o),
(439,123,cs),
(438,121,o),
(436,115,o),
(438,115,c),
(447,113,o),
(455,121,o),
(462,122,cs),
(701,166,ls),
(711,168,o),
(720,171,o),
(728.862,167.123,cs),
(736,164,o),
(744,156,o),
(747.721,146.077,cs),
(750,140,o),
(756,129,o),
(752.532,111.66,cs),
(751,104,o),
(746,87,o),
(729,79,cs),
(652,45,o),
(506,56,o),
(417,16,cs),
(404,10,o),
(395,-9,o),
(378,-16,cs),
(320,-39,o),
(289,55,o),
(321,93,cs),
(345,121,o),
(360,157,o),
(375,190,cs),
(414,280,o),
(360,210,o),
(326,237,c),
(296,282,o),
(281,306,o),
(351,313,cs),
(365,315,o),
(384,327,o),
(399,334,cs),
(407,337,o),
(403,346,o),
(402,352,cs),
(377,559,o),
(373,595,o),
(422,638,c)
);
}
);
width = 1054;
}
);
unicode = 163;
}
{
glyphname = currency;
rightMetricsKey = "=|";
layers = (
{
layerId = "6DC978D1-58EC-4728-9C90-896FC59D3452";
shapes = (
{
closed = 1;
nodes = (
(613,260,o),
(598,440,o),
(503,450,c),
(441,438,o),
(415,360,o),
(436,306,c),
(445,288,o),
(468,278,o),
(482,263,c),
(498,249,o),
(507,224,o),
(530,224,c)
);
},
{
closed = 1;
nodes = (
(353,280,o),
(354,324,o),
(359,378,cs),
(371,515,o),
(555,583,o),
(626,448,c),
(757,291,o),
(523,16,o),
(400,245,c)
);
},
{
closed = 1;
nodes = (
(623,251,o),
(600,341,o),
(652,372,c),
(752,384,o),
(731,276,o),
(672,278,c)
);
},
{
closed = 1;
nodes = (
(462,528,o),
(496,583,o),
(519,580,c),
(543,573,o),
(563,539,o),
(561,507,c),
(561,454,o),
(478,458,o),
(468,497,c)
);
},
{
closed = 1;
nodes = (
(462,154,o),
(496,209,o),
(519,205,c),
(543,199,o),
(563,165,o),
(561,133,c),
(561,80,o),
(478,83,o),
(468,123,c)
);
},
{
closed = 1;
nodes = (
(301,285,o),
(278,376,o),
(330,407,c),
(430,419,o),
(409,311,o),
(350,313,c)
);
}
);
width = 1022;
}
);
unicode = 164;
}
{
glyphname = yen;
rightMetricsKey = "=|";
layers = (
{
layerId = "6DC978D1-58EC-4728-9C90-896FC59D3452";
shapes = (
{
closed = 1;
nodes = (
(755.231,608.627,o),
(705.621,634.785,o),
(661.424,618.549,c),
(647.894,612.235,o),
(630.756,599.607,o),
(621.736,587.881,cs),
(596.48,554.508,o),
(565.813,527.448,o),
(534.243,500.388,cs),
(512.595,481.446,o),
(506.281,477.838,o),
(488.242,505.8,c),
(441.338,554.508,o),
(421.494,613.137,o),
(355.649,627.569,c),
(339.413,630.275,o),
(325.884,616.745,o),
(313.256,606.823,cs),
(291.608,590.587,o),
(300.628,568.037,o),
(315.962,551.802,c),
(337.609,511.212,o),
(398.945,482.348,o),
(422.396,439.053,cs),
(431.416,422.817,o),
(435.926,402.973,o),
(428.71,381.326,c),
(377.297,371.404,o),
(331.295,388.542,o),
(345.727,310.068,c),
(352.943,293.833,o),
(365.571,291.127,o),
(382.709,296.539,c),
(403.455,298.343,o),
(426.004,299.245,o),
(446.75,298.343,cs),
(453.966,297.441,o),
(455.77,292.931,o),
(454.868,284.813,c),
(455.77,270.381,o),
(446.75,272.185,o),
(435.926,273.989,cs),
(420.592,275.793,o),
(405.259,272.185,o),
(389.925,273.989,c),
(380.905,273.989,o),
(372.787,276.695,o),
(366.473,271.283,c),
(327.688,254.145,o),
(330.394,186.496,o),
(375.493,180.182,c),
(386.317,181.986,o),
(398.945,186.496,o),
(409.769,183.79,c),
(446.75,180.182,o),
(458.476,198.222,o),
(447.652,148.612,c),
(445.848,135.984,o),
(444.946,119.749,o),
(438.632,107.121,c),
(431.416,99.003,o),
(428.71,88.179,o),
(432.318,77.355,c),
(435.926,53.001,o),
(434.122,41.276,o),
(458.476,27.746,c),
(487.34,7,o),
(524.321,10.608,o),
(556.793,22.334,c),
(584.755,41.276,o),
(586.559,73.747,o),
(568.519,100.807,c),
(564.911,120.651,o),
(565.813,136.886,o),
(564.911,164.848,c),
(564.911,181.084,o),
(571.225,181.986,o),
(585.657,179.28,c),
(597.382,175.672,o),
(609.108,177.476,o),
(620.834,175.672,c),
(658.718,167.554,o),
(687.581,217.164,o),
(663.228,246.929,c),
(655.11,261.361,o),
(649.698,264.067,o),
(633.462,263.165,c),
(622.638,263.165,o),
(609.108,267.675,o),
(598.284,265.871,c),
(589.264,265.871,o),
(573.931,255.949,o),
(573.029,270.381,cs),
(571.225,299.245,o),
(598.284,287.519,o),
(625.344,284.813,cs),
(644.286,283.009,o),
(654.208,294.735,o),
(664.13,307.362,cs),
(681.267,329.912,o),
(662.326,384.934,o),
(629.854,379.522,cs),
(624.442,378.62,o),
(592.872,370.502,o),
(591.97,379.522,c),
(589.264,393.051,o),
(599.186,413.797,o),
(610.912,424.621,c),
(640.678,445.367,o),
(680.365,471.525,o),
(709.229,490.466,cs),
(736.289,508.506,o),
(772.368,524.742,o),
(766.054,562.626,c)
);
}
);
width = 1067;
}
);
unicode = 165;
}
{
glyphname = brokenbar;
rightMetricsKey = "=|";
layers = (
{
layerId = "6DC978D1-58EC-4728-9C90-896FC59D3452";
shapes = (
{
closed = 1;
nodes = (
(445.803,730.132,o),
(328.834,742.553,o),
(344.361,640.075,c),
(348.501,580.038,o),
(353.677,516.895,o),
(352.642,453.752,c),
(344.361,396.82,o),
(316.412,305.728,o),
(405.433,306.763,c),
(447.874,310.904,o),
(449.944,367.836,o),
(452.014,400.96,c),
(452.014,479.63,o),
(462.366,560.37,o),
(447.874,638.005,c)
);
},
{
closed = 1;
nodes = (
(311.237,279.85,o),
(339.185,125.616,o),
(321.588,64.543,c),
(315.377,7.611,o),
(264.656,-75.2,o),
(345.396,-100.043,c),
(419.925,-115.57,o),
(433.382,60.403,o),
(433.382,110.089,c),
(435.452,154.599,o),
(454.084,218.777,o),
(412.679,249.831,c)
);
}
);
width = 756;
}
);
unicode = 166;
}
{
glyphname = section;
rightMetricsKey = "=|";
layers = (
{
layerId = "6DC978D1-58EC-4728-9C90-896FC59D3452";
shapes = (
{
closed = 1;
nodes = (
(458,243,o),
(485,254,o),
(502,254,cs),
(509,254,o),
(512,254,o),
(518,252,c),
(531,249,o),
(545,241,o),
(560,241,cs),
(590,241,o),
(614,268,o),
(614,297,cs),
(614,311,o),
(608,325,o),
(594,333,c),
(575,341,o),
(550,344,o),
(525,346,cs),
(487,350,o),
(447,353,o),
(424,380,c),
(411,401,o),
(407,422,o),
(407,442,cs),
(407,519,o),
(481,588,o),
(555,588,cs),
(591,588,o),
(627,571,o),
(653,530,c),
(657,523,o),
(659,516,o),
(659,507,cs),
(659,483,o),
(642,464,o),
(619,464,cs),
(602,464,o),
(595,473,o),
(583,487,cs),
(575,498,o),
(567,510,o),
(546,510,cs),
(517,510,o),
(495,482,o),
(495,457,cs),
(495,421,o),
(536,416,o),
(578,412,cs),
(619,408,o),
(660,402,o),
(674,375,c),
(695,356,o),
(703,334,o),
(703,312,cs),
(703,240,o),
(613,163,o),
(544,163,cs),
(511,163,o),
(469,182,o),
(461,224,cs)
);
},
{
closed = 1;
nodes = (
(490,163,o),
(205,307,o),
(375,360,c),
(436,370,o),
(498,436,o),
(561,405,c),
(587,392,o),
(587,353,o),
(563,336,c),
(510,307,o),
(385,311,o),
(496,238,cs),
(603,168,o),
(730,1,o),
(528,-33,cs),
(477,-41,o),
(425,-38,o),
(383,-14,c),
(223,58,o),
(338,184,o),
(375,105,c),
(386,45,o),
(543,17,o),
(521,99,c)
);
}
);
width = 1003;
}
);
unicode = 167;
}
{
glyphname = dieresis;
rightMetricsKey = "=|";
layers = (
{
layerId = "8796DA50-D6B7-4313-95AF-F4283B991C1A";
shapes = (
{
closed = 1;
nodes = (
(534,605,o),
(640,617,o),
(664,563,c),
(660,402,o),
(494,460,o),
(510,552,c)
);
},
{
closed = 1;
nodes = (
(389,624,o),
(448,558,o),
(438,519,c),
(426,482,o),
(380,454,o),
(340,462,c),
(276,472,o),
(299,608,o),
(349,619,c)
);
},
{
alignment = -1;
pos = (56,0);
ref = space;
}
);
width = 964;
}
);
unicode = 168;
}
{
glyphname = copyright;
rightMetricsKey = "=|";
layers = (
{
layerId = "6DC978D1-58EC-4728-9C90-896FC59D3452";
shapes = (
{
closed = 1;
nodes = (
(655,370,o),
(656,610,o),
(478,624,c),
(384,613,o),
(347,487,o),
(373,422,c),
(384,400,o),
(417,359,o),
(433,340,c),
(453,323,o),
(482,331,o),
(510,331,c)
);
},
{
closed = 1;
nodes = (
(292,389,o),
(298,449,o),
(304,514,cs),
(319,679,o),
(551,762,o),
(637,600,c),
(793,411,o),
(496,73,o),
(348,347,c)
);
},
{
closed = 1;
nodes = (
(569,576,o),
(563,554,o),
(543,549,c),
(505,537,o),
(462,497,o),
(452,467,cs),
(428,399,o),
(606,476,o),
(594,433,cs),
(584,394,o),
(455,381,o),
(411,417,cs),
(353,464,o),
(501,621,o),
(557,584,cs)
);
}
);
width = 982;
}
);
unicode = 169;
}
{
glyphname = ordfeminine;
rightMetricsKey = "=|";
layers = (
{
layerId = "8796DA50-D6B7-4313-95AF-F4283B991C1A";
shapes = (
{
closed = 1;
nodes = (
(442,588,o),
(437,561,o),
(432,553,c),
(430,539,o),
(454,549,o),
(463,544,c),
(477,536,o),
(482,541,o),
(470,557,c),
(465,566,o),
(458,582,o),
(451,588,c)
);
},
{
closed = 1;
nodes = (
(583,436,o),
(610,384,o),
(570,364,c),
(551,360,o),
(534,375,o),
(529,394,c),
(522,411,o),
(519,438,o),
(508,452,c),
(487,464,o),
(454,460,o),
(431,465,cs),
(420,467,o),
(406,471,o),
(396,466,c),
(374,453,o),
(373,411,o),
(346,401,c),
(331,395,o),
(309,410,o),
(302,425,c),
(293,461,o),
(324,494,o),
(339,525,cs),
(398,652,o),
(452,773,o),
(536,574,c),
(541,559,o),
(556,550,o),
(568,543,c),
(587,523,o),
(569,491,o),
(576,468,c)
);
}
);
width = 892;
}
);
unicode = 170;
}
{
glyphname = guillemotleft;
rightMetricsKey = "=|";
layers = (
{
layerId = "8796DA50-D6B7-4313-95AF-F4283B991C1A";
shapes = (
{
closed = 1;
nodes = (
(428,334,o),
(464,365,o),
(505,385,c),
(534,390,o),
(555,354,o),
(557,329,c),
(551,289,o),
(496,289,o),
(471,263,c),
(442,246,o),
(491,236,o),
(502,228,c),
(521,217,o),
(544,215,o),
(562,205,c),
(576,193,o),
(599,168,o),
(598,148,cs),
(596,103,o),
(547,100,o),
(518,125,c),
(502,145,o),
(482,153,o),
(461,163,c),
(426,181,o),
(388,194,o),
(349,192,c),
(326,195,o),
(313,217,o),
(307,237,c),
(299,252,o),
(298,267,o),
(305,282,c),
(311,300,o),
(335,300,o),
(350,307,c),
(362,312,o),
(372,317,o),
(384,320,c)
);
},
{
closed = 1;
nodes = (
(698,345,o),
(734,376,o),
(775,396,c),
(804,401,o),
(825,365,o),
(827,340,c),
(821,300,o),
(766,300,o),
(741,274,c),
(712,257,o),
(761,247,o),
(772,239,c),
(791,228,o),
(814,226,o),
(832,216,c),
(846,204,o),
(869,179,o),
(868,159,cs),
(866,114,o),
(817,111,o),
(788,136,c),
(772,156,o),
(752,164,o),
(731,174,c),
(696,192,o),
(658,205,o),
(619,203,c),
(596,206,o),
(583,228,o),
(577,248,c),
(569,263,o),
(568,278,o),
(575,293,c),
(581,311,o),
(605,311,o),
(620,318,c),
(632,323,o),
(642,328,o),
(654,331,c)
);
}
);
width = 1169;
}
);
unicode = 171;
}
{
glyphname = logicalnot;
rightMetricsKey = "=|";
layers = (
{
layerId = "6DC978D1-58EC-4728-9C90-896FC59D3452";
shapes = (
{
closed = 1;
nodes = (
(702,267,o),
(749,229,o),
(757,187,c),
(764,161,o),
(766,133,o),
(738,119,c),
(714,98,o),
(683,115,o),
(656,113,c),
(610,114,o),
(564,117,o),
(518,112,c),
(464,110,o),
(386,94,o),
(340,117,c),
(311,138,o),
(289,184,o),
(306,218,c),
(336,249,o),
(390,225,o),
(427,230,c),
(488,231,o),
(537,235,o),
(595,238,c),
(616,238,o),
(639,239,o),
(658,249,c)
);
},
{
closed = 1;
nodes = (
(592,54,o),
(636,71,o),
(657,115,cs),
(671,144,o),
(659,201,o),
(695,208,c),
(805,212,o),
(755,134,o),
(722,69,c),
(690,20,o),
(685,-54,o),
(619,-27,cs),
(607,-22,o),
(600,-4,o),
(603,7,c)
);
}
);
width = 1063;
}
);
unicode = 172;
}
{
glyphname = registered;
rightMetricsKey = "=|";
layers = (
{
guides = (
{
position = "{0, 364}";
}
);
layerId = "6DC978D1-58EC-4728-9C90-896FC59D3452";
shapes = (
{
closed = 1;
nodes = (
(450.875,572.829,o),
(458.127,534.846,o),
(469.867,528.976,cs),
(489.894,518.962,o),
(517.863,526.214,o),
(516.482,551.421,c),
(513.029,572.829,o),
(475.737,598.036,o),
(457.091,582.843,c)
);
},
{
closed = 1;
nodes = (
(538.581,478.217,o),
(630.431,456.463,o),
(582.434,418.48,c),
(563.788,409.157,o),
(473.665,495.482,o),
(472.974,455.082,c),
(469.521,437.127,o),
(485.06,386.368,o),
(454.674,393.619,c),
(417.726,412.265,o),
(426.704,498.245,o),
(418.762,536.227,c),
(384.923,592.857,o),
(442.588,653.975,o),
(500.944,623.243,c),
(533.747,608.74,o),
(574.492,584.915,o),
(561.371,542.098,c),
(557.573,524.142,o),
(536.855,514.128,o),
(530.639,498.935,c)
);
},
{
closed = 1;
nodes = (
(655.544,413.164,o),
(656.819,652.788,o),
(478.376,666.808,c),
(384.693,655.337,o),
(347.73,529.79,o),
(373.222,464.785,c),
(384.693,443.117,o),
(417.195,401.693,o),
(433.765,383.211,c),
(453.521,366.004,o),
(482.199,373.652,o),
(510.24,373.652,c)
);
},
{
closed = 1;
nodes = (
(292.285,432.283,o),
(298.021,492.189,o),
(304.394,557.193,cs),
(319.689,721.616,o),
(551.665,804.465,o),
(637.063,643.229,c),
(793.2,453.951,o),
(496.22,115.547,o),
(348.367,390.222,c)
);
}
);
width = 982;
}
);
unicode = 174;
}
{
glyphname = macron;
rightMetricsKey = "=|";
layers = (
{
layerId = "8796DA50-D6B7-4313-95AF-F4283B991C1A";
shapes = (
{
closed = 1;
nodes = (
(702,671,o),
(749,633,o),
(757,591,c),
(764,565,o),
(766,537,o),
(738,523,c),
(714,502,o),
(683,519,o),
(656,517,c),
(610,518,o),
(564,521,o),
(518,516,c),
(464,514,o),
(386,498,o),
(340,521,c),
(311,542,o),
(289,588,o),
(306,622,c),
(336,653,o),
(390,629,o),
(427,634,c),
(488,635,o),
(537,639,o),
(595,642,c),
(616,642,o),
(639,643,o),
(658,653,c)
);
}
);
width = 1062;
}
);
unicode = 175;
}
{
glyphname = degree;
rightMetricsKey = "=|";
layers = (
{
layerId = "8796DA50-D6B7-4313-95AF-F4283B991C1A";
shapes = (
{
closed = 1;
nodes = (
(413.326,660.532,o),
(357.793,553.77,o),
(401.703,530.093,c),
(439.156,514.596,o),
(452.931,562.811,o),
(443.03,591.223,c)
);
},
{
closed = 1;
nodes = (
(598.437,555.062,o),
(491.675,351.87,o),
(349.614,455.188,cs),
(287.193,500.389,o),
(286.762,596.389,o),
(331.103,648.478,cs),
(368.555,692.388,o),
(447.765,713.912,o),
(495.55,663.115,cs)
);
}
);
width = 837;
}
);
unicode = 176;
}
{
glyphname = plusminus;
rightMetricsKey = "=|";
layers = (
{
layerId = "8796DA50-D6B7-4313-95AF-F4283B991C1A";
shapes = (
{
closed = 1;
nodes = (
(539,185,o),
(546,163,o),
(526,159,c),
(490,139,o),
(455,178,o),
(460,214,c),
(462,226,o),
(461,246,o),
(445,243,c),
(399,243,o),
(332,199,o),
(306,255,c),
(282,299,o),
(341,300,o),
(370,305,c),
(396,306,o),
(419,315,o),
(445,317,c),
(453,323,o),
(449,341,o),
(449,350,cs),
(448,378,o),
(448,406,o),
(441,434,c),
(439,465,o),
(486,462,o),
(499,442,c),
(516,425,o),
(516,402,o),
(513,381,c),
(520,365,o),
(503,324,o),
(533,333,c),
(551,339,o),
(582,355,o),
(604,349,cs),
(611,347,o),
(619,345,o),
(623,331,cs),
(624,326,o),
(625,305,o),
(627,299,c),
(634,253,o),
(575,267,o),
(547,257,c),
(531,256,o),
(520,253,o),
(526,236,c),
(529,223,o),
(531,211,o),
(536,199,c)
);
},
{
closed = 1;
nodes = (
(620,155,o),
(652,129,o),
(657,101,c),
(662,84,o),
(664,65,o),
(645,55,c),
(628,41,o),
(608,53,o),
(589,51,c),
(558,52,o),
(527,54,o),
(496,51,c),
(460,49,o),
(407,38,o),
(376,54,c),
(357,68,o),
(342,99,o),
(353,122,c),
(374,143,o),
(410,127,o),
(435,130,c),
(476,131,o),
(509,133,o),
(548,135,c),
(562,135,o),
(578,136,o),
(591,143,c)
);
}
);
width = 961;
}
);
unicode = 177;
}
{
glyphname = twosuperior;
rightMetricsKey = "=|";
layers = (
{
layerId = "6DC978D1-58EC-4728-9C90-896FC59D3452";
shapes = (
{
closed = 1;
nodes = (
(533.76,324.936,o),
(307.532,297.36,o),
(340.215,380.089,c),
(371.366,425.538,o),
(391.282,471.499,o),
(431.625,511.331,c),
(442.349,530.226,o),
(491.374,593.549,o),
(469.926,608.359,c),
(445.413,619.594,o),
(412.73,619.594,o),
(388.218,611.423,cs),
(369.323,605.295,o),
(354.003,590.996,o),
(334.598,587.932,c),
(279.445,592.017,o),
(298.34,632.361,o),
(336.13,648.702,cs),
(397.41,674.746,o),
(500.055,685.47,o),
(543.973,627.765,c),
(558.272,549.121,o),
(481.161,490.394,o),
(448.478,426.56,c),
(436.221,410.729,o),
(420.391,379.067,o),
(454.095,382.131,cs),
(480.139,384.685,o),
(543.973,389.281,o),
(570.017,391.834,c),
(585.848,394.387,o),
(599.636,406.133,o),
(616.489,408.176,c),
(635.383,412.261,o),
(654.278,401.026,o),
(646.108,381.621,c),
(634.362,348.427,o),
(611.893,328,o),
(575.635,327.489,c)
);
}
);
width = 949;
}
);
unicode = 178;
}
{
glyphname = threesuperior;
rightMetricsKey = "=|";
layers = (
{
layerId = "8796DA50-D6B7-4313-95AF-F4283B991C1A";
shapes = (
{
closed = 1;
nodes = (
(406.742,603.287,o),
(387.903,597.818,o),
(376.964,598.426,c),
(345.971,597.818,o),
(299.785,605.111,o),
(300.392,642.181,c),
(299.785,716.93,o),
(608.503,667.097,o),
(538.616,578.979,c),
(527.677,547.378,o),
(455.359,525.5,o),
(476.629,492.076,c),
(510.661,447.713,o),
(619.442,344.402,o),
(528.892,306.116,cs),
(485.137,287.884,o),
(440.774,293.354,o),
(394.588,305.508,cs),
(360.556,314.016,o),
(304.646,341.363,o),
(328.347,382.688,c),
(356.302,405.173,o),
(389.726,372.356,o),
(416.465,363.848,c),
(452.321,350.479,o),
(483.314,368.71,o),
(454.751,405.781,c),
(432.266,436.166,o),
(404.919,458.652,o),
(373.926,472.629,c),
(343.54,479.922,o),
(322.27,516.992,o),
(344.148,544.947,c),
(357.517,563.178,o),
(408.565,568.648,o),
(412.819,594.172,c)
);
}
);
width = 865;
}
);
unicode = 179;
}
{
glyphname = acute;
layers = (
{
layerId = "6DC978D1-58EC-4728-9C90-896FC59D3452";
shapes = (
{
closed = 1;
nodes = (
(46.434,493.231,o),
(51.087,472.729,o),
(60.362,466.25,cs),
(118.042,421.64,o),
(143.467,490.135,o),
(186.298,529.219,c),
(235.719,582.675,o),
(305.119,643.738,o),
(197.985,669.417,c),
(161.776,673.148,o),
(157.775,615.564,o),
(135.843,590.345,cs),
(104.304,556.311,o),
(85.898,539.843,o),
(54.073,501.696,cs)
);
},
{
alignment = -1;
pos = (-72,0);
ref = space;
}
);
width = 555;
}
);
unicode = 180;
}
{
glyphname = paragraph;
rightMetricsKey = "=|";
layers = (
{
layerId = "8796DA50-D6B7-4313-95AF-F4283B991C1A";
shapes = (
{
closed = 1;
nodes = (
(464,280,o),
(356,272,o),
(311,394,c),
(280,468,o),
(327,535,o),
(358,601,cs),
(378,643,o),
(434,674,o),
(475,685,c),
(543,688,o),
(597,654,o),
(662,621,cs),
(738,583,o),
(762,564,o),
(752,487,c),
(745,376,o),
(723,151,o),
(727,46,cs),
(728,19,o),
(729,-16,o),
(708,-37,c),
(532,-139,o),
(623,251,o),
(575,281,c)
);
},
{
closed = 1;
nodes = (
(725,598,o),
(747,595,o),
(773,590,cs),
(794,586,o),
(819,577,o),
(823,558,cs),
(830,524,o),
(813,498,o),
(793,482,c),
(753,509,o),
(721,459,o),
(661,450,cs),
(648,448,o),
(632,449,o),
(623,459,cs),
(609,475,o),
(590,499,o),
(587,523,cs),
(585,541,o),
(592,560,o),
(603,575,cs),
(616,592,o),
(627,602,o),
(646,606,cs),
(672,612,o),
(699,594,o),
(715,585,c),
(715,583,o),
(717,578,o),
(714,575,c),
(707,578,o),
(698,573,o),
(698,585,c)
);
},
{
closed = 1;
nodes = (
(766.504,211.016,o),
(777.062,377.301,o),
(772.663,450.325,c),
(786.74,513.672,o),
(725.153,589.336,o),
(800.817,606.053,c),
(852.726,606.933,o),
(868.563,558.543,o),
(862.404,497.836,c),
(862.404,450.325,o),
(862.404,396.657,o),
(860.645,351.786,c),
(852.726,301.637,o),
(862.404,187.26,o),
(843.048,139.75,c),
(848.327,40.331,o),
(727.792,49.129,o),
(755.946,139.75,c)
);
},
{
closed = 1;
nodes = (
(698.838,542.208,o),
(638.522,569.169,o),
(575.496,584.061,c),
(524.573,611.896,o),
(444.897,578.077,o),
(449.961,646.043,c),
(461.236,690.741,o),
(506.855,692.433,o),
(557.349,672.648,c),
(597.125,660.488,o),
(643.16,647.421,o),
(680.251,634.373,c),
(722.249,615.501,o),
(769.254,637.762,o),
(804.525,609.96,c),
(913.132,578.871,o),
(852.941,454.673,o),
(756.026,515.7,c)
);
}
);
width = 1164;
}
);
unicode = 182;
}
{
glyphname = periodcentered;
rightMetricsKey = "=|";
layers = (
{
layerId = "6DC978D1-58EC-4728-9C90-896FC59D3452";
shapes = (
{
closed = 1;
nodes = (
(101,91,o),
(188,144,o),
(222,79,c),
(246,5,o),
(141,-77,o),
(79,-22,cs),
(53,1,o),
(36,24,o),
(67,52,c)
);
}
);
width = 276;
}
);
unicode = 183;
}
{
glyphname = cedilla;
rightMetricsKey = "=|";
layers = (
{
layerId = "8796DA50-D6B7-4313-95AF-F4283B991C1A";
shapes = (
{
closed = 1;
nodes = (
(429,-43,o),
(465,-71,o),
(510,-61,c),
(542,-54,o),
(615,-13,o),
(560,15,c),
(545,27,o),
(533,33,o),
(514,32,c),
(469,41,o),
(436,88,o),
(439,133,cs),
(441,171,o),
(487,180,o),
(501,212,c),
(524,282,o),
(608,260,o),
(622,197,c),
(627,159,o),
(598,142,o),
(642,115,c),
(667,94,o),
(687,67,o),
(699,38,c),
(742,-28,o),
(709,-84,o),
(649,-123,c),
(567,-178,o),
(459,-154,o),
(369,-138,c),
(270,-105,o),
(280,10,o),
(392,-25,c)
);
}
);
width = 1019;
}
);
unicode = 184;
}
{
glyphname = onesuperior;
rightMetricsKey = "=|";
layers = (
{
layerId = "6DC978D1-58EC-4728-9C90-896FC59D3452";
shapes = (
{
closed = 1;
nodes = (
(308.302,506.116,o),
(310.953,559.667,o),
(301.409,607.386,c),
(290.275,682.145,o),
(386.773,682.145,o),
(395.256,589.889,c),
(399.498,515.66,o),
(418.585,419.693,o),
(413.283,342.812,cs),
(407.981,270.174,o),
(324.739,299.335,o),
(320.497,369.323,c),
(316.785,392.652,o),
(318.906,430.297,o),
(316.255,457.867,c)
);
}
);
width = 715;
}
);
unicode = 185;
}
{
glyphname = guillemotright;
rightMetricsKey = "=|";
layers = (
{
layerId = "8796DA50-D6B7-4313-95AF-F4283B991C1A";
shapes = (
{
closed = 1;
nodes = (
(881,289,o),
(877,271,o),
(870,257,c),
(855,238,o),
(829,229,o),
(813,210,c),
(800,198,o),
(786,186,o),
(776,172,c),
(768,150,o),
(754,130,o),
(733,119,c),
(688,83,o),
(643,110,o),
(628,161,c),
(615,202,o),
(639,218,o),
(672,235,c),
(693,239,o),
(716,253,o),
(722,274,c),
(723,291,o),
(691,297,o),
(679,305,c),
(646,314,o),
(614,333,o),
(602,367,c),
(581,409,o),
(606,444,o),
(652,432,c),
(702,402,o),
(749,358,o),
(810,349,c),
(837,346,o),
(854,320,o),
(870,301,cs)
);
},
{
closed = 1;
nodes = (
(587,289,o),
(583,271,o),
(576,257,c),
(561,238,o),
(535,229,o),
(519,210,c),
(506,198,o),
(492,186,o),
(482,172,c),
(474,150,o),
(460,130,o),
(439,119,c),
(394,83,o),
(349,110,o),
(334,161,c),
(321,202,o),
(345,218,o),
(378,235,c),
(399,239,o),
(422,253,o),
(428,274,c),
(429,291,o),
(397,297,o),
(385,305,c),
(352,314,o),
(320,333,o),
(308,367,c),
(287,409,o),
(312,444,o),
(358,432,c),
(408,402,o),
(455,358,o),
(516,349,c),
(543,346,o),
(560,320,o),
(576,301,cs)
);
}
);
width = 1177;
}
);
unicode = 187;
}
{
glyphname = questiondown;
rightMetricsKey = "=|";
layers = (
{
layerId = "8796DA50-D6B7-4313-95AF-F4283B991C1A";
shapes = (
{
closed = 1;
nodes = (
(358,92,o),
(469,58,o),
(533,81,cs),
(571,95,o),
(607,137,o),
(646,120,c),
(731,74,o),
(629,-18,o),
(569,-31,c),
(438,-68,o),
(226,46,o),
(326,194,c),
(352,227,o),
(400,252,o),
(425,285,c),
(469,336,o),
(492,402,o),
(536,449,c),
(595,496,o),
(650,412,o),
(631,356,cs),
(620,321,o),
(581,299,o),
(558,267,cs),
(527,226,o),
(492,187,o),
(452,158,cs)
);
},
{
closed = 1;
nodes = (
(411,723,o),
(552,749,o),
(571,638,c),
(582,565,o),
(494,562,o),
(461,611,c)
);
}
);
width = 979;
}
);
unicode = 191;
}
{
glyphname = multiply;
rightMetricsKey = "=|";
layers = (
{
layerId = "8796DA50-D6B7-4313-95AF-F4283B991C1A";
shapes = (
{
closed = 1;
nodes = (
(416,177,o),
(404,-9,o),
(327,76,c),
(311,121,o),
(352,166,o),
(373,203,c),
(448,268,o),
(355,327,o),
(311,374,c),
(289,396,o),
(302,440,o),
(335,442,c),
(385,446,o),
(441,309,o),
(477,353,c),
(505,389,o),
(563,487,o),
(611,432,c),
(621,416,o),
(616,398,o),
(606,385,cs),
(526,288,o),
(485,260,o),
(615,187,c),
(642,166,o),
(667,142,o),
(680,112,c),
(704,73,o),
(653,48,o),
(622,71,c),
(576,111,o),
(532,160,o),
(475,186,c)
);
}
);
width = 987;
}
);
unicode = 215;
}
{
glyphname = divide;
rightMetricsKey = "=|";
layers = (
{
layerId = "8796DA50-D6B7-4313-95AF-F4283B991C1A";
shapes = (
{
closed = 1;
nodes = (
(702,336,o),
(749,298,o),
(757,256,c),
(764,230,o),
(766,202,o),
(738,188,c),
(714,167,o),
(683,184,o),
(656,182,c),
(610,183,o),
(564,186,o),
(518,181,c),
(464,179,o),
(386,163,o),
(340,186,c),
(311,207,o),
(289,253,o),
(306,287,c),
(336,318,o),
(390,294,o),
(427,299,c),
(488,300,o),
(537,304,o),
(595,307,c),
(616,307,o),
(639,308,o),
(658,318,c)
);
},
{
closed = 1;
nodes = (
(482,113,o),
(569,166,o),
(603,101,c),
(627,27,o),
(522,-55,o),
(460,0,cs),
(434,23,o),
(417,46,o),
(448,74,c)
);
},
{
closed = 1;
nodes = (
(440,426,o),
(497,493,o),
(537,489,c),
(576,482,o),
(610,440,o),
(607,400,c),
(606,335,o),
(468,339,o),
(450,387,c)
);
}
);
width = 1062;
}
);
unicode = 247;
}
{
glyphname = dotlessi;
rightMetricsKey = "=|";
layers = (
{
layerId = "8796DA50-D6B7-4313-95AF-F4283B991C1A";
shapes = (
{
closed = 1;
nodes = (
(319,199,o),
(332,282,o),
(327,365,c),
(343,437,o),
(273,523,o),
(359,542,c),
(418,543,o),
(436,488,o),
(429,419,c),
(429,365,o),
(429,304,o),
(427,253,c),
(418,196,o),
(463,146,o),
(441,92,c),
(440,-53,o),
(267,-23,o),
(307,118,c)
);
}
);
width = 748;
}
);
unicode = 305;
}
{
glyphname = florin;
rightMetricsKey = "=|";
layers = (
{
layerId = "8796DA50-D6B7-4313-95AF-F4283B991C1A";
shapes = (
{
closed = 1;
nodes = (
(558,506,o),
(530,447,o),
(559,421,cs),
(577,406,o),
(607,408,o),
(630,395,cs),
(663,376,o),
(648,340,o),
(618,325,c),
(596,311,o),
(549,317,o),
(533,305,c),
(500,222,o),
(530,113,o),
(477,35,c),
(452,7,o),
(396,0,o),
(378,39,c),
(371,107,o),
(392,180,o),
(396,247,c),
(399,273,o),
(407,304,o),
(395,328,c),
(375,359,o),
(295,349,o),
(301,402,c),
(308,438,o),
(356,451,o),
(390,452,c),
(418,451,o),
(418,481,o),
(422,502,c),
(437,542,o),
(455,581,o),
(491,605,c),
(658,700,o),
(799,498,o),
(585,521,c)
);
}
);
width = 994;
}
);
unicode = 402;
}
{
glyphname = circumflex;
rightMetricsKey = "=|";
layers = (
{
layerId = "6DC978D1-58EC-4728-9C90-896FC59D3452";
shapes = (
{
closed = 1;
nodes = (
(556.255,440.375,o),
(591.866,414.483,o),
(615.735,380.452,c),
(631.113,347.586,o),
(607.836,311.006,o),
(570.111,317.555,c),
(531.387,320.609,o),
(508.39,354.317,o),
(480.633,377.594,cs),
(417.1,430.593,o),
(439.741,288.95,o),
(328.963,336.462,c),
(253.413,381.919,o),
(346.879,441.753,o),
(380.802,480.038,c),
(429.208,538.137,o),
(492.454,547.209,o),
(532.7,474.984,c)
);
}
);
width = 921;
}
);
unicode = 710;
}
{
glyphname = caron;
rightMetricsKey = "=|";
layers = (
{
layerId = "8796DA50-D6B7-4313-95AF-F4283B991C1A";
shapes = (
{
closed = 1;
nodes = (
(382.852,394.894,o),
(342.531,411.825,o),
(311.689,439.617,c),
(289.113,468.311,o),
(303.41,509.013,o),
(341.722,511.268,c),
(379.857,517.059,o),
(410.121,489.58,o),
(442.519,473.207,cs),
(516.58,436.035,o),
(462.463,568.724,o),
(580.878,547.431,c),
(664.683,520.229,o),
(587.328,440.74,o),
(562.896,395.963,c),
(528.877,328.268,o),
(469.285,305.249,o),
(413.958,366.211,c)
);
}
);
width = 919;
}
);
unicode = 711;
}
{
glyphname = breve;
rightMetricsKey = "=|";
layers = (
{
layerId = "6DC978D1-58EC-4728-9C90-896FC59D3452";
shapes = (
{
closed = 1;
nodes = (
(527.518,650.048,o),
(546.993,595.443,o),
(524.207,580.924,c),
(458.786,561.273,o),
(360.803,548.302,o),
(307.55,599.028,c),
(280.943,665.722,o),
(330.062,647.383,o),
(376.536,638.155,c),
(421.051,630.004,o),
(460.589,637.861,o),
(504.496,649.95,c)
);
}
);
width = 835;
}
);
unicode = 728;
}
{
glyphname = dotaccent;
rightMetricsKey = "=|";
layers = (
{
layerId = "8796DA50-D6B7-4313-95AF-F4283B991C1A";
shapes = (
{
closed = 1;
nodes = (
(350.883,600.598,o),
(281.112,630.081,o),
(305.571,678.83,c),
(339.804,725.453,o),
(434.893,697.704,o),
(428.63,636.4,cs),
(426.043,610.721,o),
(419.546,590.472,o),
(389.185,597.018,c)
);
}
);
width = 729;
}
);
unicode = 729;
}
{
glyphname = ogonek;
rightMetricsKey = "=|";
layers = (
{
layerId = "6DC978D1-58EC-4728-9C90-896FC59D3452";
shapes = (
{
closed = 1;
nodes = (
(307.393,8.313,o),
(312.283,24.109,o),
(301.376,107.976,cs),
(292.726,182.441,o),
(388.628,174.92,o),
(418.715,125.652,c),
(447.298,91.052,o),
(418.715,30.502,o),
(467.607,11.698,c),
(599.237,-46.596,o),
(502.959,-162.807,o),
(368.696,-57.502,c)
);
},
{
alignment = -1;
pos = (301,-100);
ref = space;
scale = (0.376,0.376);
}
);
width = 831;
}
);
unicode = 731;
}
{
glyphname = tilde;
rightMetricsKey = "=|";
layers = (
{
layerId = "6DC978D1-58EC-4728-9C90-896FC59D3452";
shapes = (
{
closed = 1;
nodes = (
(497,631,o),
(547,602,o),
(554,570,c),
(567,531,o),
(537,500,o),
(500,488,c),
(458,474,o),
(396,540,o),
(383,470,c),
(361,405,o),
(285,464,o),
(304,513,c),
(315,576,o),
(348,585,o),
(404,594,cs),
(417,596,o),
(462,559,o),
(480,596,cs)
);
}
);
width = 858;
}
);
unicode = 732;
}
{
glyphname = mu;
rightMetricsKey = "=|";
layers = (
{
layerId = "8796DA50-D6B7-4313-95AF-F4283B991C1A";
shapes = (
{
closed = 1;
nodes = (
(521,416,o),
(527,396,o),
(529,370,c),
(537,343,o),
(547,311,o),
(568,291,c),
(599,268,o),
(638,301,o),
(647,332,c),
(656,358,o),
(665,385,o),
(663,412,c),
(664,439,o),
(649,467,o),
(666,491,cs),
(684,516,o),
(714,530,o),
(744,530,cs),
(826,529,o),
(863,427,o),
(836,359,c),
(825,336,o),
(803,321,o),
(792,298,cs),
(774,259,o),
(766,213,o),
(735,182,c),
(712,155,o),
(677,150,o),
(644,144,c),
(581,130,o),
(543,135,o),
(487,168,cs),
(456,187,o),
(455,164,o),
(453,140,c),
(448,97,o),
(451,54,o),
(451,11,cs),
(451,-31,o),
(473,-76,o),
(453,-116,c),
(434,-139,o),
(407,-170,o),
(375,-160,c),
(352,-151,o),
(331,-126,o),
(314,-107,c),
(288,-74,o),
(308,-33,o),
(309,4,cs),
(311,99,o),
(320,194,o),
(321,289,cs),
(321,314,o),
(321,339,o),
(319,363,c),
(313,393,o),
(299,413,o),
(317,442,cs),
(348,495,o),
(475,487,o),
(506,436,c)
);
}
);
width = 1145;
}
);
unicode = 956;
}
{
glyphname = endash;
rightMetricsKey = "=|";
layers = (
{
layerId = "8796DA50-D6B7-4313-95AF-F4283B991C1A";
shapes = (
{
closed = 1;
nodes = (
(702,336,o),
(749,298,o),
(757,256,c),
(764,230,o),
(766,202,o),
(738,188,c),
(714,167,o),
(683,184,o),
(656,182,c),
(610,183,o),
(564,186,o),
(518,181,c),
(464,179,o),
(386,163,o),
(340,186,c),
(311,207,o),
(289,253,o),
(306,287,c),
(336,318,o),
(390,294,o),
(427,299,c),
(488,300,o),
(537,304,o),
(595,307,c),
(616,307,o),
(639,308,o),
(658,318,c)
);
}
);
width = 1062;
}
);
unicode = 8211;
}
{
glyphname = emdash;
rightMetricsKey = "=|";
layers = (
{
layerId = "6DC978D1-58EC-4728-9C90-896FC59D3452";
shapes = (
{
closed = 1;
nodes = (
(1184,388,o),
(1242,350,o),
(1251,308,c),
(1261,282,o),
(1263,253,o),
(1228,240,c),
(1198,218,o),
(1161,236,o),
(1127,233,c),
(1070,234,o),
(792,227,o),
(735,223,c),
(668,220,o),
(408,204,o),
(350,227,c),
(314,249,o),
(287,295,o),
(308,329,c),
(345,360,o),
(412,336,o),
(459,341,c),
(533,342,o),
(978,356,o),
(1051,359,c),
(1077,359,o),
(1106,360,o),
(1129,370,c)
);
}
);
width = 1558;
}
);
unicode = 8212;
}
{
glyphname = quoteleft;
layers = (
{
guides = (
{
position = "{0, 129}";
}
);
layerId = "6DC978D1-58EC-4728-9C90-896FC59D3452";
shapes = (
{
closed = 1;
nodes = (
(444.687,692.298,o),
(432.576,708.025,o),
(420.769,711.714,c),
(351.696,729.739,o),
(354.521,657.455,o),
(329.435,604.817,c),
(304.422,536.149,o),
(263.566,453.373,o),
(372.774,471.087,c),
(408.409,481.043,o),
(389.569,536.225,o),
(400.404,567.651,cs),
(417.041,612.764,o),
(426.3,634.265,o),
(441.056,681.49,cs)
);
}
);
width = 492;
}
);
unicode = 8216;
}
{
glyphname = quoteright;
layers = (
{
layerId = "8796DA50-D6B7-4313-95AF-F4283B991C1A";
shapes = (
{
closed = 1;
nodes = (
(74.757,553.751,o),
(84.243,574.123,o),
(105.386,618.372,cs),
(119.236,647.168,o),
(108.038,704.61,o),
(143.491,711.173,c),
(253.87,715.246,o),
(203.958,637.465,o),
(171.198,572.168,c),
(138.681,523.839,o),
(133.383,450.369,o),
(67.287,476.776,cs),
(55.339,481.898,o),
(48.512,498.968,o),
(51.502,510.24,c)
);
}
);
width = 512;
}
);
unicode = 8217;
}
{
glyphname = quotesinglbase;
rightMetricsKey = "=|";
layers = (
{
layerId = "8796DA50-D6B7-4313-95AF-F4283B991C1A";
shapes = (
{
closed = 1;
nodes = (
(324,-57,o),
(334,-36,o),
(355,8,cs),
(369,37,o),
(357,94,o),
(393,101,c),
(503,105,o),
(453,27,o),
(420,-38,c),
(388,-87,o),
(383,-160,o),
(317,-134,cs),
(305,-128,o),
(298,-111,o),
(301,-100,c)
);
}
);
width = 761;
}
);
unicode = 8218;
}
{
glyphname = quotedblbase;
rightMetricsKey = "=|";
layers = (
{
layerId = "6DC978D1-58EC-4728-9C90-896FC59D3452";
shapes = (
{
closed = 1;
nodes = (
(324.04,-56.625,o),
(333.526,-36.253,o),
(354.67,7.996,cs),
(368.519,36.791,o),
(357.322,94.233,o),
(392.775,100.796,c),
(503.154,104.869,o),
(453.242,27.089,o),
(420.481,-38.209,c),
(387.964,-86.537,o),
(382.667,-160.008,o),
(316.571,-133.601,cs),
(304.622,-128.479,o),
(297.796,-111.409,o),
(300.786,-100.137,c)
);
},
{
closed = 1;
nodes = (
(466.882,-57.261,o),
(476.367,-36.889,o),
(497.511,7.36,cs),
(511.361,36.155,o),
(500.163,93.597,o),
(535.616,100.16,c),
(645.995,104.233,o),
(596.083,26.453,o),
(563.322,-38.845,c),
(530.806,-87.173,o),
(525.508,-160.644,o),
(459.412,-134.237,cs),
(447.464,-129.115,o),
(440.637,-112.045,o),
(443.627,-100.773,c)
);
}
);
width = 904;
}
);
unicode = 8222;
}
{
glyphname = dagger;
rightMetricsKey = "=|";
layers = (
{
layerId = "8796DA50-D6B7-4313-95AF-F4283B991C1A";
shapes = (
{
closed = 1;
nodes = (
(532,8,o),
(507,53,o),
(513,105,c),
(512,190,o),
(496,276,o),
(478,356,c),
(417,359,o),
(334,347,o),
(302,418,c),
(290,482,o),
(370,495,o),
(416,483,cs),
(567,444,o),
(334,771,o),
(573,686,c),
(630,663,o),
(591,595,o),
(601,551,c),
(609,510,o),
(659,572,o),
(689,557,c),
(743,554,o),
(805,489,o),
(754,443,c),
(716,398,o),
(600,439,o),
(617,352,c),
(608,260,o),
(764,-19,o),
(587,1,cs)
);
}
);
width = 1073;
}
);
unicode = 8224;
}
{
glyphname = daggerdbl;
rightMetricsKey = "=|";
layers = (
{
layerId = "6DC978D1-58EC-4728-9C90-896FC59D3452";
shapes = (
{
closed = 1;
nodes = (
(426,542,o),
(432,541,o),
(427,575,c),
(434,614,o),
(389,670,o),
(428,696,c),
(577,730,o),
(477,523,o),
(551,557,cs),
(597,579,o),
(682,572,o),
(670,504,c),
(667,483,o),
(671,474,o),
(649,464,c),
(615,426,o),
(510,500,o),
(529,409,c),
(531,359,o),
(516,319,o),
(579,360,c),
(636,373,o),
(703,312,o),
(652,262,c),
(621,227,o),
(538,274,o),
(525,222,c),
(527,168,o),
(512,115,o),
(525,61,c),
(529,-28,o),
(429,-10,o),
(404,53,c),
(401,89,o),
(419,127,o),
(418,164,c),
(424,218,o),
(429,224,o),
(372,214,c),
(288,223,o),
(266,327,o),
(369,324,c),
(435,306,o),
(431,326,o),
(427,385,c),
(425,401,o),
(434,428,o),
(413,433,c),
(340,438,o),
(289,563,o),
(395,553,c)
);
}
);
width = 972;
}
);
unicode = 8225;
}
{
glyphname = bullet;
rightMetricsKey = "=|";
layers = (
{
layerId = "8796DA50-D6B7-4313-95AF-F4283B991C1A";
shapes = (
{
closed = 1;
nodes = (
(335,43,o),
(326,44,o),
(315,43,c),
(306,40,o),
(297,38,o),
(287,38,c),
(282,36,o),
(276,37,o),
(271,38,c),
(250,37,o),
(227,36,o),
(206,39,c),
(181,37,o),
(158,31,o),
(133,34,c),
(120,27,o),
(106,35,o),
(92,35,cs),
(86,35,o),
(79,35,o),
(75,39,c),
(69,48,o),
(88,47,o),
(93,50,c),
(106,51,o),
(119,55,o),
(132,54,c),
(151,50,o),
(169,53,o),
(189,55,c),
(197,54,o),
(207,53,o),
(215,54,cs),
(233,56,o),
(248,59,o),
(264,56,c),
(275,56,o),
(285,62,o),
(294,63,c),
(305,60,o),
(315,59,o),
(326,57,cs),
(331,56,o),
(345,61,o),
(342,52,c)
);
},
{
closed = 1;
nodes = (
(215,444,o),
(237,443,o),
(259,441,cs),
(267,440,o),
(275,446,o),
(282,443,c),
(291,441,o),
(300,443,o),
(308,439,cs),
(316,435,o),
(326,445,o),
(334,441,c),
(340,435,o),
(333,426,o),
(333,418,c),
(332,409,o),
(335,398,o),
(334,389,c),
(338,362,o),
(322,368,o),
(331,335,c),
(335,310,o),
(338,284,o),
(339,259,c),
(337,241,o),
(335,222,o),
(331,203,c),
(328,179,o),
(326,153,o),
(326,127,c),
(328,113,o),
(319,100,o),
(305,97,c),
(279,94,o),
(255,96,o),
(229,89,c),
(213,80,o),
(193,86,o),
(176,83,cs),
(164,81,o),
(147,76,o),
(140,88,c),
(134,134,o),
(142,183,o),
(144,230,c),
(150,247,o),
(151,257,o),
(148,275,c),
(148,296,o),
(166,311,o),
(156,335,c),
(157,347,o),
(151,360,o),
(152,373,c),
(154,380,o),
(154,387,o),
(155,394,cs),
(159,421,o),
(163,436,o),
(192,440,cs)
);
},
{
closed = 1;
nodes = (
(246,656,o),
(253,658,o),
(256,656,cs),
(259,653,o),
(253,635,o),
(249,636,c),
(245,639,o),
(244,647,o),
(245,652,cs)
);
},
{
closed = 1;
nodes = (
(306,587,o),
(307,592,o),
(311,592,c),
(312,590,o),
(311,580,o),
(311,578,c),
(308,577,o),
(306,581,o),
(306,583,cs)
);
},
{
closed = 1;
nodes = (
(312,498,o),
(317,490,o),
(322,489,c),
(330,485,o),
(337,478,o),
(324,479,c),
(317,479,o),
(309,476,o),
(309,485,cs),
(309,488,o),
(306,493,o),
(308,495,cs)
);
},
{
closed = 1;
nodes = (
(388,92,o),
(362,78,o),
(354,94,cs),
(350,102,o),
(353,109,o),
(354,118,c),
(348,136,o),
(350,144,o),
(352,162,c),
(357,194,o),
(367,230,o),
(363,264,cs),
(359,298,o),
(358,332,o),
(359,367,c),
(358,392,o),
(364,412,o),
(369,436,c),
(366,467,o),
(361,495,o),
(351,524,c),
(341,561,o),
(334,597,o),
(322,633,c),
(323,639,o),
(324,644,o),
(321,650,c),
(316,687,o),
(301,681,o),
(273,696,c),
(267,703,o),
(259,699,o),
(252,695,c),
(242,693,o),
(230,699,o),
(220,694,c),
(215,687,o),
(209,681,o),
(205,673,cs),
(203,668,o),
(203,662,o),
(199,659,cs),
(195,656,o),
(191,653,o),
(190,647,cs),
(187,630,o),
(173,623,o),
(166,609,cs),
(163,603,o),
(162,596,o),
(159,590,cs),
(156,585,o),
(150,582,o),
(148,577,cs),
(136,547,o),
(124,513,o),
(132,482,c),
(136,455,o),
(123,428,o),
(129,402,c),
(139,371,o),
(122,341,o),
(125,311,cs),
(126,302,o),
(123,292,o),
(127,283,c),
(129,276,o),
(123,271,o),
(123,265,c),
(127,253,o),
(124,242,o),
(122,229,cs),
(118,194,o),
(119,157,o),
(119,122,cs),
(119,113,o),
(114,105,o),
(110,98,c),
(109,91,o),
(117,80,o),
(106,80,c),
(98,79,o),
(92,82,o),
(85,83,c),
(76,82,o),
(67,78,o),
(60,73,c),
(53,66,o),
(60,52,o),
(51,46,c),
(45,38,o),
(30,31,o),
(38,21,cs),
(41,16,o),
(41,9,o),
(46,7,c),
(62,6,o),
(78,6,o),
(93,1,cs),
(100,-2,o),
(105,3,o),
(112,4,c),
(122,4,o),
(131,3,o),
(140,2,c),
(153,5,o),
(167,4,o),
(179,8,c),
(196,5,o),
(212,10,o),
(228,7,c),
(239,9,o),
(249,5,o),
(259,5,c),
(272,6,o),
(285,9,o),
(297,10,c),
(313,9,o),
(331,5,o),
(342,19,cs),
(347,25,o),
(352,22,o),
(358,22,c),
(360,23,o),
(363,26,o),
(366,28,cs),
(371,31,o),
(377,31,o),
(381,35,cs),
(395,48,o),
(409,54,o),
(397,75,cs)
);
},
{
closed = 1;
nodes = (
(159,464,o),
(159,464,o),
(159,464,c),
(159,464,o),
(159,464,o),
(159,464,c)
);
},
{
closed = 1;
nodes = (
(159,465,o),
(159,465,o),
(159,465,c),
(159,465,o),
(159,465,o),
(159,464,c)
);
},
{
closed = 1;
nodes = (
(159,465,o),
(159,465,o),
(159,465,c),
(159,465,o),
(159,465,o),
(160,465,c)
);
},
{
closed = 1;
nodes = (
(160,465,o),
(160,465,o),
(160,465,c),
(160,465,o),
(160,465,o),
(161,465,c),
(160,465,o),
(160,465,o),
(160,465,c)
);
},
{
closed = 1;
nodes = (
(164,466,o),
(164,466,o),
(164,466,c),
(164,466,o),
(164,466,o),
(164,466,c)
);
},
{
closed = 1;
nodes = (
(163,466,o),
(163,466,o),
(163,466,c),
(163,466,o),
(163,466,o),
(162,466,c)
);
},
{
closed = 1;
nodes = (
(166,466,o),
(166,466,o),
(165,466,c),
(166,466,o),
(166,466,o),
(166,466,c)
);
},
{
closed = 1;
nodes = (
(165,466,o),
(165,466,o),
(165,466,c),
(165,466,o),
(165,466,o),
(165,466,c)
);
},
{
closed = 1;
nodes = (
(166,466,o),
(166,466,o),
(166,466,c),
(166,466,o),
(166,466,o),
(166,466,c)
);
},
{
closed = 1;
nodes = (
(167,465,o),
(167,465,o),
(167,465,c),
(167,465,o),
(167,465,o),
(167,465,c)
);
},
{
closed = 1;
nodes = (
(162,460,o),
(162,460,o),
(162,460,c),
(162,460,o),
(162,460,o),
(162,460,c)
);
},
{
closed = 1;
nodes = (
(159,464,o),
(159,464,o),
(159,464,c),
(159,464,o),
(159,464,o),
(159,464,c),
(159,464,o),
(159,464,o),
(159,464,c)
);
},
{
closed = 1;
nodes = (
(161,466,o),
(162,466,o),
(162,466,c),
(162,466,o),
(161,466,o),
(161,465,c)
);
}
);
width = 437;
}
);
unicode = 8226;
}
{
glyphname = ellipsis;
rightMetricsKey = "=|";
layers = (
{
layerId = "8796DA50-D6B7-4313-95AF-F4283B991C1A";
shapes = (
{
closed = 1;
nodes = (
(1082,-29,o),
(1056,75,o),
(1106,106,c),
(1266,124,o),
(1231,-49,o),
(1138,-45,c)
);
},
{
closed = 1;
nodes = (
(692,43,o),
(749,110,o),
(789,106,c),
(828,99,o),
(862,57,o),
(859,17,c),
(858,-48,o),
(720,-44,o),
(702,4,c)
);
},
{
alignment = -1;
pos = (250,0);
ref = period;
}
);
width = 1517;
}
);
unicode = 8230;
}
{
glyphname = perthousand;
rightMetricsKey = "=|";
layers = (
{
layerId = "6DC978D1-58EC-4728-9C90-896FC59D3452";
shapes = (
{
closed = 1;
nodes = (
(422,697,o),
(332,524,o),
(403,486,c),
(464,461,o),
(486,539,o),
(470,585,c)
);
},
{
closed = 1;
nodes = (
(609,545,o),
(498,335,o),
(352,442,cs),
(287,489,o),
(288,587,o),
(333,641,cs),
(372,686,o),
(453,709,o),
(502,657,cs)
);
},
{
closed = 1;
nodes = (
(789,323,o),
(699,150,o),
(770,112,c),
(831,87,o),
(853,165,o),
(837,211,c)
);
},
{
closed = 1;
nodes = (
(976,171,o),
(865,-39,o),
(719,68,cs),
(654,115,o),
(655,213,o),
(700,267,cs),
(739,312,o),
(820,335,o),
(869,283,cs)
);
},
{
closed = 1;
nodes = (
(1021,314,o),
(936,161,o),
(1003,128,c),
(1071,77,o),
(1093,155,o),
(1067,215,c)
);
},
{
closed = 1;
nodes = (
(1198,180,o),
(1093,-6,o),
(955,89,cs),
(894,130,o),
(894,218,o),
(937,265,cs),
(973,306,o),
(1051,325,o),
(1097,279,cs)
);
},
{
alignment = -1;
pos = (203,23);
ref = slash;
scale = (0.832,1.);
}
);
width = 1438;
}
);
unicode = 8240;
}
{
glyphname = guilsinglleft;
rightMetricsKey = "=|";
layers = (
{
layerId = "8796DA50-D6B7-4313-95AF-F4283B991C1A";
shapes = (
{
closed = 1;
nodes = (
(428,338,o),
(464,369,o),
(505,389,c),
(534,394,o),
(555,358,o),
(557,333,c),
(551,293,o),
(496,293,o),
(471,267,c),
(442,250,o),
(491,240,o),
(502,232,c),
(521,221,o),
(544,219,o),
(562,209,c),
(576,197,o),
(599,172,o),
(598,152,cs),
(596,107,o),
(547,104,o),
(518,129,c),
(502,149,o),
(482,157,o),
(461,167,c),
(426,185,o),
(388,198,o),
(349,196,c),
(326,199,o),
(313,221,o),
(307,241,c),
(299,256,o),
(298,271,o),
(305,286,c),
(311,304,o),
(335,304,o),
(350,311,c),
(362,316,o),
(372,321,o),
(384,324,c)
);
}
);
width = 899;
}
);
unicode = 8249;
}
{
glyphname = fraction;
rightMetricsKey = "=|";
layers = (
{
layerId = "8796DA50-D6B7-4313-95AF-F4283B991C1A";
shapes = (
{
closed = 1;
nodes = (
(593.507,569.483,o),
(640.88,494.598,o),
(618.587,437.333,c),
(568.427,337.781,o),
(502.477,226.775,o),
(458.82,129.865,c),
(388.226,-37.524,o),
(220.1,63.791,o),
(345.498,198.583,c),
(417.021,295.493,o),
(435.599,435.571,o),
(529.415,519.266,c)
);
}
);
width = 925;
}
);
unicode = 8260;
}
{
glyphname = Euro;
rightMetricsKey = "=|";
layers = (
{
layerId = "6DC978D1-58EC-4728-9C90-896FC59D3452";
shapes = (
{
closed = 1;
nodes = (
(860,624,o),
(899,533,o),
(775,543,c),
(615,551,o),
(547,399,o),
(532,355,cs),
(452,123,o),
(952,338,o),
(920,217,cs),
(891,109,o),
(527,73,o),
(403,174,cs),
(241,306,o),
(641,722,o),
(812,646,cs)
);
},
{
closed = 1;
nodes = (
(766,455,o),
(716,394,o),
(678,386,c),
(607,376,o),
(448,371,o),
(381,359,c),
(266,337,o),
(281,460,o),
(396,448,c),
(473,446,o),
(639,484,o),
(716,469,c)
);
},
{
closed = 1;
nodes = (
(677,330,o),
(638,271,o),
(606,264,c),
(548,253,o),
(419,248,o),
(364,238,c),
(271,216,o),
(283,334,o),
(377,323,c),
(439,321,o),
(575,358,o),
(638,343,c)
);
}
);
width = 1222;
}
);
unicode = 8364;
}
{
glyphname = minus;
rightMetricsKey = "=|";
layers = (
{
layerId = "6DC978D1-58EC-4728-9C90-896FC59D3452";
shapes = (
{
closed = 1;
nodes = (
(702,336,o),
(749,298,o),
(757,256,c),
(764,230,o),
(766,202,o),
(738,188,c),
(714,167,o),
(683,184,o),
(656,182,c),
(610,183,o),
(564,186,o),
(518,181,c),
(464,179,o),
(386,163,o),
(340,186,c),
(311,207,o),
(289,253,o),
(306,287,c),
(336,318,o),
(390,294,o),
(427,299,c),
(488,300,o),
(537,304,o),
(595,307,c),
(616,307,o),
(639,308,o),
(658,318,c)
);
}
);
width = 1062;
}
);
unicode = 8722;
}
{
glyphname = EXCELLENCE;
rightMetricsKey = "=|";
layers = (
{
layerId = "8796DA50-D6B7-4313-95AF-F4283B991C1A";
shapes = (
{
closed = 1;
nodes = (
(341,415,o),
(342,393,o),
(342,368,c),
(378,377,o),
(415,376,o),
(448,390,cs),
(460,395,o),
(470,391,o),
(474,381,cs),
(479,371,o),
(475,359,o),
(464,354,cs),
(451,349,o),
(437,345,o),
(423,342,cs),
(403,338,o),
(384,336,o),
(365,333,cs),
(361,332,o),
(358,331,o),
(354,329,cs),
(350,328,o),
(347,325,o),
(348,320,c),
(349,294,o),
(350,268,o),
(351,243,c),
(351,241,o),
(351,240,o),
(351,238,c),
(366,238,o),
(380,237,o),
(394,238,cs),
(412,239,o),
(431,242,o),
(450,243,cs),
(459,244,o),
(469,242,o),
(477,241,cs),
(489,239,o),
(496,229,o),
(496,220,c),
(495,209,o),
(487,202,o),
(475,200,c),
(470,200,l),
(446,204,o),
(421,198,o),
(396,198,c),
(382,197,o),
(367,197,o),
(353,196,c),
(348,196,o),
(343,193,o),
(339,192,c),
(329,187,o),
(321,187,o),
(314,193,cs),
(308,199,o),
(305,209,o),
(308,218,c),
(309,224,o),
(311,232,o),
(311,238,cs),
(311,254,o),
(311,272,o),
(310,288,cs),
(307,336,o),
(301,383,o),
(300,431,c),
(300,435,o),
(299,438,o),
(297,442,cs),
(290,456,o),
(295,469,o),
(309,473,cs),
(328,478,o),
(347,481,o),
(367,485,c),
(381,486,o),
(395,487,o),
(409,487,cs),
(417,487,o),
(426,486,o),
(434,483,cs),
(446,479,o),
(450,467,o),
(445,455,cs),
(441,445,o),
(430,441,o),
(419,444,c),
(415,446,o),
(410,446,o),
(405,446,cs),
(394,446,o),
(382,445,o),
(370,444,c),
(360,444,o),
(351,442,o),
(340,441,c)
);
},
{
closed = 1;
nodes = (
(182,222,ls),
(182,189,o),
(181,194,o),
(205,179,c),
(208,176,o),
(212,175,o),
(216,172,cs),
(231,159,o),
(250,155,o),
(268,150,c),
(287,146,o),
(307,142,o),
(326,139,cs),
(343,136,o),
(360,134,o),
(377,128,cs),
(399,120,o),
(421,122,o),
(442,125,cs),
(451,127,o),
(460,128,o),
(468,129,cs),
(477,130,o),
(485,133,o),
(491,139,cs),
(526,172,o),
(550,211,o),
(559,259,cs),
(560,267,o),
(562,276,o),
(564,284,c),
(568,312,o),
(573,340,o),
(572,369,cs),
(571,385,o),
(567,400,o),
(560,414,cs),
(542,450,o),
(517,480,o),
(492,510,cs),
(489,514,o),
(483,517,o),
(478,520,cs),
(462,528,o),
(444,530,o),
(426,533,cs),
(415,535,o),
(403,537,o),
(391,535,c),
(370,533,o),
(350,528,o),
(329,524,c),
(301,517,o),
(276,506,o),
(256,483,cs),
(240,463,o),
(230,441,o),
(225,417,cs),
(220,391,o),
(212,366,o),
(200,343,c),
(199,339,o),
(196,335,o),
(196,331,c),
(190,298,o),
(182,264,o),
(182,229,cs)
);
},
{
closed = 1;
nodes = (
(429,67,o),
(430,54,o),
(430,41,cs),
(430,35,o),
(431,30,o),
(431,24,c),
(430,10,o),
(422,0,o),
(410,1,cs),
(399,2,o),
(390,12,o),
(390,25,cs),
(390,42,o),
(389,59,o),
(388,77,c),
(388,79,o),
(387,81,o),
(387,85,c),
(366,89,o),
(345,95,o),
(324,99,cs),
(303,103,o),
(283,107,o),
(263,111,c),
(242,117,o),
(219,121,o),
(200,135,cs),
(186,146,o),
(171,154,o),
(157,165,cs),
(147,172,o),
(143,182,o),
(142,193,cs),
(140,219,o),
(142,245,o),
(144,270,c),
(145,274,o),
(145,277,o),
(146,283,c),
(124,280,o),
(103,282,o),
(82,274,cs),
(78,272,o),
(73,271,o),
(69,271,c),
(60,272,o),
(52,278,o),
(51,287,cs),
(49,296,o),
(53,306,o),
(63,309,cs),
(77,313,o),
(91,316,o),
(106,319,cs),
(121,321,o),
(137,322,o),
(151,324,c),
(159,343,o),
(166,360,o),
(173,378,cs),
(178,393,o),
(182,410,o),
(186,425,cs),
(195,458,o),
(206,489,o),
(229,514,cs),
(234,519,o),
(239,524,o),
(245,528,cs),
(269,545,o),
(294,559,o),
(323,564,cs),
(335,566,o),
(347,569,o),
(359,572,c),
(359,610,ls),
(359,624,o),
(358,638,o),
(357,652,c),
(357,657,o),
(355,662,o),
(353,666,cs),
(347,677,o),
(348,687,o),
(356,693,cs),
(364,700,o),
(377,698,o),
(385,689,cs),
(394,680,o),
(397,667,o),
(398,654,cs),
(399,628,o),
(400,604,o),
(401,577,c),
(407,576,o),
(412,576,o),
(416,576,c),
(443,572,o),
(471,569,o),
(496,556,cs),
(504,551,o),
(514,546,o),
(520,540,cs),
(548,507,o),
(576,473,o),
(595,433,c),
(607,411,o),
(612,387,o),
(612,362,cs),
(612,344,l),
(630,347,o),
(647,350,o),
(663,354,cs),
(678,358,o),
(693,359,o),
(708,355,cs),
(722,351,o),
(729,337,o),
(724,325,cs),
(720,315,o),
(710,311,o),
(701,315,cs),
(690,319,o),
(681,318,o),
(670,314,cs),
(666,312,o),
(662,311,o),
(658,311,c),
(642,308,o),
(625,306,o),
(610,304,c),
(607,288,o),
(603,272,o),
(601,257,cs),
(594,212,o),
(574,173,o),
(546,138,cs),
(538,129,o),
(531,121,o),
(523,113,cs),
(510,100,o),
(494,93,o),
(475,90,c),
(458,89,o),
(444,86,o),
(429,83,c)
);
}
);
width = 776;
}
);
}
{
glyphname = Euro.ss01;
rightMetricsKey = "=|";
layers = (
{
layerId = "8796DA50-D6B7-4313-95AF-F4283B991C1A";
shapes = (
{
closed = 1;
nodes = (
(510.946,282.325,o),
(414.635,298.505,o),
(447.766,241.489,c),
(460.864,232.244,o),
(488.602,245.342,o),
(503.241,247.653,c),
(551.011,260.752,o),
(571.043,271.538,o),
(604.945,234.555,c),
(626.518,207.588,o),
(587.994,173.687,o),
(561.798,173.687,cs),
(531.749,172.916,o),
(510.946,173.687,o),
(480.897,162.9,c),
(473.963,155.195,o),
(494.766,145.95,o),
(498.618,145.179,c),
(536.372,145.179,ls),
(617.272,145.179,o),
(662.731,197.572,o),
(708.189,216.063,cs),
(742.091,229.162,o),
(772.91,204.506,o),
(775.992,169.835,c),
(766.746,62.737,o),
(498.618,31.148,o),
(428.504,97.409,c),
(408.472,110.507,o),
(393.062,145.179,o),
(373.029,149.802,c),
(340.669,144.409,o),
(300.604,172.146,o),
(309.85,208.359,c),
(311.391,219.916,o),
(312.932,228.391,o),
(319.49,232.764,cs),
(331.423,240.719,o),
(356.849,233.014,o),
(355.308,241.489,cs),
(344.521,288.489,o),
(355.308,347.046,o),
(360.702,372.472,cs),
(379.193,461.077,o),
(450.078,588.207,o),
(557.945,588.207,c),
(601.863,585.125,o),
(637.305,575.109,o),
(665.042,541.207,cs),
(705.878,491.896,ls),
(712.042,484.192,o),
(710.501,471.093,o),
(709.73,461.077,c),
(706.648,444.897,o),
(683.534,430.258,o),
(668.124,434.11,c),
(637.305,437.192,o),
(625.748,469.552,o),
(604.945,486.503,c),
(578.748,514.24,o),
(540.995,507.306,o),
(513.257,487.273,cs),
(498.618,477.257,o),
(471.651,434.881,o),
(465.487,425.635,c),
(440.061,375.553,o),
(431.586,350.898,o),
(500.159,368.619,c),
(527.896,371.701,o),
(555.634,376.324,o),
(584.142,379.406,c),
(606.486,383.258,o),
(621.125,367.078,o),
(631.912,350.128,c),
(643.469,337.029,o),
(639.616,316.997,o),
(628.83,305.44,c),
(611.879,284.636,o),
(556.404,278.473,o),
(530.978,283.096,c)
);
},
{
closed = 1;
nodes = (
(361.724,364.378,o),
(439.973,370.54,o),
(440.729,314.026,c),
(431.479,254.805,o),
(330.765,234.971,o),
(307.282,294.353,cs),
(297.411,319.211,o),
(293.728,340.937,o),
(324.781,349.399,c)
);
}
);
width = 1076;
}
);
}
{
glyphname = I_S_R_U;
rightMetricsKey = "=|";
layers = (
{
layerId = "6DC978D1-58EC-4728-9C90-896FC59D3452";
shapes = (
{
closed = 1;
nodes = (
(87,161,l),
(87,127,ls),
(87,117,o),
(90,107,o),
(100,104,c),
(124,87,o),
(151,84,o),
(181,80,c),
(242,80,o),
(306,80,o),
(367,73,c),
(410,73,o),
(451,70,o),
(495,73,c),
(528,73,o),
(559,84,o),
(592,90,c),
(639,97,o),
(683,90,o),
(727,77,c),
(754,67,o),
(781,57,o),
(808,57,c),
(878,50,o),
(949,43,o),
(1020,33,c),
(1060,26,o),
(1104,26,o),
(1145,33,c),
(1175,36,o),
(1205,43,o),
(1235,47,cs),
(1286,53,o),
(1337,53,o),
(1387,60,c),
(1421,63,o),
(1451,67,o),
(1485,63,c),
(1535,63,o),
(1589,57,o),
(1640,63,c),
(1663,63,o),
(1684,63,o),
(1704,53,c),
(1711,53,o),
(1721,50,o),
(1727,47,c),
(1754,40,o),
(1785,33,o),
(1812,50,cs),
(1818,53,o),
(1825,53,o),
(1835,53,cs),
(1845,53,o),
(1849,53,o),
(1849,63,c),
(1859,117,o),
(1875,171,o),
(1882,229,c),
(1892,296,o),
(1899,363,o),
(1882,431,c),
(1865,484,o),
(1855,542,o),
(1855,599,cs),
(1855,656,o),
(1849,633,o),
(1845,649,c),
(1845,656,o),
(1838,663,o),
(1832,660,c),
(1764,660,o),
(1697,660,o),
(1633,653,c),
(1593,653,o),
(1549,646,o),
(1508,653,c),
(1394,653,ls),
(1357,653,o),
(1316,646,o),
(1279,653,cs),
(1242,660,o),
(1209,666,o),
(1172,663,c),
(1108,663,o),
(1044,663,o),
(980,666,c),
(936,670,o),
(895,666,o),
(855,656,c),
(811,643,o),
(764,639,o),
(717,643,cs),
(670,646,o),
(626,643,o),
(579,643,cs),
(491,643,ls),
(461,643,o),
(434,653,o),
(404,653,cs),
(373,653,o),
(333,646,o),
(299,646,cs),
(266,646,o),
(242,639,o),
(215,646,cs),
(181,656,o),
(151,656,o),
(117,656,cs),
(84,656,o),
(107,656,o),
(104,649,cs),
(97,636,o),
(90,623,o),
(94,606,cs),
(100,582,o),
(94,559,o),
(94,532,cs),
(94,518,l),
(84,508,o),
(87,495,o),
(87,484,cs),
(87,444,ls),
(87,404,o),
(87,363,o),
(90,323,c),
(90,292,o),
(97,262,o),
(90,229,c),
(90,208,o),
(87,188,o),
(90,168,c)
);
},
{
closed = 1;
nodes = (
(936,697,l),
(936,700,l),
(938,697,l),
(1001,696,o),
(1068,687,o),
(1131,690,cs),
(1185,693,o),
(1235,690,o),
(1289,676,c),
(1313,673,o),
(1337,676,o),
(1360,676,c),
(1407,680,o),
(1454,683,o),
(1502,676,c),
(1552,673,o),
(1599,676,o),
(1650,680,c),
(1711,680,o),
(1768,683,o),
(1828,687,c),
(1849,687,o),
(1862,676,o),
(1865,656,c),
(1872,633,o),
(1875,609,o),
(1879,586,c),
(1879,542,o),
(1892,495,o),
(1899,451,c),
(1909,410,o),
(1923,370,o),
(1919,326,c),
(1919,266,o),
(1906,205,o),
(1892,144,c),
(1886,114,o),
(1879,87,o),
(1872,57,c),
(1865,33,o),
(1859,23,o),
(1835,23,cs),
(1812,23,o),
(1825,23,o),
(1818,20,cs),
(1785,3,o),
(1751,3,o),
(1717,16,cs),
(1673,33,o),
(1626,30,o),
(1582,30,cs),
(1539,30,o),
(1508,30,o),
(1475,33,c),
(1401,33,l),
(1367,30,o),
(1337,30,o),
(1303,26,c),
(1262,23,o),
(1225,16,o),
(1188,10,c),
(1135,3,o),
(1077,-4,o),
(1023,3,cs),
(949,13,o),
(878,23,o),
(804,26,c),
(774,26,o),
(747,40,o),
(720,50,cs),
(687,63,o),
(656,67,o),
(623,63,c),
(582,63,o),
(545,50,o),
(505,47,cs),
(464,43,o),
(424,47,o),
(383,47,cs),
(343,47,o),
(330,47,o),
(303,50,c),
(259,53,o),
(215,50,o),
(168,50,cs),
(121,50,o),
(111,60,o),
(87,77,cs),
(74,87,o),
(63,100,o),
(63,121,cs),
(63,279,l),
(60,343,o),
(60,410,o),
(57,474,c),
(57,491,o),
(50,511,o),
(50,528,cs),
(50,545,o),
(50,542,o),
(60,545,c),
(67,545,o),
(63,552,o),
(63,555,cs),
(63,572,o),
(60,589,o),
(63,609,c),
(63,629,o),
(74,646,o),
(80,663,c),
(84,670,o),
(90,673,o),
(97,673,cs),
(138,673,o),
(178,680,o),
(218,663,c),
(255,663,ls),
(309,663,o),
(363,673,o),
(417,673,cs),
(471,673,o),
(461,670,o),
(484,666,c),
(528,660,o),
(572,666,o),
(616,666,c),
(646,670,o),
(680,666,o),
(710,666,cs),
(754,666,o),
(801,666,o),
(845,676,c),
(868,683,o),
(895,687,o),
(919,690,c),
(943,690,l),
(938,697,l)
);
},
{
closed = 1;
nodes = (
(1141,380,o),
(1161,383,o),
(1182,387,c),
(1192,387,o),
(1202,387,o),
(1212,393,c),
(1222,397,o),
(1225,404,o),
(1222,414,cs),
(1209,468,o),
(1175,474,o),
(1131,464,c),
(1131,464,o),
(1124,464,o),
(1124,457,c),
(1118,444,o),
(1111,434,o),
(1114,417,c),
(1114,400,o),
(1121,380,o),
(1124,360,c)
);
},
{
closed = 1;
nodes = (
(1165,346,l),
(1202,313,o),
(1222,269,o),
(1249,232,cs),
(1256,222,o),
(1259,212,o),
(1273,202,cs),
(1283,195,o),
(1279,185,o),
(1273,178,cs),
(1266,168,o),
(1256,168,o),
(1246,175,cs),
(1239,181,o),
(1235,188,o),
(1229,195,c),
(1209,229,o),
(1188,262,o),
(1165,292,cs),
(1155,306,o),
(1141,319,o),
(1124,329,c),
(1124,262,ls),
(1124,239,o),
(1131,218,o),
(1131,195,cs),
(1131,171,o),
(1131,171,o),
(1118,171,cs),
(1104,171,o),
(1097,178,o),
(1097,195,cs),
(1097,212,o),
(1091,242,o),
(1091,266,cs),
(1091,319,o),
(1084,373,o),
(1077,427,cs),
(1071,468,o),
(1094,498,o),
(1135,501,c),
(1205,511,o),
(1252,461,o),
(1256,410,c),
(1256,387,o),
(1249,377,o),
(1229,367,c),
(1212,360,o),
(1192,356,o),
(1172,353,c),
(1172,353,o),
(1165,353,o),
(1161,350,c),
(1165,350,l)
);
},
{
closed = 1;
nodes = (
(636,404,l),
(636,380,o),
(643,373,o),
(663,367,cs),
(683,360,o),
(703,356,o),
(724,353,c),
(747,346,o),
(767,340,o),
(791,330,cs),
(825,316,o),
(845,272,o),
(831,235,c),
(825,215,o),
(818,201,o),
(801,188,cs),
(791,181,o),
(781,175,o),
(767,175,cs),
(747,175,o),
(730,171,o),
(710,164,c),
(680,158,o),
(656,175,o),
(636,195,c),
(626,208,o),
(626,225,o),
(633,239,c),
(633,245,o),
(643,252,o),
(649,249,c),
(660,249,o),
(660,239,o),
(660,232,cs),
(660,205,o),
(673,191,o),
(700,191,cs),
(727,191,o),
(744,195,o),
(764,201,cs),
(791,208,o),
(808,252,o),
(794,279,c),
(788,293,o),
(777,303,o),
(764,306,c),
(730,316,o),
(697,326,o),
(663,333,c),
(649,333,o),
(633,340,o),
(623,350,c),
(609,360,o),
(599,373,o),
(599,390,cs),
(599,424,l),
(612,478,o),
(693,508,o),
(737,474,c),
(744,474,o),
(747,464,o),
(751,457,cs),
(754,451,o),
(751,441,o),
(747,437,c),
(740,434,o),
(734,437,o),
(727,441,c),
(700,471,o),
(639,457,o),
(629,417,c),
(629,400,l),
(636,400,l)
);
},
{
closed = 1;
nodes = (
(1667,360,l),
(1667,387,o),
(1667,410,o),
(1653,437,c),
(1653,451,o),
(1653,461,o),
(1660,464,c),
(1670,464,o),
(1680,464,o),
(1683,447,c),
(1700,410,o),
(1700,370,o),
(1697,329,c),
(1697,303,ls),
(1697,269,o),
(1683,235,o),
(1670,205,cs),
(1663,188,o),
(1650,178,o),
(1633,178,cs),
(1616,178,o),
(1589,181,o),
(1569,195,cs),
(1529,222,o),
(1515,259,o),
(1512,303,c),
(1512,346,o),
(1512,390,o),
(1505,434,c),
(1505,447,o),
(1505,457,o),
(1518,468,cs),
(1525,474,o),
(1535,478,o),
(1542,468,c),
(1549,461,o),
(1549,454,o),
(1542,444,c),
(1542,431,ls),
(1542,380,o),
(1542,329,o),
(1549,279,c),
(1549,242,o),
(1582,212,o),
(1619,208,c),
(1633,208,o),
(1640,208,o),
(1646,225,c),
(1667,269,o),
(1667,316,o),
(1670,360,c)
);
},
{
closed = 1;
nodes = (
(299,387,ls),
(299,346,o),
(299,306,o),
(309,266,c),
(313,235,o),
(309,201,o),
(309,171,cs),
(309,141,o),
(303,154,o),
(292,154,cs),
(282,154,o),
(279,161,o),
(276,171,c),
(276,201,l),
(276,292,l),
(269,309,o),
(276,330,o),
(269,346,c),
(269,431,ls),
(269,437,o),
(279,444,o),
(289,441,c),
(299,441,o),
(299,431,o),
(299,424,cs),
(299,390,l)
);
},
{
closed = 1;
nodes = (
(266,545,l),
(266,572,o),
(279,582,o),
(303,572,c),
(313,572,ls),
(319,572,o),
(323,565,o),
(319,562,c),
(313,548,o),
(316,528,o),
(306,515,cs),
(296,501,o),
(276,505,o),
(269,521,c),
(269,545,l)
);
},
{
closed = 1;
nodes = (
(508,181,l),
(508,158,o),
(495,144,o),
(471,148,c),
(461,148,o),
(457,154,o),
(457,164,cs),
(457,175,o),
(457,191,o),
(461,205,c),
(461,215,o),
(471,225,o),
(484,225,cs),
(498,225,o),
(501,215,o),
(505,205,c),
(505,185,l)
);
},
{
closed = 1;
nodes = (
(1421,218,l),
(1421,208,o),
(1421,198,o),
(1411,191,c),
(1404,181,o),
(1387,185,o),
(1384,195,c),
(1384,205,o),
(1377,215,o),
(1377,229,cs),
(1377,242,o),
(1384,255,o),
(1394,255,cs),
(1404,255,o),
(1411,249,o),
(1417,239,c),
(1417,232,o),
(1424,225,o),
(1417,218,c)
);
},
{
closed = 1;
nodes = (
(976,161,l),
(976,154,o),
(976,144,o),
(969,138,c),
(963,127,o),
(949,127,o),
(946,138,c),
(939,151,o),
(932,164,o),
(939,178,c),
(939,185,o),
(946,191,o),
(956,191,cs),
(966,191,o),
(969,185,o),
(973,178,c),
(973,161,l)
);
}
);
width = 1970;
}
);
}
{
glyphname = MEDICINE;
rightMetricsKey = "=|";
layers = (
{
layerId = "8796DA50-D6B7-4313-95AF-F4283B991C1A";
shapes = (
{
closed = 1;
nodes = (
(694,290,o),
(670,260,o),
(659,229,cs),
(655,219,o),
(645,215,o),
(636,209,cs),
(615,194,o),
(591,178,o),
(568,164,c),
(543,151,o),
(516,138,o),
(487,126,cs),
(471,119,o),
(453,126,o),
(437,129,cs),
(407,134,o),
(380,142,o),
(351,143,cs),
(303,145,o),
(271,169,o),
(241,205,cs),
(236,212,o),
(230,219,o),
(224,229,c),
(244,239,o),
(252,249,o),
(248,258,cs),
(243,270,o),
(236,272,o),
(213,266,c),
(216,284,o),
(217,298,o),
(223,311,cs),
(238,342,o),
(255,369,o),
(281,392,cs),
(289,398,o),
(289,408,o),
(282,414,cs),
(275,421,o),
(264,422,o),
(255,413,cs),
(243,399,o),
(228,385,o),
(216,369,cs),
(209,359,o),
(202,346,o),
(193,334,c),
(188,345,o),
(178,353,o),
(180,367,cs),
(183,394,o),
(182,418,o),
(186,443,cs),
(190,474,o),
(207,501,o),
(229,526,c),
(251,545,o),
(271,567,o),
(295,586,cs),
(309,596,o),
(328,598,o),
(347,602,cs),
(368,606,o),
(388,612,o),
(409,621,cs),
(424,628,o),
(438,631,o),
(456,628,cs),
(481,623,o),
(506,622,o),
(531,618,cs),
(539,617,o),
(544,613,o),
(549,610,cs),
(575,594,o),
(596,581,o),
(619,564,cs),
(627,559,o),
(633,553,o),
(637,545,c),
(668,501,o),
(689,456,o),
(697,402,c),
(698,377,o),
(697,352,o),
(697,326,c)
);
},
{
closed = 1;
nodes = (
(819,377,o),
(812,380,o),
(804,381,cs),
(794,383,o),
(784,383,o),
(775,384,c),
(735,384,l),
(735,392,o),
(733,398,o),
(733,405,c),
(726,465,o),
(700,518,o),
(668,567,cs),
(656,586,o),
(642,596,o),
(626,607,cs),
(609,618,o),
(591,625,o),
(575,635,cs),
(561,645,o),
(549,652,o),
(531,654,cs),
(506,657,o),
(484,660,o),
(459,665,c),
(456,665,o),
(454,666,o),
(451,666,c),
(453,674,o),
(453,681,o),
(453,689,cs),
(453,700,o),
(454,709,o),
(454,721,cs),
(454,730,o),
(454,743,o),
(438,748,cs),
(435,749,o),
(430,750,o),
(427,748,c),
(426,748,o),
(424,748,o),
(424,747,c),
(423,747,o),
(421,745,o),
(421,745,c),
(416,739,o),
(414,733,o),
(413,725,cs),
(412,718,o),
(412,712,o),
(412,706,cs),
(412,703,o),
(412,700,o),
(412,695,cs),
(412,684,o),
(410,674,o),
(410,663,c),
(405,660,o),
(402,659,o),
(399,657,cs),
(377,646,o),
(355,640,o),
(334,638,cs),
(312,636,o),
(295,630,o),
(276,618,cs),
(244,596,o),
(214,568,o),
(189,537,cs),
(157,498,o),
(144,451,o),
(144,399,c),
(137,399,ls),
(130,399,o),
(120,400,o),
(114,400,c),
(101,402,o),
(90,402,o),
(76,402,cs),
(69,402,o),
(62,403,o),
(55,398,cs),
(49,393,o),
(50,380,o),
(55,373,cs),
(59,368,o),
(66,365,o),
(76,363,cs),
(87,360,o),
(98,359,o),
(107,359,cs),
(112,359,o),
(117,359,o),
(119,359,cs),
(122,359,o),
(127,359,o),
(130,359,cs),
(133,359,o),
(137,359,o),
(141,358,c),
(142,358,o),
(144,358,o),
(144,358,c),
(144,346,o),
(147,332,o),
(156,320,cs),
(159,317,o),
(158,312,o),
(159,307,cs),
(162,290,o),
(166,270,o),
(172,250,cs),
(176,236,o),
(185,225,o),
(191,215,cs),
(209,183,o),
(232,156,o),
(262,134,cs),
(278,123,o),
(295,112,o),
(314,110,cs),
(348,107,o),
(382,104,o),
(413,101,c),
(413,93,o),
(413,87,o),
(413,79,cs),
(413,73,o),
(413,68,o),
(413,61,c),
(412,50,o),
(412,38,o),
(412,24,c),
(410,19,o),
(410,11,o),
(416,5,cs),
(419,2,o),
(424,0,o),
(427,0,cs),
(432,0,o),
(437,3,o),
(441,5,cs),
(446,9,o),
(448,16,o),
(450,25,cs),
(453,36,o),
(453,46,o),
(453,57,cs),
(453,61,o),
(454,66,o),
(454,70,c),
(456,79,o),
(456,87,o),
(456,95,c),
(475,91,o),
(492,93,o),
(508,98,cs),
(528,104,o),
(547,111,o),
(566,122,cs),
(599,141,o),
(636,164,o),
(668,184,cs),
(678,191,o),
(685,202,o),
(689,211,cs),
(701,236,o),
(708,265,o),
(723,287,cs),
(728,293,o),
(729,299,o),
(730,305,cs),
(732,318,o),
(735,332,o),
(735,345,c),
(741,345,o),
(747,345,o),
(753,345,c),
(769,343,ls),
(779,342,o),
(791,342,o),
(804,342,cs),
(805,342,ls),
(807,342,o),
(808,342,o),
(808,342,c),
(815,342,o),
(820,341,o),
(825,346,cs),
(832,353,o),
(829,363,o),
(825,369,cs)
);
},
{
closed = 1;
nodes = (
(371,384,o),
(377,377,o),
(385,369,c),
(402,346,o),
(429,337,o),
(456,331,cs),
(471,328,o),
(485,334,o),
(493,348,cs),
(497,355,o),
(502,364,o),
(505,373,cs),
(509,387,o),
(514,402,o),
(519,418,c),
(520,413,o),
(522,410,o),
(523,407,cs),
(529,381,o),
(535,353,o),
(540,328,cs),
(545,307,o),
(548,288,o),
(553,268,cs),
(556,258,o),
(568,250,o),
(578,253,cs),
(588,255,o),
(592,265,o),
(590,276,cs),
(576,342,o),
(560,404,o),
(544,466,cs),
(541,480,o),
(526,488,o),
(514,480,cs),
(509,477,o),
(500,471,o),
(498,466,cs),
(490,445,o),
(484,425,o),
(476,404,cs),
(473,395,o),
(470,384,o),
(467,373,c),
(464,372,o),
(461,367,o),
(456,369,cs),
(442,374,o),
(428,380,o),
(416,389,cs),
(397,405,o),
(379,426,o),
(361,445,cs),
(356,450,o),
(353,456,o),
(348,459,cs),
(334,468,o),
(317,463,o),
(316,448,c),
(316,438,o),
(312,427,o),
(316,418,c),
(325,384,o),
(330,350,o),
(327,315,c),
(327,298,o),
(327,282,o),
(328,265,c),
(328,260,o),
(329,255,o),
(331,252,cs),
(336,244,o),
(341,239,o),
(350,239,cs),
(358,239,o),
(368,247,o),
(372,258,cs),
(374,265,o),
(374,270,o),
(366,277,cs),
(363,280,o),
(363,284,o),
(363,287,c),
(361,322,o),
(361,355,o),
(361,392,c)
);
}
);
width = 880;
}
);
}
{
glyphname = NIKELOGO;
rightMetricsKey = "=|";
layers = (
{
layerId = "6DC978D1-58EC-4728-9C90-896FC59D3452";
shapes = (
{
closed = 1;
nodes = (
(1595,425,l),
(1581,417,o),
(1571,410,o),
(1561,396,c),
(1569,397,o),
(1574,397,o),
(1579,398,cs),
(1598,402,o),
(1598,402,o),
(1595,424,c)
);
},
{
closed = 1;
nodes = (
(978,318,o),
(965,311,o),
(953,294,c),
(972,296,o),
(986,297,o),
(1004,299,c),
(1001,308,o),
(999,315,o),
(997,325,c)
);
},
{
closed = 1;
nodes = (
(1952,381,o),
(1952,379,o),
(1951,376,c),
(1957,374,o),
(1962,371,o),
(1967,370,c),
(1981,370,o),
(2010,386,o),
(2021,402,c),
(1997,396,o),
(1974,389,o),
(1952,383,c)
);
},
{
closed = 1;
nodes = (
(2236,509,o),
(2231,514,o),
(2222,510,cs),
(2207,503,o),
(2194,496,o),
(2181,489,cs),
(2176,486,o),
(2171,482,o),
(2167,479,c),
(2168,478,o),
(2168,476,o),
(2169,475,c),
(2192,482,o),
(2215,489,o),
(2237,496,c)
);
},
{
closed = 1;
nodes = (
(2467,599,o),
(2471,593,o),
(2475,588,c),
(2496,597,o),
(2517,602,o),
(2533,618,c),
(2532,619,o),
(2531,621,o),
(2531,622,c),
(2509,617,o),
(2487,612,o),
(2462,607,c)
);
},
{
closed = 1;
nodes = (
(1896,491,o),
(1878,478,o),
(1863,459,c),
(1879,462,o),
(1894,466,o),
(1909,471,cs),
(1928,477,o),
(1928,478,o),
(1919,501,c)
);
},
{
closed = 1;
nodes = (
(699,267,l),
(697,277,o),
(696,284,o),
(696,292,c),
(672,294,o),
(646,282,o),
(639,267,c)
);
},
{
closed = 1;
nodes = (
(1477,352,o),
(1476,353,o),
(1476,355,c),
(1453,349,o),
(1429,343,o),
(1406,337,cs),
(1404,336,o),
(1401,334,o),
(1400,332,cs),
(1394,316,o),
(1390,300,o),
(1393,282,c),
(1423,303,o),
(1450,327,o),
(1478,350,c)
);
},
{
closed = 1;
nodes = (
(1299,355,l),
(1300,354,o),
(1301,352,o),
(1302,350,c),
(1324,353,o),
(1347,355,o),
(1370,358,c),
(1373,358,o),
(1378,363,o),
(1379,366,cs),
(1382,381,o),
(1384,397,o),
(1377,415,c),
(1345,402,o),
(1325,376,o),
(1299,356,c)
);
},
{
closed = 1;
nodes = (
(2308,516,o),
(2334,551,o),
(2370,571,c),
(2371,571,o),
(2371,574,o),
(2372,576,c),
(2324,564,o),
(2278,553,o),
(2232,541,c),
(2250,536,o),
(2254,519,o),
(2263,507,c)
);
},
{
closed = 1;
nodes = (
(1754,349,l),
(1755,347,o),
(1756,346,o),
(1757,345,c),
(1809,363,o),
(1861,381,o),
(1914,399,cs),
(1918,400,o),
(1923,406,o),
(1923,409,c),
(1925,421,o),
(1925,433,o),
(1926,447,c),
(1920,446,o),
(1917,446,o),
(1913,445,cs),
(1890,439,o),
(1868,433,o),
(1846,427,cs),
(1834,424,o),
(1826,419,o),
(1818,411,cs),
(1801,393,o),
(1784,377,o),
(1767,361,c),
(1754,350,l)
);
},
{
closed = 1;
nodes = (
(1621,352,o),
(1621,327,o),
(1629,300,c),
(1649,304,o),
(1667,309,o),
(1682,322,cs),
(1713,348,o),
(1745,375,o),
(1777,402,cs),
(1780,404,o),
(1782,408,o),
(1786,414,c),
(1730,401,o),
(1677,390,o),
(1621,378,c)
);
},
{
closed = 1;
nodes = (
(2207,532,l),
(2206,533,o),
(2206,534,o),
(2205,535,c),
(2198,534,o),
(2191,532,o),
(2185,530,cs),
(2149,518,o),
(2114,505,o),
(2078,493,cs),
(2042,482,o),
(2004,472,o),
(1967,461,c),
(1961,460,o),
(1953,455,o),
(1952,451,cs),
(1950,439,o),
(1947,426,o),
(1952,413,c),
(1956,413,o),
(1959,413,o),
(1962,414,cs),
(1999,423,o),
(2035,433,o),
(2072,443,cs),
(2088,447,o),
(2100,455,o),
(2112,465,cs),
(2140,490,o),
(2168,514,o),
(2202,529,c)
);
},
{
closed = 1;
nodes = (
(1217,306,l),
(1216,307,o),
(1216,309,o),
(1215,310,c),
(1154,299,o),
(1094,289,o),
(1034,278,c),
(1034,179,ls),
(1034,177,o),
(1035,175,o),
(1036,173,cs),
(1039,163,o),
(1043,159,o),
(1052,163,cs),
(1063,167,o),
(1074,173,o),
(1082,181,cs),
(1112,207,o),
(1140,234,o),
(1169,261,cs),
(1185,275,o),
(1201,291,o),
(1217,305,c)
);
},
{
closed = 1;
nodes = (
(666,62,ls),
(667,61,o),
(669,60,o),
(671,59,c),
(678,62,o),
(685,65,o),
(691,69,cs),
(713,87,o),
(735,104,o),
(755,123,cs),
(796,164,o),
(836,208,o),
(877,250,c),
(878,252,o),
(879,255,o),
(880,259,c),
(828,253,o),
(778,248,o),
(728,242,cs),
(719,241,o),
(715,235,o),
(712,227,cs),
(698,184,o),
(684,141,o),
(670,98,cs),
(666,87,o),
(666,74,o),
(665,63,c)
);
},
{
closed = 1;
nodes = (
(127,277,o),
(130,277,o),
(132,278,cs),
(165,288,o),
(197,298,o),
(228,309,cs),
(278,327,o),
(327,347,o),
(377,365,c),
(378,365,o),
(378,368,o),
(378,367,c),
(374,388,o),
(368,409,o),
(367,429,cs),
(365,450,o),
(369,470,o),
(370,491,c),
(340,483,o),
(156,340,o),
(122,276,c)
);
},
{
closed = 1;
nodes = (
(431,304,o),
(421,296,o),
(413,288,cs),
(388,263,o),
(361,240,o),
(338,212,cs),
(310,179,o),
(285,143,o),
(265,103,cs),
(258,88,o),
(252,72,o),
(253,54,cs),
(254,42,o),
(256,40,o),
(268,41,cs),
(283,43,o),
(296,49,o),
(309,58,cs),
(396,115,o),
(478,179,o),
(560,243,cs),
(562,244,o),
(563,247,o),
(563,247,c),
(522,268,o),
(482,289,o),
(438,311,c)
);
},
{
closed = 1;
nodes = (
(668,240,ls),
(652,240,o),
(635,239,o),
(620,240,cs),
(604,242,o),
(592,238,o),
(580,228,c),
(495,165,o),
(410,102,o),
(324,39,cs),
(322,37,o),
(320,34,o),
(317,31,c),
(427,22,o),
(533,33,o),
(641,45,c),
(637,114,o),
(673,173,o),
(689,240,c)
);
},
{
closed = 1;
nodes = (
(226,44,l),
(227,52,o),
(228,56,o),
(228,59,cs),
(228,82,o),
(235,103,o),
(247,122,cs),
(265,150,o),
(283,179,o),
(302,207,cs),
(329,247,o),
(366,280,o),
(402,312,cs),
(407,317,o),
(412,322,o),
(417,327,c),
(404,342,o),
(404,344,o),
(390,340,c),
(367,335,o),
(344,327,o),
(321,319,cs),
(275,302,o),
(229,284,o),
(182,267,cs),
(162,260,o),
(141,255,o),
(120,250,cs),
(101,246,o),
(91,256,o),
(95,275,cs),
(98,286,o),
(103,296,o),
(110,304,cs),
(143,344,o),
(178,382,o),
(219,414,cs),
(257,444,o),
(295,473,o),
(333,502,cs),
(342,508,o),
(353,516,o),
(364,518,cs),
(393,524,o),
(397,549,o),
(408,571,c),
(404,571,o),
(403,572,o),
(402,572,c),
(354,551,o),
(307,531,o),
(259,509,cs),
(254,507,o),
(248,503,o),
(245,499,cs),
(237,486,o),
(226,478,o),
(214,470,cs),
(210,468,o),
(205,465,o),
(203,460,cs),
(191,436,o),
(170,421,o),
(152,405,cs),
(115,373,o),
(95,332,o),
(84,286,cs),
(76,253,o),
(74,219,o),
(73,185,c),
(73,172,o),
(76,161,o),
(81,150,c),
(104,107,o),
(144,84,o),
(183,61,cs),
(196,54,o),
(209,50,o),
(225,44,c)
);
},
{
closed = 1;
nodes = (
(719,59,l),
(719,57,o),
(720,56,o),
(721,54,c),
(758,59,o),
(796,62,o),
(833,71,cs),
(952,100,o),
(1072,131,o),
(1190,164,cs),
(1244,178,o),
(1297,198,o),
(1350,214,cs),
(1407,232,o),
(1465,248,o),
(1522,265,cs),
(1548,273,o),
(1574,282,o),
(1602,291,c),
(1600,319,o),
(1598,345,o),
(1596,372,c),
(1591,372,o),
(1586,373,o),
(1582,372,cs),
(1570,371,o),
(1559,368,o),
(1547,367,cs),
(1534,366,o),
(1524,360,o),
(1514,352,c),
(1483,323,o),
(1450,295,o),
(1418,267,cs),
(1412,262,o),
(1404,258,o),
(1396,255,cs),
(1377,248,o),
(1365,256,o),
(1364,276,cs),
(1363,284,o),
(1365,293,o),
(1366,301,cs),
(1367,310,o),
(1369,318,o),
(1371,328,c),
(1355,328,l),
(1332,326,o),
(1309,322,o),
(1286,321,cs),
(1271,320,o),
(1261,314,o),
(1250,304,cs),
(1200,256,o),
(1150,209,o),
(1099,162,cs),
(1090,153,o),
(1079,146,o),
(1068,142,c),
(1034,127,o),
(1013,140,o),
(1010,177,c),
(1008,190,o),
(1008,203,o),
(1008,216,cs),
(1008,257,ls),
(1008,261,o),
(1007,266,o),
(1006,271,c),
(985,269,o),
(965,267,o),
(945,266,cs),
(930,265,o),
(919,259,o),
(908,248,cs),
(846,184,o),
(789,114,o),
(720,58,c)
);
},
{
closed = 1;
nodes = (
(1893,364,o),
(1863,352,o),
(1832,343,cs),
(1776,327,o),
(1722,305,o),
(1668,282,cs),
(1657,277,o),
(1644,276,o),
(1633,273,cs),
(1604,265,o),
(1576,256,o),
(1547,247,cs),
(1500,233,o),
(1453,220,o),
(1406,206,cs),
(1389,201,o),
(1373,194,o),
(1356,189,cs),
(1276,164,o),
(1197,138,o),
(1116,119,cs),
(1049,103,o),
(982,84,o),
(915,65,cs),
(862,50,o),
(807,40,o),
(752,33,cs),
(724,29,o),
(696,24,o),
(669,21,cs),
(628,16,o),
(586,15,o),
(545,9,cs),
(475,0,o),
(404,2,o),
(334,4,cs),
(278,6,o),
(223,16,o),
(171,39,cs),
(164,42,o),
(157,46,o),
(151,50,cs),
(132,65,o),
(110,78,o),
(93,95,cs),
(68,119,o),
(50,146,o),
(50,184,cs),
(50,223,o),
(53,263,o),
(63,301,cs),
(74,343,o),
(92,381,o),
(123,412,cs),
(133,422,o),
(145,429,o),
(153,439,cs),
(176,466,o),
(200,492,o),
(226,516,c),
(233,521,o),
(239,528,o),
(247,532,cs),
(299,557,o),
(351,583,o),
(403,608,cs),
(414,613,o),
(427,616,o),
(439,620,cs),
(447,622,o),
(455,625,o),
(461,617,cs),
(467,609,o),
(462,603,o),
(457,596,cs),
(431,560,o),
(415,519,o),
(400,478,cs),
(388,446,o),
(390,414,o),
(407,384,cs),
(412,375,o),
(418,368,o),
(429,363,c),
(441,359,o),
(451,353,o),
(455,339,cs),
(456,336,o),
(459,333,o),
(462,331,cs),
(500,308,o),
(535,284,o),
(579,276,cs),
(591,274,o),
(600,275,o),
(610,283,cs),
(622,292,o),
(635,301,o),
(648,309,c),
(657,313,o),
(666,317,o),
(676,319,cs),
(705,326,o),
(719,317,o),
(723,287,cs),
(724,281,o),
(725,276,o),
(726,269,c),
(735,270,o),
(743,270,o),
(751,271,cs),
(796,276,o),
(842,281,o),
(886,285,cs),
(902,287,o),
(914,292,o),
(925,304,cs),
(936,317,o),
(949,327,o),
(963,337,cs),
(970,343,o),
(979,346,o),
(988,348,cs),
(1005,353,o),
(1016,347,o),
(1021,329,c),
(1024,322,o),
(1026,314,o),
(1028,307,c),
(1030,307,o),
(1031,305,o),
(1033,306,c),
(1077,313,o),
(1122,321,o),
(1166,329,c),
(1189,332,o),
(1212,337,o),
(1235,340,cs),
(1247,342,o),
(1256,347,o),
(1264,355,cs),
(1285,376,o),
(1305,396,o),
(1327,415,cs),
(1339,425,o),
(1353,433,o),
(1367,439,cs),
(1386,447,o),
(1399,439,o),
(1403,419,cs),
(1406,407,o),
(1406,394,o),
(1407,382,c),
(1407,365,l),
(1412,365,o),
(1416,365,o),
(1420,366,cs),
(1447,373,o),
(1476,379,o),
(1503,387,cs),
(1511,389,o),
(1519,394,o),
(1526,400,cs),
(1541,413,o),
(1555,426,o),
(1569,439,cs),
(1575,444,o),
(1583,448,o),
(1591,452,cs),
(1609,460,o),
(1620,454,o),
(1621,434,cs),
(1622,426,o),
(1622,418,o),
(1623,408,c),
(1629,408,o),
(1634,407,o),
(1639,408,cs),
(1695,420,o),
(1751,432,o),
(1806,445,cs),
(1813,447,o),
(1820,453,o),
(1826,458,cs),
(1843,473,o),
(1857,490,o),
(1874,504,cs),
(1886,514,o),
(1901,520,o),
(1915,525,cs),
(1930,531,o),
(1941,524,o),
(1946,508,cs),
(1948,501,o),
(1950,494,o),
(1952,488,c),
(1952,487,o),
(1953,487,o),
(1955,485,c),
(1976,491,o),
(1997,496,o),
(2019,503,cs),
(2063,517,o),
(2107,533,o),
(2152,546,cs),
(2218,565,o),
(2286,581,o),
(2353,599,cs),
(2378,605,o),
(2403,615,o),
(2429,621,c),
(2474,634,o),
(2520,645,o),
(2566,657,cs),
(2577,660,o),
(2587,664,o),
(2597,667,cs),
(2607,670,o),
(2616,674,o),
(2625,674,c),
(2649,675,o),
(2671,683,o),
(2693,691,cs),
(2702,695,o),
(2711,697,o),
(2721,699,cs),
(2727,700,o),
(2734,698,o),
(2736,690,cs),
(2738,683,o),
(2736,677,o),
(2729,673,cs),
(2725,670,o),
(2720,668,o),
(2716,665,cs),
(2665,633,o),
(2610,611,o),
(2555,587,cs),
(2521,572,o),
(2486,557,o),
(2452,542,cs),
(2444,539,o),
(2436,535,o),
(2426,538,cs),
(2422,539,o),
(2416,537,o),
(2411,535,cs),
(2388,527,o),
(2363,519,o),
(2340,510,cs),
(2328,505,o),
(2317,498,o),
(2307,490,cs),
(2292,478,o),
(2278,470,o),
(2257,473,c),
(2252,475,o),
(2245,473,o),
(2239,471,cs),
(2200,459,o),
(2161,447,o),
(2122,434,cs),
(2112,430,o),
(2102,424,o),
(2093,419,c),
(2063,399,o),
(2033,378,o),
(2003,357,cs),
(1992,349,o),
(1980,345,o),
(1967,345,cs),
(1950,345,o),
(1938,350,o),
(1930,365,cs),
(1928,368,o),
(1927,370,o),
(1925,375,c)
);
}
);
width = 2787;
}
);
}
{
glyphname = N_I_K_E_C_R_A_F_T;
rightMetricsKey = "=|";
layers = (
{
layerId = "6DC978D1-58EC-4728-9C90-896FC59D3452";
shapes = (
{
closed = 1;
nodes = (
(1005,263,l),
(996,258,o),
(990,253,o),
(984,245,c),
(989,245,o),
(992,245,o),
(995,246,cs),
(1007,248,o),
(1007,248,o),
(1005,262,c)
);
},
{
closed = 1;
nodes = (
(624,197,o),
(616,192,o),
(608,182,c),
(620,183,o),
(629,184,o),
(639,184,c),
(638,190,o),
(637,195,o),
(635,201,c)
);
},
{
closed = 1;
nodes = (
(1225,235,o),
(1225,234,o),
(1225,233,c),
(1228,231,o),
(1231,229,o),
(1235,229,c),
(1244,228,o),
(1261,239,o),
(1268,248,c),
(1253,244,o),
(1239,241,o),
(1225,237,c)
);
},
{
closed = 1;
nodes = (
(1401,314,o),
(1398,318,o),
(1392,315,cs),
(1383,311,o),
(1375,306,o),
(1367,302,cs),
(1363,300,o),
(1361,298,o),
(1358,296,c),
(1359,295,o),
(1359,294,o),
(1360,293,c),
(1374,298,o),
(1388,302,o),
(1402,307,c)
);
},
{
closed = 1;
nodes = (
(1544,370,o),
(1546,367,o),
(1549,363,c),
(1561,369,o),
(1575,372,o),
(1584,382,c),
(1584,382,o),
(1583,383,o),
(1583,384,c),
(1569,381,o),
(1556,378,o),
(1541,375,c)
);
},
{
closed = 1;
nodes = (
(1191,304,o),
(1179,295,o),
(1170,283,c),
(1180,285,o),
(1190,288,o),
(1199,291,cs),
(1210,295,o),
(1211,296,o),
(1205,309,c)
);
},
{
closed = 1;
nodes = (
(451,165,l),
(450,171,o),
(449,176,o),
(449,180,c),
(434,182,o),
(418,174,o),
(414,165,c)
);
},
{
closed = 1;
nodes = (
(932,217,o),
(931,218,o),
(931,219,c),
(917,216,o),
(902,212,o),
(888,208,c),
(887,208,o),
(885,206,o),
(884,205,c),
(880,195,o),
(878,185,o),
(880,174,c),
(899,187,o),
(915,202,o),
(932,216,c)
);
},
{
closed = 1;
nodes = (
(823,219,o),
(823,217,o),
(823,216,c),
(837,218,o),
(852,219,o),
(866,221,c),
(868,221,o),
(871,224,o),
(871,226,c),
(873,236,o),
(874,245,o),
(870,256,c),
(850,248,o),
(838,232,o),
(822,220,c)
);
},
{
closed = 1;
nodes = (
(1445,319,o),
(1462,341,o),
(1484,353,c),
(1484,353,o),
(1484,355,o),
(1485,356,c),
(1455,349,o),
(1427,342,o),
(1398,334,c),
(1409,331,o),
(1412,321,o),
(1417,313,c)
);
},
{
closed = 1;
nodes = (
(1103,216,l),
(1103,215,o),
(1104,214,o),
(1105,213,c),
(1137,224,o),
(1169,235,o),
(1202,247,c),
(1204,247,o),
(1207,251,o),
(1208,253,c),
(1209,260,o),
(1209,268,o),
(1209,276,c),
(1206,276,o),
(1203,276,o),
(1201,275,cs),
(1187,272,o),
(1174,267,o),
(1160,264,cs),
(1153,262,o),
(1147,259,o),
(1143,254,cs),
(1132,243,o),
(1121,233,o),
(1111,223,c)
);
},
{
closed = 1;
nodes = (
(1021,218,o),
(1021,202,o),
(1026,186,c),
(1038,188,o),
(1049,191,o),
(1058,199,cs),
(1078,215,o),
(1097,232,o),
(1117,248,cs),
(1119,250,o),
(1120,252,o),
(1123,256,c),
(1088,248,o),
(1055,241,o),
(1021,233,c)
);
},
{
closed = 1;
nodes = (
(1383,329,l),
(1382,329,o),
(1382,330,o),
(1382,331,c),
(1377,330,o),
(1373,329,o),
(1369,327,c),
(1347,320,o),
(1325,312,o),
(1303,305,cs),
(1281,298,o),
(1257,292,o),
(1234,285,cs),
(1231,284,o),
(1226,281,o),
(1225,279,c),
(1224,271,o),
(1222,263,o),
(1225,255,c),
(1228,255,o),
(1230,255,o),
(1231,256,c),
(1254,261,o),
(1277,267,o),
(1300,274,cs),
(1309,276,o),
(1317,281,o),
(1324,288,cs),
(1341,303,o),
(1359,318,o),
(1380,327,c)
);
},
{
closed = 1;
nodes = (
(771,190,o),
(770,191,o),
(770,192,c),
(732,185,o),
(695,178,o),
(658,172,c),
(658,111,ls),
(658,109,o),
(659,108,o),
(659,107,c),
(661,101,o),
(663,98,o),
(669,101,c),
(676,103,o),
(683,107,o),
(688,112,cs),
(706,128,o),
(724,144,o),
(741,161,cs),
(751,170,o),
(761,180,o),
(771,189,c)
);
},
{
closed = 1;
nodes = (
(431,38,o),
(432,37,o),
(434,36,c),
(438,39,o),
(443,40,o),
(446,43,cs),
(460,54,o),
(473,64,o),
(485,76,cs),
(511,102,o),
(536,128,o),
(561,155,c),
(562,156,o),
(562,157,o),
(563,160,c),
(531,156,o),
(500,153,o),
(469,150,cs),
(464,149,o),
(461,145,o),
(459,140,cs),
(451,114,o),
(441,87,o),
(433,61,cs),
(431,54,o),
(431,46,o),
(430,39,c)
);
},
{
closed = 1;
nodes = (
(98,171,o),
(99,171,o),
(101,172,cs),
(121,178,o),
(141,184,o),
(160,191,cs),
(191,202,o),
(221,214,o),
(252,226,c),
(253,226,o),
(253,227,o),
(253,227,c),
(250,240,o),
(246,252,o),
(246,265,c),
(245,278,o),
(247,291,o),
(248,304,c),
(229,298,o),
(116,210,o),
(95,171,c)
);
},
{
closed = 1;
nodes = (
(285,188,o),
(279,183,o),
(274,178,cs),
(259,163,o),
(242,148,o),
(228,131,cs),
(210,111,o),
(195,88,o),
(183,64,cs),
(178,54,o),
(175,44,o),
(175,34,c),
(176,26,o),
(177,25,o),
(185,25,c),
(194,26,o),
(202,30,o),
(210,36,cs),
(264,71,o),
(314,111,o),
(365,150,c),
(366,151,o),
(367,152,o),
(367,153,c),
(341,166,o),
(317,178,o),
(290,192,c)
);
},
{
closed = 1;
nodes = (
(432,148,ls),
(422,148,o),
(412,148,o),
(402,149,c),
(393,149,o),
(385,147,o),
(378,141,cs),
(325,102,o),
(272,63,o),
(220,24,cs),
(218,23,o),
(217,21,o),
(215,19,c),
(283,13,o),
(349,20,o),
(415,28,c),
(413,70,o),
(435,107,o),
(445,148,c)
);
},
{
closed = 1;
nodes = (
(159,27,l),
(159,32,o),
(160,34,o),
(160,37,cs),
(160,51,o),
(164,64,o),
(172,75,c),
(183,93,o),
(194,110,o),
(206,128,cs),
(223,153,o),
(245,173,o),
(267,193,cs),
(271,196,o),
(274,199,o),
(277,202,c),
(269,212,o),
(269,212,o),
(260,210,cs),
(246,207,o),
(232,202,o),
(218,197,cs),
(189,187,o),
(160,175,o),
(131,165,c),
(119,160,o),
(106,157,o),
(93,155,c),
(82,152,o),
(75,158,o),
(78,170,cs),
(79,176,o),
(83,183,o),
(87,188,cs),
(107,213,o),
(129,236,o),
(155,256,cs),
(178,274,o),
(201,292,o),
(225,310,cs),
(231,314,o),
(237,319,o),
(244,320,cs),
(262,324,o),
(265,339,o),
(271,353,c),
(269,353,o),
(268,353,o),
(267,353,c),
(238,341,o),
(209,328,o),
(179,315,c),
(176,313,o),
(172,311,o),
(171,308,c),
(166,301,o),
(159,296,o),
(151,291,cs),
(149,289,o),
(146,287,o),
(144,284,cs),
(137,270,o),
(124,260,o),
(113,250,cs),
(90,230,o),
(78,205,o),
(71,176,cs),
(66,156,o),
(65,135,o),
(64,114,c),
(64,106,o),
(66,100,o),
(69,93,cs),
(83,66,o),
(108,52,o),
(132,37,c),
(140,33,o),
(148,31,o),
(158,27,c)
);
},
{
closed = 1;
nodes = (
(464,35,o),
(464,34,o),
(464,33,c),
(488,37,o),
(511,39,o),
(534,44,cs),
(608,62,o),
(681,81,o),
(754,101,cs),
(788,110,o),
(821,122,o),
(854,132,cs),
(889,143,o),
(924,153,o),
(959,164,cs),
(976,169,o),
(992,174,o),
(1009,180,c),
(1008,197,o),
(1007,213,o),
(1005,230,c),
(1002,230,o),
(999,230,o),
(997,230,c),
(989,229,o),
(982,228,o),
(975,227,cs),
(967,226,o),
(961,223,o),
(955,217,cs),
(935,199,o),
(915,182,o),
(895,165,cs),
(891,162,o),
(886,159,o),
(882,158,cs),
(870,153,o),
(863,158,o),
(862,171,c),
(862,176,o),
(862,181,o),
(863,186,cs),
(864,191,o),
(865,197,o),
(866,203,c),
(856,203,l),
(842,201,o),
(828,199,o),
(814,198,c),
(805,198,o),
(798,194,o),
(792,188,cs),
(761,158,o),
(730,129,o),
(698,100,cs),
(693,95,o),
(686,90,o),
(679,88,c),
(658,79,o),
(645,87,o),
(643,110,cs),
(642,118,o),
(642,126,o),
(642,134,cs),
(642,159,ls),
(642,161,o),
(641,164,o),
(641,168,c),
(628,166,o),
(615,165,o),
(603,164,c),
(594,164,o),
(587,160,o),
(580,153,cs),
(542,113,o),
(507,71,o),
(464,36,c)
);
},
{
closed = 1;
nodes = (
(1189,225,o),
(1170,217,o),
(1151,212,cs),
(1116,202,o),
(1083,188,o),
(1050,174,cs),
(1043,171,o),
(1035,171,o),
(1028,169,cs),
(1010,164,o),
(993,158,o),
(975,153,cs),
(946,144,o),
(917,136,o),
(888,127,cs),
(877,124,o),
(867,120,o),
(857,117,cs),
(808,102,o),
(759,85,o),
(709,73,cs),
(667,64,o),
(626,52,o),
(585,40,cs),
(552,31,o),
(518,25,o),
(484,20,cs),
(467,18,o),
(449,15,o),
(432,13,cs),
(407,10,o),
(381,9,o),
(356,6,cs),
(313,0,o),
(269,1,o),
(225,3,cs),
(191,4,o),
(157,10,o),
(125,24,cs),
(121,26,o),
(116,28,o),
(113,31,cs),
(100,40,o),
(87,48,o),
(76,59,cs),
(61,74,o),
(50,90,o),
(50,113,cs),
(50,138,o),
(52,162,o),
(58,186,cs),
(65,212,o),
(76,236,o),
(95,255,cs),
(101,260,o),
(108,265,o),
(114,272,cs),
(128,288,o),
(143,304,o),
(159,319,cs),
(163,322,o),
(167,326,o),
(172,329,cs),
(204,344,o),
(236,360,o),
(268,375,cs),
(275,379,o),
(283,380,o),
(291,383,cs),
(295,384,o),
(300,386,o),
(304,381,cs),
(308,376,o),
(305,372,o),
(302,368,cs),
(285,346,o),
(275,321,o),
(266,295,cs),
(259,275,o),
(260,256,o),
(270,237,c),
(274,232,o),
(278,227,o),
(284,225,cs),
(291,222,o),
(298,218,o),
(300,210,cs),
(301,207,o),
(303,206,o),
(305,204,c),
(328,190,o),
(350,176,o),
(377,171,cs),
(384,170,o),
(390,170,o),
(396,175,cs),
(403,181,o),
(411,186,o),
(420,191,cs),
(425,194,o),
(431,196,o),
(437,197,cs),
(455,202,o),
(463,196,o),
(466,178,cs),
(467,174,o),
(467,171,o),
(468,166,c),
(473,167,o),
(478,167,o),
(483,167,c),
(511,171,o),
(539,174,o),
(567,176,cs),
(577,177,o),
(584,181,o),
(591,188,c),
(597,196,o),
(606,202,o),
(614,209,cs),
(618,212,o),
(624,214,o),
(629,215,cs),
(640,218,o),
(647,214,o),
(650,203,c),
(652,199,o),
(653,194,o),
(654,190,c),
(656,189,o),
(656,189,o),
(657,189,c),
(685,194,o),
(712,198,o),
(740,203,cs),
(754,205,o),
(768,208,o),
(783,210,cs),
(790,211,o),
(795,215,o),
(800,220,cs),
(813,232,o),
(826,245,o),
(839,257,c),
(847,263,o),
(855,268,o),
(864,271,cs),
(876,276,o),
(883,271,o),
(886,259,cs),
(888,251,o),
(888,244,o),
(888,236,cs),
(888,226,l),
(891,226,o),
(894,226,o),
(897,226,c),
(914,230,o),
(931,234,o),
(948,239,cs),
(953,241,o),
(958,244,o),
(962,247,cs),
(971,255,o),
(980,263,o),
(989,271,cs),
(993,274,o),
(997,277,o),
(1002,279,cs),
(1014,284,o),
(1020,281,o),
(1021,268,cs),
(1022,263,o),
(1022,258,o),
(1022,252,c),
(1026,252,o),
(1029,252,o),
(1032,252,c),
(1066,260,o),
(1101,267,o),
(1135,275,cs),
(1140,276,o),
(1144,280,o),
(1148,283,cs),
(1158,293,o),
(1167,303,o),
(1177,311,cs),
(1184,317,o),
(1194,321,o),
(1202,325,c),
(1212,328,o),
(1219,324,o),
(1222,314,cs),
(1223,310,o),
(1224,305,o),
(1225,301,c),
(1225,301,o),
(1226,301,o),
(1227,300,c),
(1240,303,o),
(1253,306,o),
(1267,311,c),
(1294,319,o),
(1321,329,o),
(1349,337,cs),
(1390,349,o),
(1432,359,o),
(1473,370,cs),
(1489,374,o),
(1504,380,o),
(1520,384,cs),
(1548,391,o),
(1577,398,o),
(1605,406,cs),
(1611,408,o),
(1618,410,o),
(1624,412,cs),
(1630,414,o),
(1636,416,o),
(1641,417,c),
(1656,417,o),
(1670,422,o),
(1683,427,cs),
(1689,429,o),
(1694,431,o),
(1700,432,cs),
(1705,433,o),
(1709,431,o),
(1710,426,cs),
(1711,422,o),
(1710,418,o),
(1706,416,cs),
(1703,414,o),
(1700,413,o),
(1697,411,cs),
(1666,391,o),
(1632,378,o),
(1598,363,cs),
(1577,353,o),
(1555,344,o),
(1534,335,cs),
(1529,333,o),
(1524,331,o),
(1518,333,c),
(1516,333,o),
(1512,332,o),
(1509,331,cs),
(1494,326,o),
(1479,321,o),
(1465,315,cs),
(1458,312,o),
(1451,308,o),
(1445,303,cs),
(1436,295,o),
(1426,290,o),
(1414,293,c),
(1410,293,o),
(1406,292,o),
(1402,291,cs),
(1378,283,o),
(1354,276,o),
(1330,268,cs),
(1324,266,o),
(1318,262,o),
(1312,259,c),
(1294,246,o),
(1275,233,o),
(1257,220,c),
(1250,216,o),
(1243,213,o),
(1234,213,cs),
(1224,213,o),
(1217,217,o),
(1212,226,c),
(1211,227,o),
(1210,229,o),
(1208,231,c)
);
},
{
closed = 1;
nodes = (
(264,552,o),
(264,561,o),
(266,569,cs),
(273,599,o),
(280,629,o),
(288,659,cs),
(290,666,o),
(292,673,o),
(294,681,cs),
(295,684,o),
(296,688,o),
(298,692,cs),
(301,696,o),
(305,698,o),
(310,697,cs),
(320,696,o),
(321,687,o),
(324,681,cs),
(326,675,o),
(326,669,o),
(320,666,cs),
(313,662,o),
(312,656,o),
(310,649,cs),
(300,608,o),
(288,567,o),
(286,524,c),
(286,520,o),
(285,516,o),
(284,513,cs),
(281,502,o),
(271,498,o),
(262,505,cs),
(257,508,o),
(253,512,o),
(250,517,c),
(228,543,o),
(210,572,o),
(199,604,cs),
(198,608,o),
(196,612,o),
(194,616,c),
(193,616,o),
(192,616,o),
(192,616,c),
(189,603,o),
(186,591,o),
(183,579,cs),
(178,555,o),
(175,531,o),
(176,507,c),
(176,495,o),
(171,489,o),
(163,489,cs),
(155,489,o),
(152,496,o),
(151,507,cs),
(150,529,o),
(152,550,o),
(157,572,cs),
(164,600,o),
(172,628,o),
(179,656,cs),
(180,661,o),
(183,666,o),
(186,671,cs),
(188,675,o),
(192,678,o),
(198,677,cs),
(203,676,o),
(207,673,o),
(208,667,cs),
(210,658,o),
(212,649,o),
(214,640,cs),
(220,611,o),
(232,584,o),
(249,559,c),
(261,543,l),
(261,543,o),
(262,543,o),
(263,544,c)
);
},
{
closed = 1;
nodes = (
(686,548,l),
(693,557,o),
(700,559,o),
(709,551,cs),
(711,549,o),
(716,550,o),
(719,549,c),
(736,548,o),
(752,554,o),
(769,557,c),
(775,559,o),
(780,560,o),
(786,561,c),
(794,561,o),
(799,558,o),
(800,552,c),
(802,547,o),
(799,540,o),
(792,538,cs),
(765,532,o),
(738,522,o),
(709,526,c),
(700,528,o),
(690,528,o),
(686,540,c),
(682,535,o),
(685,532,o),
(686,529,cs),
(688,522,o),
(688,516,o),
(683,510,c),
(678,506,o),
(673,504,o),
(667,506,cs),
(662,508,o),
(660,512,o),
(660,518,cs),
(660,529,o),
(660,541,o),
(661,552,c),
(662,589,o),
(663,627,o),
(664,665,c),
(664,672,l),
(665,685,o),
(676,691,o),
(687,683,cs),
(701,673,o),
(716,670,o),
(733,669,c),
(737,669,o),
(742,668,o),
(746,666,cs),
(753,664,o),
(756,657,o),
(754,650,cs),
(752,643,o),
(746,640,o),
(738,642,cs),
(733,644,o),
(728,644,o),
(723,645,cs),
(712,647,o),
(701,650,o),
(689,652,c),
(686,642,o),
(688,633,o),
(688,623,cs),
(688,617,o),
(694,615,o),
(699,615,c),
(704,614,o),
(709,615,o),
(714,615,c),
(732,617,o),
(749,618,o),
(767,620,c),
(771,620,o),
(775,620,o),
(778,618,cs),
(782,616,o),
(785,612,o),
(785,609,cs),
(785,605,o),
(782,600,o),
(779,598,cs),
(775,596,o),
(770,596,o),
(765,595,c),
(740,594,o),
(716,593,o),
(691,591,c),
(690,591,o),
(689,591,o),
(686,590,c),
(686,549,l)
);
},
{
closed = 1;
nodes = (
(1095,616,o),
(1102,618,o),
(1109,621,cs),
(1115,623,o),
(1120,626,o),
(1124,629,cs),
(1128,633,o),
(1129,638,o),
(1125,643,cs),
(1117,655,o),
(1104,656,o),
(1094,645,cs),
(1087,636,o),
(1085,626,o),
(1086,613,c)
);
},
{
closed = 1;
nodes = (
(1063,638,l),
(1065,643,o),
(1068,648,o),
(1071,653,cs),
(1078,665,o),
(1087,673,o),
(1101,677,cs),
(1127,683,o),
(1152,657,o),
(1151,637,c),
(1151,627,o),
(1148,619,o),
(1141,613,cs),
(1133,607,o),
(1124,602,o),
(1115,598,cs),
(1106,594,o),
(1104,591,o),
(1108,581,cs),
(1109,577,o),
(1111,573,o),
(1114,570,cs),
(1123,561,o),
(1133,553,o),
(1143,544,cs),
(1147,540,o),
(1153,538,o),
(1160,541,cs),
(1166,543,o),
(1170,539,o),
(1173,534,cs),
(1176,529,o),
(1174,525,o),
(1171,521,c),
(1165,516,o),
(1159,513,o),
(1151,515,cs),
(1145,516,o),
(1139,519,o),
(1133,522,cs),
(1125,527,o),
(1118,533,o),
(1110,540,cs),
(1103,546,o),
(1097,553,o),
(1090,561,c),
(1090,552,l),
(1091,539,o),
(1092,526,o),
(1093,513,c),
(1093,507,l),
(1092,499,o),
(1087,494,o),
(1081,493,c),
(1075,493,o),
(1069,497,o),
(1067,505,c),
(1066,514,o),
(1064,522,o),
(1063,531,cs),
(1060,559,o),
(1055,587,o),
(1046,614,cs),
(1040,631,o),
(1044,637,o),
(1062,638,c)
);
},
{
closed = 1;
nodes = (
(529,600,l),
(524,594,o),
(519,589,o),
(514,586,c),
(502,576,o),
(497,565,o),
(498,550,cs),
(499,538,o),
(497,526,o),
(497,514,cs),
(497,511,o),
(497,509,o),
(496,507,cs),
(494,501,o),
(488,497,o),
(483,498,cs),
(477,499,o),
(474,503,o),
(473,509,cs),
(472,512,o),
(473,515,o),
(473,518,cs),
(474,643,ls),
(474,646,o),
(473,649,o),
(474,651,c),
(474,658,o),
(479,663,o),
(484,664,c),
(490,664,o),
(497,659,o),
(497,652,c),
(498,641,o),
(498,629,o),
(499,618,c),
(499,615,o),
(500,611,o),
(500,606,c),
(503,608,o),
(506,610,o),
(507,611,c),
(525,628,o),
(542,644,o),
(560,661,cs),
(570,670,o),
(582,678,o),
(596,681,cs),
(598,682,o),
(601,683,o),
(604,683,cs),
(611,683,o),
(617,679,o),
(618,673,cs),
(619,667,o),
(615,661,o),
(608,660,cs),
(595,657,o),
(584,650,o),
(574,641,cs),
(553,624,o),
(548,604,o),
(562,581,cs),
(570,569,o),
(579,559,o),
(589,549,cs),
(594,544,o),
(602,541,o),
(609,539,cs),
(619,535,o),
(623,530,o),
(622,523,cs),
(620,516,o),
(613,513,o),
(603,515,cs),
(593,516,o),
(585,521,o),
(578,527,cs),
(555,545,o),
(538,568,o),
(530,599,c)
);
},
{
closed = 1;
nodes = (
(1261,618,o),
(1254,604,o),
(1249,589,c),
(1261,578,o),
(1270,588,o),
(1282,589,c),
(1277,604,o),
(1274,618,o),
(1270,631,c)
);
},
{
closed = 1;
nodes = (
(1279,564,o),
(1271,561,o),
(1262,559,cs),
(1254,557,o),
(1246,557,o),
(1236,555,c),
(1233,547,o),
(1230,537,o),
(1227,527,cs),
(1226,525,o),
(1226,523,o),
(1225,520,cs),
(1222,513,o),
(1216,510,o),
(1210,512,cs),
(1203,514,o),
(1200,520,o),
(1202,528,cs),
(1212,560,o),
(1222,593,o),
(1237,624,cs),
(1242,633,o),
(1246,642,o),
(1251,650,cs),
(1254,655,o),
(1258,659,o),
(1262,663,cs),
(1271,670,o),
(1282,667,o),
(1287,657,c),
(1289,651,o),
(1291,646,o),
(1293,640,cs),
(1296,629,o),
(1298,619,o),
(1301,609,cs),
(1303,602,o),
(1305,596,o),
(1310,591,cs),
(1314,588,o),
(1314,584,o),
(1313,579,c),
(1313,575,o),
(1313,571,o),
(1314,567,cs),
(1318,556,o),
(1322,544,o),
(1332,536,cs),
(1339,529,o),
(1338,521,o),
(1332,516,cs),
(1327,511,o),
(1319,511,o),
(1313,518,cs),
(1307,526,o),
(1301,535,o),
(1296,545,cs),
(1293,552,o),
(1291,559,o),
(1288,566,c)
);
},
{
closed = 1;
nodes = (
(1391,642,o),
(1392,631,o),
(1395,620,c),
(1396,613,o),
(1410,607,o),
(1417,608,cs),
(1434,612,o),
(1453,616,o),
(1471,620,c),
(1474,620,o),
(1476,621,o),
(1479,621,c),
(1485,620,o),
(1489,617,o),
(1490,611,c),
(1492,607,o),
(1489,601,o),
(1483,599,c),
(1480,597,o),
(1477,596,o),
(1473,596,c),
(1457,592,o),
(1442,589,o),
(1426,586,c),
(1420,584,o),
(1413,583,o),
(1405,582,c),
(1407,574,o),
(1409,568,o),
(1410,561,cs),
(1413,549,o),
(1416,536,o),
(1418,524,cs),
(1419,521,o),
(1419,517,o),
(1418,513,cs),
(1416,509,o),
(1412,505,o),
(1407,506,cs),
(1403,507,o),
(1399,510,o),
(1396,512,c),
(1395,513,o),
(1394,516,o),
(1394,518,c),
(1386,550,o),
(1377,583,o),
(1370,616,cs),
(1367,630,o),
(1366,644,o),
(1365,659,cs),
(1364,670,o),
(1370,677,o),
(1381,678,cs),
(1387,679,o),
(1394,679,o),
(1400,679,cs),
(1418,679,o),
(1435,680,o),
(1452,680,cs),
(1456,680,o),
(1460,680,o),
(1464,678,cs),
(1470,676,o),
(1474,669,o),
(1472,663,cs),
(1471,657,o),
(1465,654,o),
(1457,655,cs),
(1435,657,o),
(1413,655,o),
(1389,655,c)
);
},
{
closed = 1;
nodes = (
(952,527,l),
(927,528,o),
(903,535,o),
(881,546,cs),
(876,549,o),
(872,552,o),
(868,555,cs),
(861,561,o),
(857,570,o),
(858,579,c),
(858,582,o),
(859,586,o),
(859,589,c),
(865,610,o),
(875,630,o),
(889,647,cs),
(900,660,o),
(913,666,o),
(929,665,cs),
(938,664,o),
(945,660,o),
(949,652,c),
(952,648,o),
(952,643,o),
(948,639,cs),
(944,635,o),
(940,633,o),
(934,636,cs),
(929,638,o),
(925,643,o),
(920,640,cs),
(914,637,o),
(908,633,o),
(904,627,cs),
(895,614,o),
(887,601,o),
(883,584,cs),
(881,575,o),
(882,573,o),
(890,569,cs),
(909,558,o),
(931,553,o),
(953,551,c),
(960,551,o),
(967,553,o),
(973,558,c),
(974,560,o),
(976,561,o),
(977,562,c),
(984,567,o),
(989,567,o),
(993,563,cs),
(998,558,o),
(999,552,o),
(993,545,cs),
(985,534,o),
(974,528,o),
(960,527,c)
);
},
{
closed = 1;
nodes = (
(1575,648,o),
(1564,649,o),
(1553,649,cs),
(1549,649,o),
(1545,650,o),
(1542,651,cs),
(1537,653,o),
(1534,656,o),
(1534,662,cs),
(1534,668,o),
(1538,672,o),
(1543,673,cs),
(1547,674,o),
(1551,674,o),
(1554,674,c),
(1573,673,o),
(1592,672,o),
(1611,672,cs),
(1621,672,o),
(1631,675,o),
(1641,677,c),
(1650,680,o),
(1656,678,o),
(1659,671,cs),
(1661,665,o),
(1658,657,o),
(1649,654,cs),
(1641,651,o),
(1632,650,o),
(1623,649,cs),
(1614,647,o),
(1611,647,o),
(1611,638,c),
(1608,611,o),
(1607,583,o),
(1616,556,cs),
(1617,553,o),
(1618,550,o),
(1619,547,cs),
(1621,540,o),
(1618,534,o),
(1612,531,cs),
(1606,529,o),
(1600,531,o),
(1597,539,cs),
(1593,549,o),
(1590,560,o),
(1588,572,cs),
(1583,596,o),
(1585,621,o),
(1587,648,c)
);
},
{
closed = 1;
nodes = (
(376,574,l),
(376,627,ls),
(376,631,o),
(376,634,o),
(377,638,cs),
(379,643,o),
(384,646,o),
(390,645,c),
(395,645,o),
(399,641,o),
(400,635,c),
(400,633,o),
(400,631,o),
(400,628,cs),
(399,531,ls),
(399,528,o),
(400,525,o),
(400,522,c),
(401,511,o),
(396,503,o),
(388,503,cs),
(380,503,o),
(375,510,o),
(375,521,cs),
(375,574,l)
);
},
{
closed = 1;
nodes = (
(383,692,o),
(385,696,o),
(391,698,cs),
(400,700,o),
(407,698,o),
(410,690,c),
(412,688,o),
(413,684,o),
(414,682,cs),
(417,676,o),
(416,671,o),
(411,666,cs),
(407,661,o),
(401,657,o),
(394,659,cs),
(386,661,o),
(385,668,o),
(384,674,cs),
(383,677,o),
(383,680,o),
(383,682,cs)
);
}
);
width = 1761;
}
);
}
{
glyphname = OUT_AND_BACK;
rightMetricsKey = "=|";
layers = (
{
layerId = "6DC978D1-58EC-4728-9C90-896FC59D3452";
shapes = (
{
closed = 1;
nodes = (
(839,53,l),
(839,57,o),
(838,61,o),
(839,64,c),
(839,79,o),
(840,94,o),
(841,108,cs),
(843,133,o),
(846,158,o),
(847,182,cs),
(849,226,o),
(848,269,o),
(849,312,cs),
(850,329,o),
(850,346,o),
(851,362,c),
(855,399,o),
(860,435,o),
(864,472,cs),
(865,487,o),
(867,502,o),
(866,518,cs),
(865,549,o),
(862,580,o),
(860,612,cs),
(859,629,o),
(860,629,o),
(843,635,c),
(842,635,o),
(840,636,o),
(838,637,cs),
(818,648,o),
(796,649,o),
(774,649,cs),
(763,649,o),
(751,650,o),
(740,650,c),
(721,651,o),
(702,653,o),
(683,652,cs),
(639,651,o),
(595,648,o),
(551,654,cs),
(538,656,o),
(524,658,o),
(511,659,cs),
(486,662,o),
(460,665,o),
(435,666,c),
(413,668,o),
(391,668,o),
(370,668,c),
(343,667,o),
(316,662,o),
(289,662,cs),
(263,662,o),
(237,660,o),
(212,653,cs),
(187,645,o),
(162,641,o),
(136,641,c),
(122,642,o),
(108,639,o),
(95,637,c),
(90,637,o),
(85,633,o),
(82,629,c),
(78,626,o),
(79,623,o),
(85,621,cs),
(101,617,o),
(104,610,o),
(93,596,cs),
(86,586,o),
(84,576,o),
(86,564,cs),
(90,539,o),
(94,514,o),
(95,488,cs),
(97,446,o),
(98,403,o),
(99,360,cs),
(100,345,o),
(100,330,o),
(101,315,cs),
(103,273,o),
(106,232,o),
(108,190,c),
(108,187,o),
(109,185,o),
(109,183,c),
(111,164,o),
(113,145,o),
(115,126,cs),
(117,109,o),
(117,93,o),
(120,76,cs),
(123,56,o),
(124,56,o),
(144,52,c),
(166,49,o),
(188,47,o),
(208,40,cs),
(233,31,o),
(257,34,o),
(281,33,c),
(309,33,o),
(337,35,o),
(365,32,cs),
(407,28,o),
(448,34,o),
(489,38,cs),
(507,40,o),
(525,43,o),
(544,44,c),
(561,44,o),
(578,42,o),
(595,42,cs),
(627,42,o),
(659,43,o),
(691,44,c),
(710,44,o),
(729,44,o),
(748,46,cs),
(777,48,o),
(807,51,o),
(838,53,c)
);
},
{
closed = 1;
nodes = (
(659,12,o),
(622,12,o),
(586,12,cs),
(573,12,o),
(560,14,o),
(547,14,cs),
(533,14,o),
(518,12,o),
(504,10,cs),
(462,4,o),
(421,0,o),
(378,1,cs),
(354,2,o),
(329,5,o),
(305,6,c),
(284,6,o),
(264,4,o),
(243,4,cs),
(234,4,o),
(226,5,o),
(217,7,cs),
(183,14,o),
(150,21,o),
(116,28,cs),
(106,30,o),
(98,34,o),
(96,45,cs),
(93,68,o),
(89,92,o),
(86,116,cs),
(83,137,o),
(81,158,o),
(80,179,cs),
(78,202,o),
(76,225,o),
(75,249,cs),
(73,287,o),
(73,325,o),
(70,363,cs),
(67,405,o),
(66,446,o),
(65,488,cs),
(65,512,o),
(61,536,o),
(59,559,cs),
(58,570,o),
(60,580,o),
(60,591,cs),
(60,595,o),
(60,599,o),
(58,602,cs),
(47,615,o),
(48,638,o),
(60,651,cs),
(74,667,o),
(92,668,o),
(110,670,c),
(132,671,o),
(154,671,o),
(175,674,cs),
(193,677,o),
(210,683,o),
(227,686,cs),
(239,689,o),
(251,691,o),
(263,691,cs),
(299,691,o),
(334,693,o),
(369,697,cs),
(392,700,o),
(415,698,o),
(438,697,c),
(470,694,o),
(503,692,o),
(534,686,cs),
(579,678,o),
(623,682,o),
(668,681,cs),
(682,681,o),
(696,683,o),
(711,683,c),
(749,680,o),
(786,677,o),
(824,674,cs),
(830,673,o),
(835,670,o),
(841,668,cs),
(849,666,o),
(857,663,o),
(866,661,cs),
(879,659,o),
(885,654,o),
(888,641,cs),
(889,634,o),
(890,627,o),
(890,620,c),
(892,588,o),
(895,556,o),
(895,524,c),
(896,504,o),
(895,485,o),
(893,465,cs),
(890,439,o),
(886,412,o),
(883,386,cs),
(875,316,o),
(877,246,o),
(876,177,cs),
(875,145,o),
(871,113,o),
(868,81,cs),
(867,71,o),
(868,61,o),
(868,51,cs),
(868,33,o),
(861,25,o),
(843,24,cs),
(794,20,o),
(744,16,o),
(688,12,c)
);
},
{
closed = 1;
nodes = (
(277,220,o),
(258,225,o),
(235,220,c),
(237,212,o),
(239,205,o),
(239,197,c),
(240,190,o),
(243,188,o),
(249,189,cs),
(263,192,o),
(278,195,o),
(293,197,c)
);
},
{
closed = 1;
nodes = (
(293,153,o),
(266,152,o),
(240,157,c),
(241,145,o),
(242,134,o),
(244,122,c),
(267,124,o),
(289,127,o),
(313,129,c)
);
},
{
closed = 1;
nodes = (
(314,167,o),
(321,162,o),
(328,156,cs),
(339,147,o),
(348,135,o),
(348,119,cs),
(348,108,o),
(342,102,o),
(331,101,cs),
(304,98,o),
(277,96,o),
(250,93,c),
(245,93,o),
(240,91,o),
(237,88,cs),
(231,84,o),
(225,82,o),
(219,86,cs),
(212,90,o),
(211,96,o),
(212,103,c),
(212,142,o),
(216,181,o),
(206,220,cs),
(205,223,o),
(203,226,o),
(200,229,cs),
(193,238,o),
(194,252,o),
(202,260,cs),
(207,265,o),
(214,265,o),
(219,260,cs),
(227,251,o),
(237,248,o),
(248,250,cs),
(270,253,o),
(288,245,o),
(303,230,cs),
(307,226,o),
(313,224,o),
(318,220,cs),
(323,217,o),
(327,213,o),
(331,209,cs),
(339,198,o),
(336,185,o),
(323,179,cs),
(318,177,o),
(313,175,o),
(307,173,c)
);
},
{
closed = 1;
nodes = (
(304,583,o),
(283,562,o),
(286,546,cs),
(290,526,o),
(301,510,o),
(319,501,c),
(325,497,o),
(331,498,o),
(337,502,cs),
(347,508,o),
(357,514,o),
(368,519,cs),
(376,522,o),
(377,526,o),
(373,533,cs),
(368,542,o),
(362,551,o),
(357,561,cs),
(350,576,o),
(338,581,o),
(326,583,c)
);
},
{
closed = 1;
nodes = (
(339,613,o),
(351,607,o),
(364,599,cs),
(375,592,o),
(380,583,o),
(385,573,cs),
(390,562,o),
(397,552,o),
(402,541,cs),
(411,520,o),
(405,505,o),
(385,494,cs),
(372,487,o),
(360,480,o),
(346,473,cs),
(332,466,o),
(317,467,o),
(304,475,cs),
(276,492,o),
(259,517,o),
(258,551,c),
(258,566,o),
(268,576,o),
(275,587,c),
(276,588,o),
(277,589,o),
(277,590,c),
(285,613,o),
(306,609,o),
(319,612,c)
);
},
{
closed = 1;
nodes = (
(705,194,l),
(715,184,o),
(723,175,o),
(733,167,c),
(743,157,o),
(755,149,o),
(754,132,c),
(754,130,o),
(757,128,o),
(759,126,cs),
(765,121,o),
(766,114,o),
(762,107,cs),
(758,99,o),
(750,97,o),
(742,100,c),
(730,106,o),
(727,117,o),
(725,128,cs),
(724,133,o),
(722,139,o),
(719,141,cs),
(703,152,o),
(692,167,o),
(682,183,cs),
(678,189,o),
(674,188,o),
(668,187,cs),
(662,186,o),
(664,181,o),
(664,177,cs),
(664,164,o),
(664,150,o),
(665,136,cs),
(666,127,o),
(662,121,o),
(654,119,cs),
(646,118,o),
(639,122,o),
(636,131,c),
(636,134,o),
(635,137,o),
(635,140,cs),
(635,162,o),
(636,185,o),
(635,208,c),
(635,222,o),
(633,235,o),
(632,249,c),
(632,253,o),
(632,257,o),
(633,261,cs),
(635,268,o),
(643,274,o),
(650,272,cs),
(657,271,o),
(660,265,o),
(660,256,cs),
(660,244,o),
(661,231,o),
(662,219,cs),
(663,214,o),
(671,212,o),
(676,218,cs),
(683,226,o),
(689,228,o),
(699,223,cs),
(709,219,o),
(721,227,o),
(724,238,cs),
(726,247,o),
(732,252,o),
(740,251,cs),
(747,250,o),
(752,244,o),
(752,235,c),
(753,219,o),
(744,205,o),
(728,200,cs),
(721,198,o),
(715,196,o),
(706,193,c)
);
},
{
closed = 1;
nodes = (
(369,141,o),
(372,149,o),
(374,158,cs),
(378,181,o),
(385,205,o),
(397,225,cs),
(404,237,o),
(411,248,o),
(419,258,cs),
(432,274,o),
(449,271,o),
(457,253,cs),
(466,232,o),
(472,210,o),
(481,190,cs),
(489,171,o),
(488,152,o),
(491,133,cs),
(492,124,o),
(486,116,o),
(479,115,cs),
(470,114,o),
(465,118,o),
(462,128,cs),
(461,131,o),
(460,135,o),
(459,138,cs),
(458,142,o),
(459,148,o),
(456,151,cs),
(450,157,o),
(444,162,o),
(434,161,cs),
(426,160,o),
(418,161,o),
(410,161,cs),
(405,161,o),
(403,159,o),
(401,154,cs),
(399,146,o),
(397,138,o),
(395,130,cs),
(393,121,o),
(387,116,o),
(380,117,cs),
(373,118,o),
(367,125,o),
(367,135,c)
);
},
{
closed = 1;
nodes = (
(426,215,o),
(418,202,o),
(411,188,c),
(450,188,l),
(445,202,o),
(440,215,o),
(434,231,c)
);
},
{
closed = 1;
nodes = (
(551,374,o),
(551,389,o),
(551,405,cs),
(551,417,o),
(555,423,o),
(564,424,cs),
(573,425,o),
(580,418,o),
(581,406,cs),
(582,391,o),
(582,376,o),
(583,361,cs),
(584,350,o),
(585,338,o),
(585,327,cs),
(585,319,o),
(583,312,o),
(575,308,cs),
(566,304,o),
(558,307,o),
(553,314,cs),
(544,328,o),
(531,335,o),
(517,343,c),
(504,349,o),
(493,358,o),
(481,365,c),
(482,353,o),
(484,341,o),
(484,329,cs),
(484,321,o),
(482,314,o),
(481,307,c),
(478,298,o),
(470,293,o),
(462,295,cs),
(454,296,o),
(449,304,o),
(453,314,cs),
(458,328,o),
(454,342,o),
(454,356,c),
(453,376,o),
(452,395,o),
(452,415,cs),
(452,423,o),
(459,429,o),
(468,429,cs),
(476,429,o),
(481,424,o),
(483,415,c),
(483,411,o),
(484,408,o),
(485,405,c),
(502,381,o),
(526,368,o),
(551,358,c)
);
},
{
closed = 1;
nodes = (
(656,415,o),
(655,415,o),
(654,414,c),
(650,388,o),
(663,363,o),
(662,337,c),
(672,336,o),
(693,341,o),
(696,347,cs),
(699,353,o),
(698,361,o),
(699,369,c),
(699,371,o),
(699,373,o),
(699,375,c),
(698,378,o),
(697,381,o),
(695,383,cs),
(683,394,o),
(670,404,o),
(657,415,c)
);
},
{
closed = 1;
nodes = (
(634,436,o),
(630,439,o),
(627,442,cs),
(622,447,o),
(620,454,o),
(624,460,cs),
(629,467,o),
(636,467,o),
(642,463,cs),
(652,455,o),
(662,447,o),
(671,439,cs),
(686,426,o),
(701,414,o),
(717,402,cs),
(724,396,o),
(728,389,o),
(728,379,cs),
(728,369,o),
(728,358,o),
(728,348,cs),
(728,336,o),
(722,327,o),
(711,321,cs),
(693,311,o),
(674,305,o),
(653,306,cs),
(640,307,o),
(634,313,o),
(633,326,cs),
(631,347,o),
(628,368,o),
(626,389,cs),
(625,405,o),
(622,421,o),
(639,433,c)
);
},
{
closed = 1;
nodes = (
(414,306,o),
(414,302,o),
(413,298,cs),
(412,291,o),
(407,287,o),
(400,287,c),
(393,286,o),
(388,290,o),
(386,296,cs),
(385,301,o),
(385,307,o),
(385,312,cs),
(385,319,o),
(383,322,o),
(374,323,c),
(367,323,o),
(361,326,o),
(353,327,c),
(347,329,o),
(339,328,o),
(333,329,cs),
(316,333,o),
(307,326,o),
(301,311,c),
(301,310,o),
(301,308,o),
(300,308,c),
(296,305,o),
(291,300,o),
(287,300,cs),
(282,300,o),
(278,305,o),
(275,310,cs),
(271,315,o),
(273,320,o),
(276,326,c),
(281,332,o),
(283,339,o),
(286,346,cs),
(287,348,o),
(287,350,o),
(288,352,cs),
(298,367,o),
(309,382,o),
(319,398,c),
(325,405,o),
(330,414,o),
(336,421,cs),
(344,430,o),
(355,430,o),
(362,420,cs),
(377,399,o),
(397,380,o),
(401,353,cs),
(402,348,o),
(405,344,o),
(406,340,cs),
(410,330,o),
(413,321,o),
(416,311,c),
(416,311,o),
(415,311,o),
(415,310,c)
);
},
{
closed = 1;
nodes = (
(342,356,o),
(356,356,o),
(372,355,c),
(365,366,o),
(357,377,o),
(349,389,c),
(341,378,o),
(333,368,o),
(325,358,c)
);
},
{
closed = 1;
nodes = (
(426,547,l),
(427,559,o),
(429,571,o),
(430,582,cs),
(432,595,o),
(440,602,o),
(450,599,cs),
(458,597,o),
(465,584,o),
(460,574,cs),
(453,561,o),
(455,548,o),
(455,535,cs),
(455,513,o),
(466,508,o),
(489,514,c),
(492,514,o),
(495,516,o),
(499,518,cs),
(516,525,o),
(526,544,o),
(523,562,cs),
(522,565,o),
(519,567,o),
(517,570,c),
(515,577,o),
(511,583,o),
(511,589,c),
(510,596,o),
(515,601,o),
(521,602,c),
(526,602,o),
(532,600,o),
(536,596,cs),
(556,576,o),
(555,553,o),
(548,528,cs),
(543,510,o),
(533,501,o),
(518,494,cs),
(504,487,o),
(490,481,o),
(473,482,cs),
(445,483,o),
(430,499,o),
(427,528,cs),
(426,534,o),
(427,541,o),
(427,547,c)
);
},
{
closed = 1;
nodes = (
(544,132,o),
(533,142,o),
(523,159,cs),
(512,178,o),
(504,198,o),
(506,221,c),
(506,228,o),
(508,236,o),
(512,244,cs),
(518,257,o),
(532,265,o),
(546,262,cs),
(559,259,o),
(571,254,o),
(582,248,cs),
(586,246,o),
(588,239,o),
(587,235,c),
(587,231,o),
(582,227,o),
(578,225,cs),
(575,224,o),
(570,225,o),
(566,226,cs),
(562,227,o),
(559,229,o),
(555,231,cs),
(539,237,o),
(533,234,o),
(534,216,cs),
(535,198,o),
(543,182,o),
(553,168,cs),
(554,166,o),
(556,165,o),
(557,165,cs),
(569,165,o),
(582,163,o),
(590,176,cs),
(594,182,o),
(603,183,o),
(609,179,cs),
(616,175,o),
(617,168,o),
(615,161,cs),
(609,146,o),
(598,138,o),
(582,136,cs),
(576,135,o),
(570,135,o),
(564,135,c)
);
},
{
closed = 1;
nodes = (
(631,585,l),
(621,585,o),
(611,584,o),
(602,585,c),
(592,585,o),
(587,589,o),
(587,597,c),
(586,605,o),
(591,609,o),
(601,611,c),
(614,612,o),
(628,614,o),
(641,615,cs),
(662,617,o),
(682,611,o),
(702,605,cs),
(710,603,o),
(713,595,o),
(711,588,cs),
(708,581,o),
(702,577,o),
(695,579,c),
(685,580,o),
(675,583,o),
(666,586,c),
(664,586,o),
(662,586,o),
(660,587,c),
(660,574,o),
(659,563,o),
(660,551,c),
(660,538,o),
(661,525,o),
(662,512,c),
(662,502,o),
(656,496,o),
(648,496,cs),
(639,496,o),
(633,502,o),
(633,512,c),
(632,534,o),
(632,557,o),
(632,579,cs),
(632,581,o),
(631,583,o),
(631,584,cs)
);
}
);
width = 946;
}
);
}
{
glyphname = O_B_I;
rightMetricsKey = "=|";
layers = (
{
layerId = "6DC978D1-58EC-4728-9C90-896FC59D3452";
shapes = (
{
closed = 1;
nodes = (
(1445,250,l),
(1419,261,o),
(1395,271,o),
(1370,282,cs),
(1362,285,o),
(1358,293,o),
(1360,302,c),
(1360,310,o),
(1361,317,o),
(1362,324,cs),
(1364,338,o),
(1366,351,o),
(1369,364,cs),
(1374,384,o),
(1378,404,o),
(1376,424,cs),
(1374,443,o),
(1378,449,o),
(1397,453,cs),
(1411,456,o),
(1424,459,o),
(1436,467,c),
(1443,473,o),
(1452,476,o),
(1461,480,c),
(1462,480,o),
(1462,481,o),
(1463,481,c),
(1473,486,o),
(1473,486,o),
(1470,500,c),
(1469,500,o),
(1468,501,o),
(1467,501,cs),
(1445,501,o),
(1422,499,o),
(1402,511,c),
(1399,512,o),
(1395,512,o),
(1392,512,cs),
(1345,512,o),
(1298,512,o),
(1252,512,c),
(1227,511,o),
(1203,509,o),
(1179,508,c),
(1179,497,o),
(1180,487,o),
(1181,476,c),
(1194,473,o),
(1207,470,o),
(1220,467,cs),
(1234,463,o),
(1249,457,o),
(1263,453,cs),
(1279,448,o),
(1284,443,o),
(1284,427,cs),
(1284,400,o),
(1275,374,o),
(1269,348,cs),
(1265,333,o),
(1263,318,o),
(1260,303,cs),
(1259,298,o),
(1259,294,o),
(1258,289,cs),
(1254,269,o),
(1250,265,o),
(1229,261,cs),
(1203,257,o),
(1177,254,o),
(1150,250,c),
(1150,219,l),
(1249,209,o),
(1347,210,o),
(1445,222,c)
);
},
{
closed = 1;
nodes = (
(1233,426,o),
(1215,432,o),
(1198,438,cs),
(1187,441,o),
(1176,442,o),
(1166,444,c),
(1153,448,o),
(1148,456,o),
(1146,469,c),
(1145,484,o),
(1142,498,o),
(1141,513,c),
(1141,521,o),
(1141,529,o),
(1144,536,cs),
(1147,544,o),
(1153,548,o),
(1163,546,cs),
(1188,542,o),
(1213,542,o),
(1239,544,c),
(1264,547,o),
(1288,545,o),
(1313,545,cs),
(1398,545,ls),
(1404,545,o),
(1410,543,o),
(1415,542,cs),
(1428,539,o),
(1441,536,o),
(1454,534,cs),
(1465,533,o),
(1476,534,o),
(1487,534,c),
(1501,533,o),
(1507,527,o),
(1507,514,cs),
(1507,502,o),
(1507,490,o),
(1506,478,c),
(1506,463,o),
(1502,460,o),
(1489,454,c),
(1475,449,o),
(1463,442,o),
(1449,436,cs),
(1439,431,o),
(1428,427,o),
(1417,423,cs),
(1411,421,o),
(1409,418,o),
(1409,412,cs),
(1409,402,o),
(1409,392,o),
(1407,381,cs),
(1405,368,o),
(1401,355,o),
(1399,342,c),
(1398,341,o),
(1397,339,o),
(1397,338,c),
(1396,308,o),
(1392,310,o),
(1418,299,c),
(1419,299,o),
(1419,298,o),
(1420,298,c),
(1432,292,o),
(1444,287,o),
(1457,282,cs),
(1475,275,o),
(1480,268,o),
(1480,249,c),
(1481,213,l),
(1481,201,o),
(1477,194,o),
(1465,192,cs),
(1448,188,o),
(1431,185,o),
(1413,183,cs),
(1396,181,o),
(1378,180,o),
(1360,180,c),
(1321,179,o),
(1282,177,o),
(1243,178,cs),
(1207,179,o),
(1171,183,o),
(1135,187,cs),
(1115,189,o),
(1111,197,o),
(1113,217,cs),
(1115,230,o),
(1115,243,o),
(1114,256,cs),
(1112,272,o),
(1120,282,o),
(1137,284,cs),
(1156,286,o),
(1175,288,o),
(1193,290,cs),
(1197,291,o),
(1202,292,o),
(1206,292,c),
(1226,293,o),
(1224,294,o),
(1226,314,cs),
(1228,330,o),
(1232,344,o),
(1236,359,cs),
(1242,379,o),
(1246,398,o),
(1251,419,c)
);
},
{
closed = 1;
nodes = (
(705,246,l),
(724,245,o),
(743,244,o),
(761,242,cs),
(775,241,o),
(790,239,o),
(804,235,c),
(845,226,o),
(886,224,o),
(927,235,c),
(938,239,o),
(950,239,o),
(961,240,cs),
(991,243,o),
(1018,253,o),
(1037,278,cs),
(1051,298,o),
(1049,320,o),
(1031,332,cs),
(1022,338,o),
(1012,342,o),
(1002,346,cs),
(986,352,o),
(969,357,o),
(952,362,cs),
(939,366,o),
(933,378,o),
(940,387,cs),
(945,394,o),
(951,399,o),
(958,404,cs),
(971,413,o),
(985,421,o),
(997,430,cs),
(1009,438,o),
(1016,462,o),
(1009,473,cs),
(998,489,o),
(992,507,o),
(974,518,cs),
(955,529,o),
(936,536,o),
(914,539,cs),
(892,542,o),
(870,546,o),
(848,549,c),
(825,551,o),
(802,553,o),
(779,545,cs),
(757,538,o),
(735,533,o),
(713,527,cs),
(704,524,o),
(694,522,o),
(685,520,c),
(684,500,o),
(692,493,o),
(709,494,c),
(711,494,o),
(712,494,o),
(713,495,c),
(727,500,o),
(732,490,o),
(740,482,c),
(746,474,o),
(759,473,o),
(759,459,cs),
(759,451,ls),
(759,441,o),
(759,430,o),
(759,420,c),
(758,396,o),
(761,373,o),
(769,350,cs),
(772,340,o),
(773,330,o),
(773,319,c),
(774,294,o),
(763,281,o),
(738,278,cs),
(727,276,o),
(716,274,o),
(705,272,c)
);
},
{
closed = 1;
nodes = (
(1012,379,o),
(1027,372,o),
(1042,364,cs),
(1084,342,o),
(1090,295,o),
(1064,259,cs),
(1038,224,o),
(1002,209,o),
(959,206,cs),
(946,205,o),
(933,201,o),
(920,198,cs),
(889,192,o),
(857,193,o),
(825,197,cs),
(805,199,o),
(786,205,o),
(766,208,c),
(745,210,o),
(724,211,o),
(703,209,cs),
(680,206,o),
(665,218,o),
(667,242,c),
(669,254,o),
(669,266,o),
(668,277,cs),
(667,290,o),
(675,302,o),
(690,304,c),
(703,307,o),
(715,309,o),
(728,311,cs),
(739,312,o),
(742,317,o),
(741,328,c),
(740,330,o),
(740,333,o),
(739,335,cs),
(726,369,o),
(725,403,o),
(727,438,c),
(727,441,o),
(727,443,o),
(726,446,c),
(726,447,o),
(726,447,o),
(725,449,c),
(723,450,o),
(720,452,o),
(718,452,c),
(699,455,o),
(683,465,o),
(667,474,cs),
(657,480,o),
(650,488,o),
(652,502,c),
(652,508,o),
(650,515,o),
(649,522,cs),
(647,538,o),
(651,545,o),
(666,549,cs),
(693,556,o),
(720,562,o),
(746,569,c),
(749,569,o),
(752,569,o),
(754,571,c),
(783,588,o),
(815,584,o),
(846,584,cs),
(856,584,o),
(866,580,o),
(875,578,cs),
(896,575,o),
(917,573,o),
(939,570,cs),
(967,566,o),
(989,548,o),
(1012,532,cs),
(1019,527,o),
(1045,484,o),
(1045,475,c),
(1047,446,o),
(1041,419,o),
(1015,401,cs),
(1008,396,o),
(1002,393,o),
(995,387,c)
);
},
{
closed = 1;
nodes = (
(386,504,o),
(348,505,o),
(309,496,cs),
(265,485,o),
(238,459,o),
(229,415,cs),
(225,398,o),
(219,381,o),
(216,364,cs),
(214,351,o),
(215,339,o),
(215,326,c),
(216,317,o),
(220,307,o),
(220,298,cs),
(220,284,o),
(227,276,o),
(239,272,cs),
(253,268,o),
(267,265,o),
(280,260,c),
(316,249,o),
(353,246,o),
(390,246,cs),
(400,246,o),
(409,247,o),
(419,247,c),
(453,248,o),
(487,248,o),
(521,248,cs),
(529,248,o),
(536,250,o),
(543,250,c),
(552,251,o),
(558,255,o),
(563,262,c),
(566,268,o),
(569,274,o),
(571,280,cs),
(584,311,o),
(589,344,o),
(592,377,cs),
(595,405,o),
(591,431,o),
(579,457,c),
(571,472,o),
(560,483,o),
(543,488,cs),
(504,499,o),
(465,506,o),
(425,505,cs)
);
},
{
closed = 1;
nodes = (
(432,212,l),
(397,212,ls),
(355,212,o),
(314,214,o),
(274,227,cs),
(258,232,o),
(242,235,o),
(227,240,cs),
(201,248,o),
(188,268,o),
(187,294,c),
(187,296,o),
(187,299,o),
(186,300,c),
(175,335,o),
(181,368,o),
(190,401,cs),
(197,430,o),
(203,459,o),
(223,482,cs),
(242,504,o),
(266,520,o),
(295,527,cs),
(349,541,o),
(404,540,o),
(459,539,cs),
(493,538,o),
(525,529,o),
(558,519,cs),
(586,510,o),
(602,489,o),
(613,463,cs),
(630,422,o),
(631,381,o),
(621,337,cs),
(615,311,o),
(610,284,o),
(599,259,cs),
(586,230,o),
(566,216,o),
(533,215,c),
(500,215,o),
(466,213,o),
(432,211,c)
);
},
{
closed = 1;
nodes = (
(931,294,o),
(926,287,o),
(913,282,cs),
(907,280,o),
(899,278,o),
(892,277,cs),
(884,276,o),
(877,276,o),
(872,275,cs),
(853,272,o),
(842,285,o),
(832,287,cs),
(824,289,o),
(822,297,o),
(821,309,cs),
(819,323,o),
(818,343,o),
(817,363,c),
(817,379,o),
(829,388,o),
(844,382,c),
(863,376,o),
(882,370,o),
(894,364,cs),
(920,350,o),
(926,328,o),
(930,309,c)
);
},
{
closed = 1;
nodes = (
(889,331,o),
(880,338,o),
(855,340,c),
(855,315,l),
(868,313,o),
(880,312,o),
(894,310,c)
);
},
{
closed = 1;
nodes = (
(809,468,l),
(808,492,o),
(814,498,o),
(837,497,cs),
(855,496,o),
(873,495,o),
(890,491,cs),
(912,487,o),
(922,469,o),
(925,449,cs),
(928,430,o),
(917,416,o),
(898,414,cs),
(882,412,o),
(866,412,o),
(850,412,cs),
(837,412,o),
(825,415,o),
(824,432,c),
(824,434,o),
(823,435,o),
(822,436,c),
(807,442,o),
(811,457,o),
(809,467,c)
);
},
{
closed = 1;
nodes = (
(840,449,o),
(842,444,o),
(853,444,c),
(865,445,o),
(877,447,o),
(890,448,c),
(887,463,o),
(878,466,o),
(845,464,c)
);
},
{
closed = 1;
nodes = (
(428,345,o),
(433,375,o),
(434,407,c),
(434,411,o),
(408,437,o),
(404,437,c),
(394,440,o),
(387,435,o),
(384,422,cs),
(377,398,o),
(382,375,o),
(385,352,cs),
(387,335,o),
(399,323,o),
(416,311,c)
);
},
{
closed = 1;
nodes = (
(470,394,l),
(470,393,l),
(464,365,o),
(458,337,o),
(451,308,cs),
(447,294,o),
(439,282,o),
(423,280,cs),
(405,278,o),
(389,283,o),
(378,297,cs),
(360,320,o),
(347,344,o),
(349,374,cs),
(350,392,o),
(350,410,o),
(351,428,c),
(351,432,o),
(353,435,o),
(354,438,cs),
(363,462,o),
(377,471,o),
(401,471,cs),
(419,471,o),
(434,464,o),
(447,455,cs),
(460,446,o),
(464,429,o),
(467,413,cs),
(468,407,o),
(467,400,o),
(468,394,c),
(470,393,l)
);
},
{
closed = 1;
nodes = (
(98,125,l),
(115,121,o),
(130,118,o),
(145,115,c),
(163,110,o),
(182,105,o),
(201,110,c),
(227,115,o),
(253,116,o),
(279,110,cs),
(291,107,o),
(304,106,o),
(317,106,c),
(347,104,o),
(377,106,o),
(407,97,cs),
(434,88,o),
(463,84,o),
(492,85,cs),
(504,86,o),
(516,87,o),
(529,87,cs),
(553,87,o),
(578,86,o),
(603,85,c),
(618,83,o),
(633,80,o),
(648,77,cs),
(657,75,o),
(665,71,o),
(674,69,cs),
(697,65,o),
(722,62,o),
(745,56,cs),
(797,44,o),
(849,42,o),
(902,42,c),
(929,43,o),
(957,41,o),
(985,41,c),
(1012,39,o),
(1040,39,o),
(1068,39,cs),
(1087,39,o),
(1107,39,o),
(1126,39,cs),
(1142,39,o),
(1158,38,o),
(1173,39,c),
(1202,39,o),
(1231,43,o),
(1259,42,cs),
(1298,41,o),
(1335,35,o),
(1374,34,cs),
(1406,33,o),
(1438,34,o),
(1470,37,c),
(1497,38,o),
(1523,42,o),
(1550,37,cs),
(1569,34,o),
(1588,34,o),
(1606,34,cs),
(1618,34,o),
(1629,37,o),
(1632,50,c),
(1637,66,o),
(1642,83,o),
(1645,100,cs),
(1649,118,o),
(1651,136,o),
(1652,154,c),
(1652,170,o),
(1652,187,o),
(1649,203,cs),
(1644,229,o),
(1634,255,o),
(1629,281,cs),
(1624,303,o),
(1619,324,o),
(1618,346,cs),
(1616,429,o),
(1616,512,o),
(1615,595,c),
(1614,608,o),
(1612,620,o),
(1610,632,c),
(1582,639,o),
(1556,644,o),
(1531,651,c),
(1498,662,o),
(1464,666,o),
(1430,666,cs),
(1414,666,o),
(1398,666,o),
(1382,666,cs),
(1364,666,o),
(1345,669,o),
(1327,666,c),
(1272,660,o),
(1217,658,o),
(1161,658,cs),
(1116,658,o),
(1070,658,o),
(1024,658,cs),
(1007,658,o),
(991,656,o),
(974,652,c),
(937,650,o),
(900,648,o),
(863,652,c),
(828,657,o),
(793,660,o),
(758,664,c),
(753,664,o),
(749,664,o),
(744,664,c),
(718,666,o),
(692,666,o),
(666,661,c),
(637,652,o),
(609,649,o),
(580,656,c),
(563,657,o),
(545,657,o),
(528,654,cs),
(495,647,o),
(463,638,o),
(430,632,cs),
(389,625,o),
(349,622,o),
(308,632,cs),
(273,641,o),
(238,643,o),
(203,635,cs),
(172,628,o),
(143,625,o),
(113,636,cs),
(102,640,o),
(92,639,o),
(84,632,c),
(84,621,o),
(85,612,o),
(85,603,cs),
(85,575,o),
(85,546,o),
(85,518,cs),
(85,453,o),
(86,390,o),
(85,325,cs),
(85,307,o),
(83,289,o),
(83,271,cs),
(83,252,o),
(85,234,o),
(85,216,cs),
(85,184,o),
(88,153,o),
(98,124,c)
);
},
{
closed = 1;
nodes = (
(1649,490,l),
(1649,387,l),
(1648,349,o),
(1654,312,o),
(1664,275,c),
(1671,253,o),
(1677,230,o),
(1682,207,cs),
(1685,194,o),
(1685,182,o),
(1685,170,cs),
(1685,124,o),
(1677,80,o),
(1662,37,c),
(1656,17,o),
(1635,2,o),
(1612,2,cs),
(1587,2,o),
(1563,5,o),
(1539,6,c),
(1515,6,o),
(1491,4,o),
(1468,4,c),
(1437,3,o),
(1406,0,o),
(1376,1,cs),
(1335,3,o),
(1294,8,o),
(1253,10,cs),
(1236,11,o),
(1220,9,o),
(1203,9,c),
(1174,8,o),
(1144,8,o),
(1114,8,c),
(1099,7,o),
(1084,7,o),
(1069,7,cs),
(1045,7,o),
(1021,6,o),
(997,8,cs),
(953,13,o),
(909,10,o),
(866,11,cs),
(838,11,o),
(810,13,o),
(783,17,cs),
(745,22,o),
(706,26,o),
(670,38,cs),
(617,56,o),
(563,56,o),
(509,54,cs),
(467,53,o),
(427,58,o),
(386,69,c),
(375,71,o),
(363,72,o),
(351,73,cs),
(321,76,o),
(291,79,o),
(261,80,cs),
(246,81,o),
(230,82,o),
(215,79,cs),
(187,74,o),
(160,76,o),
(133,85,cs),
(120,89,o),
(105,89,o),
(92,90,cs),
(70,91,o),
(65,96,o),
(63,117,c),
(63,123,o),
(61,130,o),
(59,136,cs),
(58,139,o),
(57,142,o),
(56,146,c),
(55,175,o),
(54,204,o),
(53,233,c),
(53,242,o),
(52,251,o),
(52,259,cs),
(52,272,o),
(51,285,o),
(51,298,cs),
(52,359,o),
(54,419,o),
(55,480,cs),
(55,510,o),
(53,540,o),
(52,570,c),
(52,581,o),
(53,591,o),
(53,602,cs),
(53,608,o),
(51,615,o),
(50,622,c),
(50,627,o),
(50,633,o),
(51,638,c),
(51,641,o),
(53,644,o),
(53,648,c),
(54,662,o),
(57,666,o),
(69,668,cs),
(76,669,o),
(83,672,o),
(89,672,c),
(98,673,o),
(107,673,o),
(115,671,cs),
(144,663,o),
(172,666,o),
(202,670,c),
(237,677,o),
(274,676,o),
(310,668,cs),
(355,658,o),
(400,663,o),
(445,670,c),
(473,676,o),
(499,684,o),
(527,688,cs),
(545,691,o),
(563,690,o),
(582,688,cs),
(606,685,o),
(630,686,o),
(654,692,cs),
(685,700,o),
(717,696,o),
(749,696,c),
(780,695,o),
(811,692,o),
(842,690,cs),
(862,689,o),
(882,684,o),
(902,684,c),
(936,685,o),
(970,687,o),
(1004,689,c),
(1012,689,o),
(1020,690,o),
(1028,690,cs),
(1094,690,o),
(1160,690,o),
(1226,691,cs),
(1253,692,o),
(1280,696,o),
(1308,697,c),
(1334,699,o),
(1361,699,o),
(1388,699,cs),
(1405,699,o),
(1422,697,o),
(1438,698,cs),
(1471,700,o),
(1503,694,o),
(1534,686,c),
(1553,680,o),
(1573,675,o),
(1593,671,cs),
(1600,670,o),
(1609,670,o),
(1616,672,c),
(1630,674,o),
(1638,670,o),
(1641,657,cs),
(1644,642,o),
(1647,628,o),
(1647,614,c),
(1648,573,o),
(1647,531,o),
(1647,490,c)
);
}
);
width = 1735;
}
);
}
{
glyphname = READ_BEFORE_BED;
rightMetricsKey = "=|";
layers = (
{
layerId = "8796DA50-D6B7-4313-95AF-F4283B991C1A";
shapes = (
{
closed = 1;
nodes = (
(50,601,o),
(48,598,o),
(54,582,c),
(54,580,o),
(55,578,o),
(55,576,c),
(56,551,o),
(56,526,o),
(56,502,cs),
(56,487,o),
(55,472,o),
(55,458,cs),
(55,427,o),
(55,395,o),
(56,364,c),
(56,355,o),
(57,346,o),
(58,337,c),
(59,320,o),
(60,303,o),
(57,286,cs),
(53,262,o),
(49,238,o),
(53,213,c),
(55,197,o),
(54,181,o),
(55,166,cs),
(56,146,o),
(55,127,o),
(64,109,c),
(69,97,o),
(77,93,o),
(88,92,cs),
(107,90,o),
(126,91,o),
(143,82,c),
(147,80,o),
(152,79,o),
(156,80,c),
(176,81,o),
(194,71,o),
(211,63,c),
(238,49,o),
(267,40,o),
(298,38,cs),
(325,36,o),
(351,34,o),
(377,27,c),
(399,20,o),
(421,14,o),
(444,8,c),
(450,6,o),
(457,4,o),
(464,2,c),
(476,0,o),
(491,10,o),
(491,23,cs),
(491,32,o),
(495,37,o),
(502,40,c),
(517,49,o),
(532,58,o),
(549,68,c),
(555,66,o),
(562,63,o),
(569,60,c),
(571,60,o),
(573,60,o),
(574,61,c),
(582,62,o),
(590,64,o),
(597,65,c),
(614,67,o),
(619,72,o),
(619,89,cs),
(619,109,o),
(617,129,o),
(616,149,cs),
(615,170,o),
(614,191,o),
(613,212,cs),
(612,235,o),
(611,257,o),
(611,279,c),
(610,331,o),
(609,382,o),
(608,434,c),
(608,436,o),
(607,439,o),
(607,442,c),
(604,471,o),
(601,501,o),
(599,530,cs),
(598,544,o),
(599,557,o),
(599,570,c),
(598,586,o),
(598,602,o),
(597,617,c),
(597,623,o),
(597,628,o),
(592,631,c),
(578,638,o),
(564,648,o),
(548,645,c),
(534,644,o),
(522,646,o),
(509,650,c),
(493,656,o),
(475,659,o),
(458,659,cs),
(442,659,o),
(425,660,o),
(409,661,c),
(397,661,o),
(385,663,o),
(373,663,c),
(354,664,o),
(335,667,o),
(316,673,c),
(299,679,o),
(282,682,o),
(265,686,c),
(251,689,o),
(236,690,o),
(221,694,cs),
(210,697,o),
(200,700,o),
(191,690,c),
(190,689,o),
(187,689,o),
(185,688,c),
(158,685,o),
(135,674,o),
(112,659,cs),
(90,645,o),
(74,630,o),
(65,607,c)
);
},
{
closed = 1;
nodes = (
(130,570,o),
(156,568,o),
(181,557,c),
(211,543,o),
(244,537,o),
(276,527,cs),
(296,521,o),
(317,513,o),
(338,508,c),
(352,504,o),
(367,502,o),
(381,500,c),
(402,496,o),
(422,491,o),
(441,484,c),
(443,461,o),
(445,440,o),
(446,419,c),
(446,405,o),
(447,391,o),
(446,378,c),
(445,349,o),
(445,320,o),
(454,292,c),
(458,282,o),
(458,271,o),
(459,260,cs),
(461,240,o),
(461,221,o),
(462,201,c),
(463,190,o),
(464,179,o),
(464,168,cs),
(464,157,o),
(464,145,o),
(464,133,cs),
(464,104,o),
(464,74,o),
(465,45,c),
(465,32,l),
(461,32,o),
(457,32,o),
(454,33,c),
(428,44,o),
(401,49,o),
(374,55,c),
(365,56,o),
(357,60,o),
(348,61,c),
(334,63,o),
(320,63,o),
(305,64,c),
(277,67,o),
(249,74,o),
(223,87,cs),
(203,97,o),
(183,108,o),
(159,107,c),
(156,107,o),
(152,108,o),
(149,108,c),
(138,112,o),
(126,115,o),
(112,119,c),
(112,128,ls),
(112,158,o),
(112,187,o),
(112,217,cs),
(112,234,o),
(110,251,o),
(110,268,cs),
(110,277,o),
(112,286,o),
(112,296,c),
(111,336,o),
(110,376,o),
(109,416,cs),
(108,444,o),
(107,473,o),
(106,501,c),
(106,520,o),
(105,540,o),
(104,559,c),
(104,564,o),
(104,569,o),
(104,575,c)
);
},
{
closed = 1;
nodes = (
(127,615,o),
(126,621,o),
(133,627,c),
(144,635,o),
(149,633,o),
(160,625,c),
(167,619,o),
(177,616,o),
(187,614,c),
(211,608,o),
(236,604,o),
(260,599,cs),
(285,594,o),
(309,588,o),
(335,585,cs),
(353,583,o),
(371,580,o),
(389,573,cs),
(404,567,o),
(420,564,o),
(436,566,cs),
(454,568,o),
(470,564,o),
(487,560,cs),
(495,558,o),
(503,557,o),
(514,555,c),
(515,537,o),
(517,517,o),
(517,498,c),
(518,476,o),
(517,454,o),
(524,432,cs),
(525,429,o),
(524,425,o),
(524,421,cs),
(524,400,o),
(525,379,o),
(524,359,cs),
(523,331,o),
(527,303,o),
(529,276,cs),
(530,259,o),
(531,242,o),
(532,225,c),
(532,224,l),
(534,202,o),
(537,179,o),
(537,156,c),
(538,130,o),
(538,105,o),
(538,79,cs),
(538,70,o),
(529,67,o),
(523,63,c),
(515,84,o),
(516,105,o),
(516,127,c),
(515,166,o),
(515,205,o),
(513,244,c),
(511,272,o),
(507,300,o),
(499,327,c),
(498,329,o),
(497,332,o),
(496,335,c),
(496,354,o),
(495,374,o),
(494,394,c),
(493,427,o),
(492,460,o),
(491,493,c),
(490,502,o),
(487,512,o),
(486,522,c),
(485,527,o),
(482,529,o),
(477,530,c),
(470,531,o),
(462,532,o),
(454,533,c),
(434,535,o),
(414,535,o),
(395,542,cs),
(381,547,o),
(367,547,o),
(353,551,c),
(332,556,o),
(311,563,o),
(290,569,cs),
(246,582,o),
(201,594,o),
(156,607,cs),
(149,609,o),
(142,610,o),
(135,612,c)
);
},
{
closed = 1;
nodes = (
(157,636,o),
(156,641,o),
(161,644,c),
(170,649,o),
(179,654,o),
(189,650,c),
(195,647,o),
(200,644,o),
(206,642,c),
(213,639,o),
(221,638,o),
(228,636,c),
(236,635,o),
(243,634,o),
(250,632,c),
(253,632,o),
(255,630,o),
(258,630,c),
(276,631,o),
(292,625,o),
(309,621,c),
(335,616,o),
(361,611,o),
(386,603,cs),
(389,602,o),
(393,603,o),
(396,602,c),
(412,600,o),
(428,598,o),
(444,597,cs),
(459,596,o),
(474,596,o),
(488,597,c),
(506,599,o),
(521,594,o),
(537,587,cs),
(544,584,o),
(546,578,o),
(546,572,cs),
(546,554,o),
(545,537,o),
(545,520,cs),
(545,511,o),
(546,502,o),
(547,493,c),
(548,482,o),
(550,470,o),
(551,459,c),
(554,435,o),
(556,410,o),
(558,386,c),
(558,379,o),
(558,372,o),
(558,366,cs),
(558,352,o),
(559,339,o),
(559,325,cs),
(559,320,o),
(557,315,o),
(558,309,c),
(559,281,o),
(561,252,o),
(562,223,c),
(563,217,o),
(563,211,o),
(563,205,c),
(564,181,o),
(564,156,o),
(565,131,c),
(566,131,l),
(566,121,o),
(566,112,o),
(566,103,cs),
(566,100,o),
(567,98,o),
(568,94,c),
(562,90,o),
(557,87,o),
(549,82,c),
(549,90,o),
(550,95,o),
(549,100,c),
(548,122,o),
(549,145,o),
(546,168,c),
(543,197,o),
(543,226,o),
(540,256,cs),
(538,278,o),
(542,302,o),
(533,324,c),
(532,327,o),
(533,332,o),
(533,335,cs),
(533,364,o),
(533,392,o),
(533,420,cs),
(533,430,o),
(531,439,o),
(530,449,cs),
(529,460,o),
(528,472,o),
(527,483,c),
(526,508,o),
(525,533,o),
(524,558,c),
(524,564,o),
(521,567,o),
(515,567,c),
(501,565,o),
(489,569,o),
(476,573,c),
(470,574,o),
(465,575,o),
(459,575,c),
(432,574,o),
(405,577,o),
(378,587,c),
(363,593,o),
(345,594,o),
(329,597,c),
(311,600,o),
(294,602,o),
(277,605,c),
(246,612,o),
(215,618,o),
(183,625,c),
(176,626,o),
(169,630,o),
(163,633,cs)
);
},
{
closed = 1;
nodes = (
(217,656,o),
(216,662,o),
(222,664,c),
(226,665,o),
(231,666,o),
(235,665,c),
(264,660,o),
(293,654,o),
(322,644,cs),
(336,639,o),
(352,640,o),
(367,638,cs),
(381,636,o),
(395,635,o),
(408,634,cs),
(424,633,o),
(440,632,o),
(456,633,c),
(471,633,o),
(485,631,o),
(499,626,cs),
(515,620,o),
(530,618,o),
(547,619,c),
(551,619,o),
(556,618,o),
(560,617,c),
(567,615,o),
(571,610,o),
(571,603,c),
(570,586,o),
(571,570,o),
(572,554,c),
(573,531,o),
(575,509,o),
(576,486,c),
(576,458,o),
(582,430,o),
(582,402,cs),
(582,342,o),
(584,281,o),
(586,221,cs),
(587,190,o),
(590,159,o),
(593,127,c),
(593,116,o),
(593,105,o),
(593,93,c),
(580,91,o),
(579,92,o),
(577,101,c),
(577,102,o),
(577,103,o),
(577,104,c),
(576,136,o),
(575,169,o),
(574,201,cs),
(573,230,o),
(571,259,o),
(569,288,c),
(569,290,o),
(568,293,o),
(569,295,c),
(572,315,o),
(566,336,o),
(569,357,c),
(572,383,o),
(565,408,o),
(564,433,c),
(563,438,o),
(563,442,o),
(563,446,cs),
(563,464,o),
(562,482,o),
(558,499,cs),
(556,508,o),
(555,517,o),
(557,526,c),
(559,540,o),
(558,553,o),
(558,567,cs),
(558,588,o),
(551,597,o),
(531,602,c),
(520,605,o),
(508,608,o),
(496,610,c),
(491,611,o),
(484,608,o),
(479,608,c),
(458,607,o),
(437,610,o),
(417,613,c),
(415,614,o),
(414,614,o),
(413,614,c),
(391,611,o),
(372,619,o),
(352,624,c),
(338,628,o),
(322,629,o),
(308,633,c),
(289,639,o),
(271,642,o),
(252,642,c),
(242,641,o),
(233,648,o),
(222,646,c),
(221,646,o),
(218,649,o),
(218,652,c)
);
},
{
closed = 1;
nodes = (
(105,598,o),
(102,602,o),
(105,606,c),
(106,609,o),
(114,611,o),
(115,610,c),
(124,599,o),
(138,602,o),
(150,599,c),
(186,588,o),
(223,578,o),
(259,568,cs),
(292,559,o),
(325,549,o),
(358,540,c),
(378,535,o),
(399,530,o),
(420,525,c),
(423,525,o),
(427,525,o),
(430,525,c),
(445,524,o),
(459,523,o),
(477,522,c),
(479,503,o),
(481,487,o),
(482,470,cs),
(484,430,o),
(484,389,o),
(485,349,c),
(486,337,o),
(489,326,o),
(491,314,c),
(497,291,o),
(501,267,o),
(502,243,c),
(502,209,o),
(503,174,o),
(505,139,c),
(505,120,o),
(506,101,o),
(507,83,c),
(508,78,o),
(509,74,o),
(510,70,c),
(512,60,o),
(510,57,o),
(501,51,c),
(498,50,o),
(495,48,o),
(492,46,c),
(491,49,o),
(489,52,o),
(489,54,cs),
(489,93,o),
(492,131,o),
(491,169,cs),
(490,209,o),
(486,249,o),
(483,289,c),
(482,294,o),
(481,299,o),
(479,305,c),
(473,327,o),
(471,350,o),
(473,373,c),
(476,395,o),
(473,417,o),
(470,438,c),
(469,452,o),
(469,466,o),
(471,480,cs),
(473,495,o),
(472,498,o),
(457,503,c),
(436,509,o),
(415,515,o),
(394,521,c),
(390,522,o),
(386,522,o),
(382,522,c),
(365,523,o),
(349,528,o),
(333,533,cs),
(298,544,o),
(262,554,o),
(226,565,c),
(215,568,o),
(204,572,o),
(194,576,c),
(171,586,o),
(148,593,o),
(123,594,c),
(119,595,o),
(114,596,o),
(110,597,c)
);
},
{
closed = 1;
nodes = (
(154,371,o),
(161,359,o),
(175,356,c),
(188,354,o),
(200,352,o),
(213,349,c),
(216,348,o),
(220,347,o),
(223,345,c),
(232,338,o),
(242,338,o),
(250,347,c),
(253,351,o),
(257,352,o),
(261,352,cs),
(264,352,o),
(267,353,o),
(271,353,c),
(282,354,o),
(293,360,o),
(306,356,c),
(309,355,o),
(318,358,o),
(320,362,cs),
(324,370,o),
(332,374,o),
(339,376,c),
(357,383,o),
(372,393,o),
(386,406,c),
(391,411,o),
(397,415,o),
(395,424,c),
(394,424,o),
(393,425,o),
(392,424,c),
(349,411,o),
(307,396,o),
(263,390,c),
(256,388,o),
(246,384,o),
(241,387,c),
(233,392,o),
(225,390,o),
(217,391,c),
(211,392,o),
(206,395,o),
(203,402,c),
(198,413,o),
(202,422,o),
(210,431,c),
(202,436,o),
(202,436,o),
(196,434,c),
(188,430,o),
(180,426,o),
(172,422,cs),
(160,416,o),
(154,405,o),
(149,393,c),
(148,390,o),
(148,385,o),
(149,382,c)
);
},
{
closed = 1;
nodes = (
(168,407,o),
(176,420,o),
(190,424,c),
(191,425,o),
(193,424,o),
(194,424,c),
(194,410,o),
(188,400,o),
(180,390,c),
(175,383,o),
(172,375,o),
(168,367,c),
(165,371,o),
(161,375,o),
(158,380,c),
(154,386,o),
(154,393,o),
(159,397,c)
);
},
{
closed = 1;
nodes = (
(175,381,o),
(187,389,o),
(196,399,c),
(200,394,o),
(204,389,o),
(208,385,c),
(204,381,o),
(199,376,o),
(195,372,c),
(190,369,o),
(188,361,o),
(179,364,c)
);
},
{
closed = 1;
nodes = (
(227,358,l),
(231,366,o),
(234,373,o),
(237,379,c),
(247,380,o),
(255,381,o),
(265,383,c),
(262,378,o),
(259,374,o),
(257,370,cs),
(255,366,o),
(252,362,o),
(250,358,c)
);
},
{
closed = 1;
nodes = (
(270,383,o),
(275,387,o),
(292,383,c),
(291,377,o),
(290,371,o),
(290,364,c),
(280,362,o),
(270,360,o),
(259,359,c)
);
},
{
closed = 1;
nodes = (
(323,374,o),
(311,369,o),
(296,367,c),
(297,374,o),
(298,380,o),
(299,388,c),
(307,391,o),
(317,394,o),
(328,397,c),
(328,397,o),
(328,396,o),
(329,395,c),
(327,394,o),
(325,392,o),
(325,391,c)
);
},
{
closed = 1;
nodes = (
(194,358,l),
(199,369,o),
(206,377,o),
(216,381,c),
(220,382,o),
(225,380,o),
(230,379,c),
(226,371,o),
(223,365,o),
(219,358,c)
);
},
{
closed = 1;
nodes = (
(351.063,405.063,o),
(351.133,405.082,o),
(351.211,405.063,c),
(361.154,408.042,o),
(372.07,411.014,o),
(382,413,c),
(378,408,o),
(372,404,o),
(366,400,c),
(364,399,o),
(362,398,o),
(361,397,c),
(360,397,o),
(358,395,o),
(356,395,c),
(355.063,395.937,o),
(352.369,404.78,o),
(351.211,405.063,c),
(351.141,405.042,o),
(351.07,405.021,o),
(351,405,c)
);
},
{
closed = 1;
nodes = (
(330,381,o),
(329,382,o),
(328,382,c),
(333,389,o),
(338,396,o),
(344,404,c),
(346,398,o),
(347,394,o),
(349,389,c),
(343,386,o),
(337,383,o),
(331,380,c)
);
}
);
width = 669;
}
);
}
{
glyphname = TEN_FREE_THROWS;
rightMetricsKey = "=|";
layers = (
{
layerId = "6DC978D1-58EC-4728-9C90-896FC59D3452";
shapes = (
{
closed = 1;
nodes = (
(365,399,o),
(401,379,o),
(441,385,cs),
(484,391,o),
(525,403,o),
(559,433,cs),
(580,451,o),
(588,475,o),
(593,500,cs),
(597,518,o),
(601,535,o),
(606,554,c),
(669,510,o),
(689,447,o),
(695,376,c),
(667,371,o),
(639,369,o),
(612,361,cs),
(555,345,o),
(499,345,o),
(441,359,cs),
(422,364,o),
(401,364,o),
(380,364,cs),
(320,365,o),
(260,364,o),
(199,363,cs),
(178,362,o),
(157,361,o),
(136,359,cs),
(120,358,o),
(118,358,o),
(119,374,cs),
(123,418,o),
(133,460,o),
(159,497,cs),
(179,525,o),
(204,549,o),
(227,575,cs),
(230,579,o),
(235,581,o),
(240,584,c),
(246,565,o),
(250,546,o),
(257,529,cs),
(274,488,o),
(291,445,o),
(332,420,cs)
);
},
{
closed = 1;
nodes = (
(502,614,o),
(522,605,o),
(542,597,c),
(560,591,o),
(564,583,o),
(560,565,cs),
(554,542,o),
(550,520,o),
(543,497,cs),
(539,486,o),
(532,474,o),
(523,466,cs),
(499,446,o),
(468,434,o),
(438,434,cs),
(385,433,o),
(341,458,o),
(318,509,c),
(307,536,o),
(298,565,o),
(288,593,c),
(288,595,o),
(288,599,o),
(287,603,c),
(295,603,o),
(302,604,o),
(309,604,c),
(335,605,o),
(360,612,o),
(384,622,cs),
(416,635,o),
(449,631,o),
(481,621,cs)
);
},
{
closed = 1;
nodes = (
(614,168,o),
(586,173,o),
(569,189,cs),
(541,214,o),
(507,230,o),
(473,245,cs),
(404,275,o),
(332,237,o),
(309,171,cs),
(288,109,l),
(224,110,o),
(133,222,o),
(130,311,c),
(150,313,o),
(170,315,o),
(189,315,cs),
(241,315,o),
(294,314,o),
(346,313,c),
(348,313,o),
(350,313,o),
(351,313,c),
(392,321,o),
(431,311,o),
(471,304,cs),
(518,296,o),
(566,298,o),
(613,311,c),
(642,320,o),
(672,324,o),
(701,329,c),
(713,284,o),
(663,172,o),
(615,138,c)
);
},
{
closed = 1;
nodes = (
(536,91,o),
(524,86,o),
(512,81,cs),
(482,68,o),
(452,65,o),
(421,74,cs),
(406,78,o),
(390,80,o),
(375,83,cs),
(362,86,o),
(348,90,o),
(333,94,c),
(342,119,o),
(348,142,o),
(358,164,cs),
(378,206,o),
(423,217,o),
(467,196,cs),
(502,179,o),
(532,155,o),
(564,133,cs),
(567,131,o),
(569,126,o),
(568,122,cs),
(566,110,o),
(562,99,o),
(548,95,cs)
);
},
{
closed = 1;
nodes = (
(769,357,o),
(760,401,o),
(752,444,c),
(749,457,l),
(745,481,o),
(737,510,o),
(718,535,cs),
(697,562,o),
(672,593,o),
(639,616,cs),
(614,634,o),
(592,647,o),
(571,659,cs),
(561,664,o),
(552,667,o),
(543,670,cs),
(536,672,o),
(530,674,o),
(525,676,cs),
(497,690,o),
(468,695,o),
(443,698,c),
(418,700,l),
(413,699,o),
(407,698,o),
(402,697,cs),
(388,695,o),
(374,693,o),
(360,686,cs),
(343,678,o),
(323,674,o),
(298,673,cs),
(249,671,o),
(208,653,o),
(175,619,cs),
(163,607,o),
(151,594,o),
(141,582,cs),
(135,575,o),
(129,569,o),
(123,562,cs),
(77,511,o),
(62,449,o),
(53,401,cs),
(46,361,o),
(55,324,o),
(63,288,cs),
(65,280,o),
(67,273,o),
(68,266,c),
(72,251,o),
(77,237,o),
(82,223,c),
(84,216,l),
(96,182,o),
(116,151,o),
(147,118,cs),
(175,88,o),
(210,56,o),
(258,43,cs),
(293,34,o),
(328,26,o),
(362,17,cs),
(377,13,ls),
(382,12,o),
(386,11,o),
(391,11,c),
(395,10,o),
(400,9,o),
(403,8,cs),
(421,3,o),
(439,0,o),
(457,0,cs),
(484,0,o),
(511,6,o),
(539,18,c),
(542,20,l),
(549,23,o),
(555,26,o),
(561,28,cs),
(629,50,o),
(681,91,o),
(715,150,cs),
(742,197,o),
(774,250,o),
(771,313,cs)
);
}
);
width = 822;
}
);
}
